<?xml version="1.0" encoding="utf-8" ?>
<svg baseProfile="full" height="300mm" version="1.1" viewBox="0,0,200,300" width="200mm" xmlns="http://www.w3.org/2000/svg" xmlns:ev="http://www.w3.org/2001/xml-events" xmlns:xlink="http://www.w3.org/1999/xlink"><defs /><rect fill="#222222" height="300" width="200" x="0" y="0" /><text fill="#FFFFFF" style="font-size:12px; font-family:Arial; font-weight:bold;" x="10" y="20">Over 10km Runs</text><text fill="#FFFFFF" style="font-size:4px; font-family:Arial" x="10" y="280">Runner</text><text fill="#FFFFFF" style="font-size:9px; font-family:Arial" x="10" y="290">yihong0618</text><text fill="#FFFFFF" style="font-size:4px; font-family:Arial" x="65" y="280">SPECIAL TRACKS</text><rect fill="yellow" height="2.6" width="2.6" x="65" y="283" /><text fill="#FFFFFF" style="font-size:3px; font-family:Arial" x="70" y="285.5">Over 20.0 km</text><rect fill="red" height="2.6" width="2.6" x="65" y="287" /><text fill="#FFFFFF" style="font-size:3px; font-family:Arial" x="70" y="289.5">Over 40.0 km</text><text fill="#FFFFFF" style="font-size:4px; font-family:Arial" x="120" y="280">STATISTICS</text><text fill="#FFFFFF" style="font-size:3px; font-family:Arial" x="120" y="285">Number: 3</text><text fill="#FFFFFF" style="font-size:3px; font-family:Arial" x="120" y="290">Weekly: 1.0</text><text fill="#FFFFFF" style="font-size:3px; font-family:Arial" x="141" y="285">Total: 46.0 km</text><text fill="#FFFFFF" style="font-size:3px; font-family:Arial" x="141" y="290">Avg: 15.3 km</text><text fill="#FFFFFF" style="font-size:3px; font-family:Arial" x="167" y="285">Min: 10.1 km</text><text fill="#FFFFFF" style="font-size:3px; font-family:Arial" x="167" y="290">Max: 21.5 km</text><polyline fill="none" points="21.07723669311963,41.59618895127642 21.003850509645417,41.75550841360382 21.113929784856737,42.0104190469865 21.123103057791013,42.063525350509735 21.113929784856737,42.063525350509735 21.10475651192246,42.32905646238942 21.21483578713378,43.34868964854104 21.288221970607992,43.99657638854114 21.68267270672368,44.11340799523168 22.52661381656071,43.89036572344048 23.526500566280447,43.49738532182528 24.599773499474395,43.10440343923983 25.79229898081394,42.668935298941506 26.7004530011327,42.41402627535717 27.049037372577004,42.28657152991218 27.82876557193231,42.052904091957316 28.599320498353336,41.76612970242422 29.14054360135924,41.61743156034936 29.681766704423353,41.44749056681758 30.24133635335602,41.28817063385213 30.663306908274535,41.28817063385213 30.993544733850285,42.15911662867438 31.397168742958456,42.87073783395317 31.8833522083587,43.35931077510759 32.332842582138255,43.67794406864414 32.773159682925325,44.09216589466814 33.11257078143535,44.49576506559242 33.837259343184996,45.07991899370245 34.32344280864345,45.63220697094221 34.67202718008775,46.03580018148932 35.28663646662608,46.91732728865463 35.589354473399,47.363398407142085 36.2498301245505,47.9581569305592 36.690147225395776,48.31925866491656 37.11211778031429,48.69097973251337 36.70849377126433,49.07332001982286 35.89207248023013,49.45565890547732 35.34167610423174,49.57248439652176 34.97474518686067,49.40255636629445 34.20419026055606,49.27511016193603 33.43363533413503,49.39193585520843 32.83737259346526,49.721171195895295 32.08516421291279,49.721171195895295 31.369648924155626,50.19909161521355 30.791732729354408,50.70887098197272 30.21381653455319,50.95313937886385 29.314835787110496,51.73904251375643 28.608493771229405,52.493079144260264 27.920498301275074,53.3214511306287 27.489354473364074,53.56571340910887 26.847225368081126,53.9055556276071 26.26013590034563,54.09671638895088 25.15934314840706,54.39407687692437 24.636466591153294,54.72329642836121 24.251189127971884,55.179954085899226 23.5815402038279,56.02954440825124 23.058663646690547,56.560534845877555 22.39818799548084,57.102142307776376 21.673499433789402,57.346395733286045 20.875424688565545,57.48445176428504 20.03148357878672,57.68622563480312 19.554473386204336,57.77118293719104 18.765571913972963,57.51631082242238 17.985843714675866,57.473832076080726 17.086862967174966,57.27205779473297 16.435560588899534,57.2932972111812 15.949377123441081,57.18710008585185 15.619139297865331,57.68622563480312 15.582446206186432,58.3127841135647 15.600792751996778,59.00305604702589 15.591619479062501,59.85261523370718 15.582446206186432,60.48978008358972 15.720045300142374,61.25437276678713 15.738391846010927,61.838432846918295 15.765911664813757,62.48620474798372 15.83929784828797,62.91097102440108 15.912684031703975,63.43130735628074 16.022763306915294,64.10030739853391 16.096149490389507,64.89673042727372 16.20622876554262,65.51262673448946 16.398867497220635,66.22408863292367 16.536466591176577,66.69131470340653 16.655719139322173,67.10544515325455 16.885050962679088,67.70009112987464 17.059343148372136,68.30535230461828 17.123556058912072,68.82566173639498 17.206115515320562,69.1548357513384 17.417100792808924,69.81318066612585 17.18776896945201,70.19544354944082 16.58233295584796,70.80069025090779 16.14201585506089,71.26789583030768 15.380634201632347,72.00055491331295 15.013703284261283,72.29786437843723 14.729331823356915,72.69073630109779 14.509173272992484,73.31720468583808 14.61007927521132,73.82687110599363 14.931143827911,74.46395063117961 15.187995470012538,74.88866815412621 15.931030577572528,75.63191966054728 16.655719139322173,76.20528149191523 17.050169875496067,76.54504997977347 17.71064552658936,77.05470063775283 18.19682899210602,77.47940761840437 18.563759909418877,77.77670147659956 19.37100792757701,78.41375689287088 20.05900339753134,79.0508084210087 20.343374858493917,79.51797707064543 20.66443941113539,80.08070016794227 20.930464326171204,80.49477749078505 21.288221970607992,81.13181631860061 21.701019252592232,81.8007029037617 22.233069082722068,82.56513946725318 22.462400906020775,82.9792069352261 22.792638731596526,83.5419113745229 23.13204983016476,84.0939958011295 23.315515288792085,84.74162958031957 22.82933182339184,85.41049303650652 22.63669309177203,85.85639962666028 22.58165345416637,86.34477132586471 22.499093997757882,87.17287463827233 22.26058890146669,87.72493986420159 22.159682899189647,88.48933305021637 21.921177802956663,89.05200779178267 21.664326160855126,89.69961081648944 21.5175537939067,90.13488272346876 21.334088335279375,90.6444670406272 21.150622876593843,91.14343260805617 20.902944507368375,91.63177957801963 20.58187995478511,92.43860869845957 20.352548131369986,92.98003000760218 20.159909399808384,93.70192071964993 19.9214043035754,94.32826302935428 19.90305775764864,94.68920434902975 19.93057757645147,95.43231490248581 20.049830124597065,96.49389223458275 20.14156285393983,97.42807136044576 20.14156285393983,98.6063990220282 20.086523216275964,99.20086558963521 19.94892412237823,99.69979027580848 19.84801812004298,100.06071303116914 19.765458663692698,100.6870172054405 19.637032842612825,101.35577853350696 19.554473386204336,101.96084461680584 19.51778029446723,102.43852589085145 19.46274065686157,102.79943918243953 19.407701019314118,103.25588655939646 19.42604756518267,103.61679702673428 19.389354473387357,104.20062014251016 19.591166477941442,104.68890606075001 19.857191392977256,105.41071584591555 20.132389581005555,106.00514368859876 20.44428086077096,106.56772406697564 20.792865232215263,107.24706237242935 20.948810872039758,107.5442714918754 21.29739524348406,107.53365689503698 21.609286523249466,107.82025063137553 22.113816534576472,108.07499995915714 22.91189127974212,107.68226115276047 23.544847112149,107.24706237242935 23.90260475652758,107.10907213667087 24.306228765577544,106.92862309182965 24.801585503970273,106.79063243543351 25.471234428114258,106.67387096841412 26.489467723702546,106.5252652761701 27.131596828985494,106.49342117179913 27.700339750910643,106.54649467375566 28.223216308047995,106.4615770576711 28.67270668176934,106.22805325753143 29.204756511957385,105.96268466916081 29.74597961496329,105.70793019005941 30.5624009060557,105.41071584591555 31.543941109848674,105.0710412742119 32.525481313758064,104.66767628570233 33.323556058923714,104.42353356227977 34.341789354512,104.24307987818611 34.97474518686067,104.10508567412762 35.85537938849302,103.89278654271038 36.90113250288414,103.65925699971558 37.31392978486838,103.82909671912057 37.56160815403564,104.25369480941299 38.066138165362645,105.06042642604007 38.62570781429531,105.90961087055621 38.98346545867389,106.50403587434266 39.267836919636466,106.94985240740061 39.543035107606556,107.38505242590327 39.983352208393626,108.11745812008303 40.16681766707916,108.3509776965875 40.54292185732629,108.76494293574069 41.13001132506179,108.6163402181337 41.441902604768984,108.43589377682656 42.22163080412429,108.1068435814741 42.95549263875,107.74594862708182 43.67100792756537,107.36382319877885 44.37734994344646,107.00292567745782 45.368063420115504,106.50403587434266 46.294563986419234,106.00514368859876 47.21189127973048,105.51686392306146 48.08335220837034,105.04981157678412 48.85390713479137,104.59337203895848 49.43182332953438,104.20062014251016 50.018912797328085,103.86094163575763 50.61517553793965,103.52126202436193 51.08301245752955,103.21342642239324 51.64258210652042,102.87374470529176 52.000339750899,102.62959778883669 52.376443941146135,102.42791077518632 52.84428086067783,102.13068709785875 53.68822197057307,101.63177402380825 54.26613816531608,101.35577853350696 55.119252548145596,100.87809230757557 55.9356738391798,100.37917325014132 56.58697621745523,99.9864055070284 57.04563986411085,99.74225184119132 57.74280860699946,99.33886627321044 58.42163080407772,98.97794102331682 58.72434881090885,98.78686244486016 59.24722536810441,98.35162660005881 59.971913929795846,97.86331105409045 60.54065685160458,97.47053384940227 61.35707814269699,96.92913582155597 62.18267270666547,96.34527205771155 62.92570781428367,95.80386819624255 63.41189127974212,95.50662566698156 63.8889014722663,95.13507131564984 64.52185730467318,94.69982025132049 65.18233295588288,94.3176470893086 65.50339750852436,94.16902381525142 66.09048697620165,93.79746470464306 66.75096262741135,93.40467220732535 67.17293318238808,93.14988709471072 67.8242355606053,92.76770826015854 68.54892412229674,92.3005988961595 69.10849377128761,91.98211404085305 69.90656851639505,91.50438493648107 70.69546998868464,91.06911873849458 71.33759909402579,90.68693228811026 71.89716874295846,90.38967519292055 72.53012457536533,89.97563711431576 73.37406568520237,89.52974811665626 73.97950169874821,89.16878896197886 74.62163080408936,88.79721205808164 75.40135900338646,88.25576905933849 75.96092865231913,87.83110591913282 76.33703284256626,87.52322406241728 76.98833522084169,87.04547455618012 77.39195922989165,86.6845068127077 77.58459796151146,86.54648940449988 77.8781426953501,86.30230431225937 78.48357870895416,85.7077643082157 79.15322763309814,85.03890275656158 79.6761041902937,84.53990801431064 80.30906002270058,83.99844293625938 80.9236693091807,83.43574095774238 81.72174405434635,82.76686484912352 82.53816534543876,82.04489852560073 83.2261608154513,81.45033427463204 83.7673839184572,80.90885317110951 84.48289920727257,80.21872612474544 84.84983012458542,79.86835218573106 85.43691959232092,79.32686287577235 85.74881087202812,79.07204340497992 86.17995469993912,78.64734290462366 86.63861834653653,78.18017035837693 87.24405436014058,77.59620173510484 87.81279728194932,77.15025985903776 88.3265005662688,76.41763692645327 88.74847112124553,75.82304062096955 89.25300113251433,75.18596939184499 90.05107587773819,73.93305129693908 90.61064552661264,73.28535045191529 90.83997734991135,73.22164195495861 91.17021517554531,72.55270038868912 91.99580973951379,71.35284207456425 92.44530011323513,70.88563687544229 92.94983012462035,70.1635883626368 93.33510758774355,69.55833796601655 93.60113250283757,69.10174323852698 93.96806342015043,68.35844522263505 94.57349943375448,67.34967516087636 94.85787089471705,66.87183330670814 95.27066817664308,66.13913821354072 95.5,65.5657210735153 95.16976217442425,65.18344122946291 94.67440543603152,64.75868420448387 94.27995469991583,64.52506710369198 93.72038505098317,64.35516342912888 93.25254813139327,64.02597427231376 92.99569648923352,63.83483170464024 92.37191392981913,63.36759284284199 92.01415628544055,63.31449738523952 91.63805209513521,63.792355530960776 91.34450736123836,64.17464047176327 91.20690826728242,64.39763937371026" stroke="yellow" stroke-linecap="round" stroke-linejoin="round" stroke-width="0.5"><title>2024-11-03 21.5km</title><desc>9223370306257627507</desc></polyline><polyline fill="none" points="135.93733645230532,50.25006996560842 126.87467290461063,94.50008578039706 137.879335783422,108.75003411900252 151.47333110496402,93.75008773291484 159.8886615410447,61.50009926408529 160.5359946526587,41.250034123659134 148.23666555061936,36.00000812113285 137.2320026755333,42.75004086224362 129.4640053473413,86.25010305223987 129.4640053473413,105.75004729395732 141.76333444565535,109.50003063539043 153.4153304360807,93.75008773291484 158.59399532154202,62.250100602861494 160.5359946526587,41.250034123659134 146.29466622322798,35.25000409828499 136.5846695639193,43.50004411581904 130.758671566844,78.75011071003973 126.87467290461063,97.50007720291615 133.99533712118864,108.75003411900252 152.7679973244667,104.2500534215942 157.94666220992804,71.25011071190238 162.47799398377538,45.00005039665848 153.4153304360807,36.00000812113285 139.17400200292468,39.75002707540989 127.52200601622462,90.00009634997696 129.4640053473413,107.25004086084664 146.94199933111668,109.50003063539043 157.29932910203934,70.50011029141024 159.8886615410447,48.00006203958765 146.29466622322798,39.000023438129574 137.879335783422,51.00007245503366 129.4640053473413,86.25010305223987 128.1693391278386,102.00006203865632 141.11600133776665,109.50003063539043 152.120664216578,97.50007720291615 157.94666220992804,71.25011071190238 157.94666220992804,40.50003063771874 140.46866822615266,38.2500197221525 130.758671566844,72.75011132471263 130.758671566844,105.75004729395732 146.94199933111668,107.25004086084664 158.59399532154202,73.50011151423678 160.5359946526587,41.250034123659134 143.7053337804973,37.500015932600945 133.34800401329994,69.75010979222134 128.1693391278386,94.50008578039706 135.93733645230532,109.50003063539043 152.120664216578,101.2500647585839 159.241328433156,59.25009478162974 159.241328433156,42.75004086224362 144.352666888386,36.75001206481829 130.758671566844,46.50005637295544 129.4640053473413,89.25009784381837 132.05333779379725,107.25004086084664 150.17866488546133,104.2500534215942 157.29932910203934,68.25010856706649 160.5359946526587,42.75004086224362 144.352666888386,36.00000812113285 133.34800401329994,60.00009635090828 128.1693391278386,93.75008773291484 136.5846695639193,109.50003063539043 151.47333110496402,102.00006203865632 161.8306608721614,49.50006740074605 150.82599799335003,37.500015932600945 135.93733645230532,45.00005039665848 128.8166722357273,88.50009926036 128.1693391278386,104.2500534215942 145.0,108.75003411900252 156.00466287881136,73.50011151423678 161.1833277642727,55.500085783191025 157.94666220992804,39.000023438129574 140.46866822615266,39.000023438129574 135.29000334441662,56.250087736640126 127.52200601622462,99.00007245223969 138.52666889503598,110.25002707261592 148.23666555061936,97.50007720291615 154.06266354769468,80.25010979315266 163.12532709538937,45.750053422991186 148.88399866223335,36.75001206481829 135.93733645230532,48.75006475811824 128.8166722357273,85.50010416097939 135.29000334441662,108.75003411900252 150.17866488546133,100.50006739795208 162.47799398377538,49.50006740074605 152.7679973244667,36.75001206481829 135.93733645230532,46.50005637295544 131.40600467845798,70.50011029141024 128.8166722357273,96.00008164485916 135.93733645230532,111.75001972261816 152.7679973244667,104.2500534215942 160.5359946526587,57.00008961232379 160.5359946526587,39.75002707540989 142.41066755726933,37.500015932600945 133.99533712118864,71.25011071190238 128.8166722357273,96.00008164485916 136.5846695639193,110.25002707261592 151.47333110496402,102.75005924189463 155.35732976719737,75.00011166837066 161.8306608721614,50.25006996560842 149.53133177384734,37.500015932600945 136.5846695639193,48.00006203958765 133.34800401329994,64.5001041633077 128.1693391278386,94.50008578039706 135.29000334441662,109.50003063539043 150.17866488546133,101.2500647585839 160.5359946526587,56.250087736640126 157.29932910203934,41.250034123659134 140.46866822615266,42.00003753090277 133.34800401329994,67.50010784063488 130.1113384589553,83.2501070345752 127.52200601622462,101.2500647585839 141.76333444565535,109.50003063539043 152.7679973244667,95.25008375011384 161.8306608721614,51.75007486902177 151.47333110496402,37.500015932600945 137.2320026755333,42.75004086224362 131.40600467845798,77.25011132471263 128.1693391278386,103.50005636876449 144.352666888386,110.25002707261592 153.4153304360807,94.50008578039706 157.29932910203934,77.25011132471263 160.5359946526587,61.50009926408529 154.70999665558338,36.75001206481829 139.17400200292468,42.00003753090277 134.64267023280263,59.25009478162974 132.05333779379725,76.5001115174964 127.52200601622462,102.00006203865632 142.41066755726933,109.50003063539043 154.70999665558338,90.00009634997696 160.5359946526587,50.25006996560842 152.7679973244667,37.500015932600945 138.52666889503598,43.50004411581904 132.05333779379725,67.50010784063488 127.52200601622462,100.50006739795208 140.46866822615266,115.5 154.06266354769468,100.50006739795208 157.29932910203934,75.00011166837066 161.8306608721614,48.75006475811824 148.23666555061936,38.2500197221525 133.34800401329994,56.250087736640126 128.1693391278386,96.00008164485916 135.93733645230532,110.25002707261592 150.17866488546133,102.75005924189463 154.70999665558338,76.5001115174964 158.59399532154202,42.75004086224362 143.05800066888332,38.2500197221525 132.70067089796066,69.75010979222134 128.1693391278386,102.75005924189463 143.05800066888332,109.50003063539043 156.00466287881136,81.75010856799781 161.1833277642727,57.00008961232379 157.29932910203934,41.250034123659134 140.46866822615266,41.250034123659134 133.99533712118864,56.250087736640126 128.8166722357273,88.50009926036 129.4640053473413,105.75004729395732 145.6473331078887,108.00003752671182 152.7679973244667,93.75008773291484 161.8306608721614,51.75007486902177 155.35732976719737,36.75001206481829 139.82133511826396,41.250034123659134 132.05333779379725,73.50011151423678 128.1693391278386,103.50005636876449 142.41066755726933,110.25002707261592 152.120664216578,96.00008164485916 162.47799398377538,44.25004729581997 150.17866488546133,34.5 137.879335783422,46.50005637295544 131.40600467845798,75.00011166837066 128.8166722357273,90.75009478023276 130.758671566844,107.25004086084664 147.58933244273067,108.75003411900252 152.7679973244667,92.25009141117334 159.241328433156,63.000101865734905 159.8886615410447,43.50004411581904 148.23666555061936,38.2500197221525 137.879335783422,47.2500592446886 130.1113384589553,82.50010783970356 131.40600467845798,108.00003752671182 148.23666555061936,106.50004411488771 157.94666220992804,72.75011132471263 156.65199598670006,39.75002707540989 139.82133511826396,42.75004086224362 131.40600467845798,77.25011132471263 130.758671566844,108.75003411900252 147.58933244273067,107.25004086084664 154.70999665558338,90.00009634997696 161.1833277642727,55.500085783191025 157.94666220992804,39.75002707540989 140.46866822615266,41.250034123659134 132.70067089796066,75.00011166837066 132.05333779379725,108.75003411900252 146.94199933111668,105.0000503952615 152.120664216578,88.50009926036 160.5359946526587,45.00005039665848 146.94199933111668,38.2500197221525 135.93733645230532,45.750053422991186 128.1693391278386,96.75007946323603 135.93733645230532,108.75003411900252 149.53133177384734,102.00006203865632 159.8886615410447,52.50007720431313 150.82599799335003,39.000023438129574 136.5846695639193,46.50005637295544 127.52200601622462,96.75007946323603 135.93733645230532,110.25002707261592 147.58933244273067,106.50004411488771 156.65199598670006,72.00011105742306 161.1833277642727,46.50005637295544 149.53133177384734,36.75001206481829 136.5846695639193,48.00006203958765 128.1693391278386,99.75006996421143 140.46866822615266,108.75003411900252 154.70999665558338,87.0001018657349 161.1833277642727,54.75008375244215 154.06266354769468,40.50003063771874 137.879335783422,44.25004729581997 132.70067089796066,67.50010784063488 126.87467290461063,102.00006203865632 140.46866822615266,109.50003063539043 152.7679973244667,87.75010060099885 161.1833277642727,54.75008375244215 156.00466287881136,39.000023438129574 138.52666889503598,42.75004086224362 130.1113384589553,84.7501051966101 133.34800401329994,108.75003411900252 148.23666555061936,105.75004729395732 157.94666220992804,61.50009926408529 161.1833277642727,45.750053422991186 148.23666555061936,36.75001206481829 136.5846695639193,48.75006475811824 134.64267023280263,64.5001041633077 128.8166722357273,98.2500748662278 139.82133511826396,109.50003063539043 155.35732976719737,90.75009478023276 159.8886615410447,56.250087736640126 156.00466287881136,40.50003063771874 138.52666889503598,42.75004086224362 132.70067089796066,74.25011163111776 128.1693391278386,97.50007720291615 138.52666889503598,109.50003063539043 151.47333110496402,99.75006996421143 158.59399532154202,57.00008961232379 157.29932910203934,40.50003063771874 142.41066755726933,39.75002707540989 133.34800401329994,64.5001041633077 128.1693391278386,89.25009784381837 130.1113384589553,106.50004411488771 147.58933244273067,105.75004729395732 157.29932910203934,71.25011071190238 158.59399532154202,43.50004411581904 147.58933244273067,38.2500197221525 137.879335783422,45.750053422991186 126.87467290461063,96.00008164485916 136.5846695639193,108.75003411900252 150.82599799335003,99.00007245223969 153.4153304360807,84.00010615494102 160.5359946526587,50.25006996560842 151.47333110496402,39.000023438129574 137.879335783422,45.750053422991186 128.1693391278386,95.25008375011384 132.70067089796066,108.75003411900252 147.58933244273067,103.50005636876449 153.4153304360807,88.50009926036 155.35732976719737,72.75011132471263 161.1833277642727,50.25006996560842 152.7679973244667,37.500015932600945 136.5846695639193,45.750053422991186 130.1113384589553,79.50011029047891 133.34800401329994,109.50003063539043 148.23666555061936,104.2500534215942 152.120664216578,89.25009784381837 160.5359946526587,49.50006740074605 152.7679973244667,39.75002707540989 139.17400200292468,43.50004411581904 129.4640053473413,92.25009141117334 133.34800401329994,108.75003411900252 148.88399866223335,105.75004729395732 153.4153304360807,89.25009784381837 158.59399532154202,62.250100602861494 159.241328433156,46.50005637295544 141.76333444565535,42.00003753090277 132.70067089796066,72.00011105742306 129.4640053473413,105.75004729395732 141.76333444565535,111.00002343580127 155.35732976719737,81.00010921852663 160.5359946526587,48.75006475811824 146.94199933111668,39.75002707540989 135.29000334441662,50.25006996560842 126.87467290461063,99.75006996421143 137.2320026755333,109.50003063539043 151.47333110496402,100.50006739795208 155.35732976719737,84.00010615494102 161.8306608721614,52.50007720431313 152.7679973244667,38.2500197221525 138.52666889503598,44.25004729581997 128.8166722357273,94.50008578039706 132.70067089796066,108.75003411900252 148.23666555061936,105.0000503952615 157.29932910203934,72.00011105742306 161.1833277642727,57.00008961232379 157.29932910203934,42.00003753090277 141.76333444565535,41.250034123659134 132.70067089796066,73.50011151423678 129.4640053473413,106.50004411488771 145.6473331078887,108.00003752671182 155.35732976719737,82.50010783970356 161.1833277642727,51.75007486902177 150.82599799335003,39.000023438129574 137.879335783422,45.750053422991186 133.34800401329994,71.25011071190238 129.4640053473413,105.75004729395732 144.352666888386,109.50003063539043 155.35732976719737,86.25010305223987 160.5359946526587,54.00008164718747 154.06266354769468,40.50003063771874 139.17400200292468,45.00005039665848 130.1113384589553,85.50010416097939 132.05333779379725,109.50003063539043 148.88399866223335,106.50004411488771 161.8306608721614,57.750091411639005 159.241328433156,42.75004086224362 143.05800066888332,40.50003063771874 132.70067089796066,70.50011029141024 127.52200601622462,104.2500534215942 142.41066755726933,111.00002343580127 154.70999665558338,84.7501051966101 160.5359946526587,54.00008164718747 152.7679973244667,41.250034123659134 137.879335783422,45.750053422991186 129.4640053473413,92.25009141117334 130.758671566844,108.00003752671182 146.29466622322798,108.75003411900252 153.4153304360807,93.00008960999548 159.8886615410447,52.50007720431313 152.120664216578,40.50003063771874 137.879335783422,46.50005637295544 130.758671566844,81.00010921852663 128.1693391278386,104.2500534215942 141.76333444565535,110.25002707261592 155.35732976719737,81.75010856799781 159.8886615410447,51.00007245503366 148.88399866223335,39.75002707540989 135.93733645230532,50.25006996560842 128.1693391278386,97.50007720291615 135.93733645230532,110.25002707261592 149.53133177384734,102.75005924189463 157.29932910203934,65.2501051966101 156.00466287881136,42.00003753090277 141.11600133776665,41.250034123659134 132.70067089796066,72.75011132471263 128.8166722357273,102.75005924189463 142.41066755726933,110.25002707261592 152.7679973244667,96.75007946323603 160.5359946526587,50.25006996560842 150.17866488546133,40.50003063771874 137.879335783422,47.2500592446886 132.70067089796066,78.00011105602607 131.40600467845798,108.75003411900252 147.58933244273067,107.25004086084664 159.241328433156,65.2501051966101 164.41999331489205,47.2500592446886 152.7679973244667,36.00000812113285 137.879335783422,46.50005637295544 128.8166722357273,95.25008375011384 133.34800401329994,110.25002707261592 148.23666555061936,105.0000503952615 155.35732976719737,75.00011166837066 158.59399532154202,42.00003753090277 142.41066755726933,41.250034123659134 132.05333779379725,70.50011029141024 127.52200601622462,101.2500647585839 139.17400200292468,111.75001972261816 152.7679973244667,93.00008960999548 158.59399532154202,61.50009926408529 161.8306608721614,43.50004411581904 146.29466622322798,38.2500197221525 136.5846695639193,51.75007486902177 128.8166722357273,98.2500748662278 135.93733645230532,111.00002343580127 150.17866488546133,103.50005636876449 160.5359946526587,53.25007946230471 152.120664216578,41.250034123659134 138.52666889503598,45.750053422991186 133.99533712118864,70.50011029141024 128.8166722357273,102.75005924189463 142.41066755726933,111.00002343580127 152.120664216578,96.75007946323603 157.29932910203934,68.25010856706649 161.1833277642727,54.00008164718747 154.06266354769468,41.250034123659134 139.17400200292468,44.25004729581997 132.05333779379725,76.5001115174964 131.40600467845798,108.00003752671182 147.58933244273067,108.75003411900252 156.00466287881136,74.25011163111776 157.29932910203934,41.250034123659134" stroke="#4DD2FF" stroke-linecap="round" stroke-linejoin="round" stroke-width="0.5"><title>2024-10-22 14.5km</title><desc>9223370307247793707</desc></polyline><polyline fill="none" points="67.22548872232437,188.47549156984314 53.49862419255078,184.5 44.91933386027813,186.98468261118978 38.055901596322656,195.9295295146294 38.48486611247063,217.79464164562523 38.055901596322656,243.13817147212103 41.91658224351704,257.5491394009441 56.93034032545984,263.0153574552387 65.93859517201781,259.5368557665497 71.94409840367734,251.58598543144763 72.37306292168796,230.2179570645094 72.80202743969858,206.86209785426036 70.65720485337079,197.9172710380517 62.93584355711937,191.95404403097928 53.49862419255078,190.96017215307802 42.34554676152766,196.42646497115493 38.055901596322656,214.31610764795914 37.62693707831204,244.13203269895166 41.91658224351704,257.5491394009441 53.49862419255078,263.0153574552387 62.07791452482343,262.02150008641183 71.51513388752937,252.08291520737112 72.37306292168796,238.16886229533702 73.2309919539839,214.31610764795914 68.9413467887789,194.9356584479101 57.78826935775578,190.46323613682762 48.78001450933516,191.95404403097928 41.48761772736907,196.92340037692338 37.19797256216407,208.3529007267207 38.055901596322656,244.13203269895166 40.62968869507313,256.05835159355775 48.35104999318719,263.0153574552387 66.36755969002843,260.03378473222256 73.2309919539839,237.6719310991466 72.80202743969858,214.81304122926667 72.80202743969858,200.8988818032667 62.5068790409714,190.46323613682762 48.78001450933516,191.45710811764002 41.48761772736907,197.42033573333174 38.48486611247063,213.32224033446983 37.62693707831204,225.2486347015947 37.19797256216407,249.10133578907698 43.63244030997157,260.03378473222256 55.21448225900531,263.512286065612 65.93859517201781,259.5368557665497 71.94409840367734,249.59826581878588 72.80202743969858,240.15658657439053 72.80202743969858,217.79464164562523 70.65720485337079,200.4019468021579 56.50137580744922,189.96630007214844 46.63519192673266,191.45710811764002 38.055901596322656,202.8866212987341 37.62693707831204,212.8253066027537 37.19797256216407,246.61668487777933 42.34554676152766,258.04606856778264 52.64069515839219,263.0153574552387 65.08066613972187,261.0276425094344 71.94409840367734,244.62896323530003 72.80202743969858,233.1995480475016 72.37306292168796,203.38355604512617 65.08066613972187,193.94178717862815 53.49862419255078,189.96630007214844 42.77451127767563,195.43259400688112 38.055901596322656,219.28544117044657 38.055901596322656,249.59826581878588 44.06140482798219,259.5368557665497 56.07241129130125,263.512286065612 71.0861693713814,253.07677460834384 73.2309919539839,222.76397161837667 70.65720485337079,198.911141497083 60.79102097265422,191.45710811764002 47.92208547703922,190.96017215307802 39.342795146629214,201.3958167526871 38.055901596322656,222.76397161837667 36.7690080460161,248.1074755769223 41.91658224351704,260.03378473222256 53.06965967454016,265.5 64.65170162171125,263.0153574552387 71.94409840367734,252.5798449339345 72.80202743969858,214.81304122926667 68.9413467887789,196.42646497115493 57.78826935775578,190.46323613682762 45.77726289443672,193.4448514673859 38.48486611247063,203.38355604512617 38.055901596322656,228.23022872721776 37.19797256216407,249.10133578907698 42.77451127767563,260.03378473222256 54.356553226709366,265.0030715921894 66.36755969002843,261.0276425094344 71.94409840367734,250.0951957977377 72.37306292168796,211.3345050998032 71.0861693713814,199.90501175122336 62.5068790409714,191.95404403097928 50.924837093800306,191.45710811764002 41.058653209358454,197.9172710380517 38.055901596322656,208.84983491664752 37.62693707831204,243.63510211044922 39.771759662777185,258.04606856778264 50.06690805964172,264.00921462569386 62.07791452482343,263.512286065612 70.22824033908546,255.06449280120432 71.94409840367734,236.67806855402887 72.80202743969858,205.37129452778026 67.65445323847234,194.9356584479101 56.93034032545984,190.96017215307802 45.348298378288746,194.43872283771634 38.91383063048124,203.88049074215814 37.19797256216407,229.2240929985419 37.62693707831204,253.57370423339307 43.63244030997157,261.52457132190466 54.356553226709366,264.5061431340873 65.08066613972187,261.0276425094344 71.94409840367734,250.59212572639808 72.37306292168796,213.81917401729152 68.9413467887789,196.42646497115493 58.2172338757664,190.46323613682762 46.20622740872204,192.45097989449278 38.91383063048124,201.3958167526871 36.7690080460161,238.66579344216734 38.055901596322656,253.57370423339307 47.92208547703922,262.5184287969023 60.79102097265422,262.5184287969023 69.79927582107484,254.56756332842633 73.2309919539839,235.68420580681413 73.65995647199452,206.36516346270218 67.65445323847234,195.43259400688112 56.93034032545984,189.96630007214844 45.348298378288746,193.4448514673859 38.91383063048124,203.88049074215814 38.055901596322656,227.23636425565928 37.62693707831204,249.59826581878588 44.06140482798219,259.5368557665497 55.64344677515328,262.5184287969023 67.22548872232437,257.5491394009441 71.94409840367734,246.61668487777933 72.37306292168796,216.30384166538715 70.65720485337079,198.911141497083 62.5068790409714,190.96017215307802 44.06140482798219,192.9479157058522 38.055901596322656,202.38968650158495 36.7690080460161,238.16886229533702 38.91383063048124,254.07063380628824 46.63519192673266,261.0276425094344 55.64344677515328,262.5184287969023 66.36755969002843,257.05221018148586 71.51513388752937,247.11361516080797 72.37306292168796,211.3345050998032 71.51513388752937,199.40807664953172 63.364808071404696,190.96017215307802 50.924837093800306,190.46323613682762 41.058653209358454,197.42033573333174 37.19797256216407,214.31610764795914 37.62693707831204,249.10133578907698 41.91658224351704,258.04606856778264 51.78276612609625,262.5184287969023 63.364808071404696,259.5368557665497 70.22824033908546,250.59212572639808 73.2309919539839,214.31610764795914 71.0861693713814,197.42033573333174 61.21998549066484,190.46323613682762 49.63794354349375,189.4693639553152 40.20072417892516,196.92340037692338 37.19797256216407,220.77624023798853 38.91383063048124,256.5552809126675 50.06690805964172,263.0153574552387 67.22548872232437,257.5491394009441 72.37306292168796,247.11361516080797 73.2309919539839,223.75783700263128 71.94409840367734,199.40807664953172 63.79377258941531,191.45710811764002 51.78276612609625,189.96630007214844 41.91658224351704,195.43259400688112 36.7690080460161,205.8682290208526 36.7690080460161,240.15658657439053 37.19797256216407,251.58598543144763 48.78001450933516,261.52457132190466 62.93584355711937,260.53071364574134 70.65720485337079,252.08291520737112 73.2309919539839,228.7271608891897 72.80202743969858,206.36516346270218 68.9413467887789,195.9295295146294 59.504127422347665,189.96630007214844 47.92208547703922,191.45710811764002 39.342795146629214,198.911141497083 37.62693707831204,221.7701060292311 37.19797256216407,249.10133578907698 41.48761772736907,256.5552809126675 48.35104999318719,261.0276425094344 65.93859517201781,257.5491394009441 71.51513388752937,250.0951957977377 72.80202743969858,222.76397161837667 72.37306292168796,200.8988818032667 59.93309194035828,190.46323613682762 48.35104999318719,191.45710811764002 38.91383063048124,198.911141497083 36.340043529868126,221.2731731585227 35.91107901185751,246.61668487777933 41.91658224351704,258.04606856778264 58.2172338757664,262.02150008641183 68.08341775462031,256.5552809126675 72.37306292168796,239.6596555816941 72.80202743969858,205.8682290208526 68.08341775462031,195.9295295146294 58.64619839005172,189.96630007214844 41.91658224351704,195.43259400688112 37.19797256216407,211.83143898518756 36.7690080460161,241.64737925259396 39.342795146629214,254.07063380628824 50.06690805964172,261.52457132190466 65.50963065586984,260.03378473222256 71.51513388752937,252.08291520737112 72.80202743969858,230.71488902252167 73.2309919539839,202.38968650158495 66.79652420431376,193.4448514673859 56.07241129130125,189.96630007214844 44.490369345992804,193.4448514673859 38.055901596322656,202.38968650158495 37.19797256216407,229.7210250562057 38.48486611247063,251.58598543144763 46.63519192673266,259.5368557665497 57.78826935775578,261.0276425094344 67.65445323847234,256.05835159355775 71.94409840367734,246.11975454352796 72.80202743969858,211.3345050998032 71.51513388752937,199.90501175122336 63.79377258941531,191.45710811764002 52.64069515839219,189.96630007214844 42.34554676152766,195.9295295146294 37.62693707831204,217.2977083697915 36.340043529868126,244.62896323530003 40.62968869507313,255.5614222222939 51.78276612609625,262.02150008641183 62.93584355711937,260.03378473222256 70.65720485337079,251.58598543144763 72.37306292168796,229.7210250562057 72.80202743969858,207.35903219599277 69.37031130306423,197.42033573333174 60.79102097265422,190.96017215307802 49.63794354349375,190.46323613682762 40.20072417892516,196.92340037692338 36.340043529868126,218.2915748716332 37.19797256216407,248.1074755769223 42.34554676152766,257.05221018148586 51.78276612609625,261.0276425094344 62.93584355711937,259.03992675291374 70.65720485337079,251.08905560383573 73.2309919539839,224.25476961955428 73.65995647199452,206.86209785426036 70.65720485337079,196.42646497115493 55.64344677515328,189.96630007214844 44.91933386027813,193.4448514673859 37.62693707831204,202.38968650158495 36.7690080460161,225.2486347015947 37.19797256216407,249.59826581878588 41.058653209358454,256.5552809126675 52.64069515839219,261.52457132190466 67.65445323847234,255.5614222222939 72.80202743969858,244.62896323530003 73.2309919539839,215.30997475842014 73.2309919539839,201.89275165228173 66.79652420431376,192.9479157058522 58.2172338757664,189.4693639553152 43.203475795686245,194.43872283771634 38.055901596322656,202.8866212987341 35.91107901185751,234.19341130321845 38.91383063048124,254.07063380628824 47.92208547703922,260.53071364574134 59.07516290806234,261.0276425094344 68.08341775462031,256.05835159355775 72.80202743969858,246.61668487777933 74.08892098814249,212.32837281981483 71.0861693713814,196.42646497115493 62.93584355711937,189.96630007214844" stroke="#4DD2FF" stroke-linecap="round" stroke-linejoin="round" stroke-width="0.5"><title>2024-10-12 10.1km</title><desc>9223370308118225507</desc></polyline></svg>