<?xml version="1.0" encoding="utf-8" ?>
<svg baseProfile="full" height="300mm" version="1.1" viewBox="0,0,200,300" width="200mm" xmlns="http://www.w3.org/2000/svg" xmlns:ev="http://www.w3.org/2001/xml-events" xmlns:xlink="http://www.w3.org/1999/xlink"><defs /><rect fill="#222222" height="300" width="200" x="0" y="0" /><text fill="#FFFFFF" style="font-size:12px; font-family:Arial; font-weight:bold;" x="10" y="20">Over 10km Runs</text><text fill="#FFFFFF" style="font-size:4px; font-family:Arial" x="10" y="280">Runner</text><text fill="#FFFFFF" style="font-size:9px; font-family:Arial" x="10" y="290">Remember</text><text fill="#FFFFFF" style="font-size:4px; font-family:Arial" x="65" y="280">SPECIAL TRACKS</text><rect fill="yellow" height="2.6" width="2.6" x="65" y="283" /><text fill="#FFFFFF" style="font-size:3px; font-family:Arial" x="70" y="285.5">Over 20.0 km</text><rect fill="red" height="2.6" width="2.6" x="65" y="287" /><text fill="#FFFFFF" style="font-size:3px; font-family:Arial" x="70" y="289.5">Over 40.0 km</text><text fill="#FFFFFF" style="font-size:4px; font-family:Arial" x="120" y="280">STATISTICS</text><text fill="#FFFFFF" style="font-size:3px; font-family:Arial" x="120" y="285">Number: 4</text><text fill="#FFFFFF" style="font-size:3px; font-family:Arial" x="120" y="290">Weekly: 1.0</text><text fill="#FFFFFF" style="font-size:3px; font-family:Arial" x="141" y="285">Total: 67.4 km</text><text fill="#FFFFFF" style="font-size:3px; font-family:Arial" x="141" y="290">Avg: 16.9 km</text><text fill="#FFFFFF" style="font-size:3px; font-family:Arial" x="167" y="285">Min: 10.1 km</text><text fill="#FFFFFF" style="font-size:3px; font-family:Arial" x="167" y="290">Max: 21.5 km</text><polyline fill="none" points="24.27173270250205,54.67344036497525 23.265819041931536,54.69169137168501 22.53134240093641,54.67344036497525 21.50946185691282,54.6551893564465 20.759018332348205,54.636938346142415 19.545535186247434,54.60043632036832 18.53962152567692,54.563934287492884 17.405972797132563,54.60043632036832 16.62359550560359,54.60043632036832 15.825251330563333,54.563934287492884 15.250443524564616,54.6551893564465 15.010940272070002,54.983707239618525 14.883205204096157,56.261271353127086 14.915138971060514,56.79054538271157 14.899172087491024,57.903841086575994 14.851271436957177,59.21788658821606 14.78740390308667,60.458921167679364 14.75547013594769,61.535694563775905 14.691602601960767,62.48471009488276 14.65966883499641,63.689222941044136 14.595801301009487,64.838978038184 14.563867533986922,66.06172578009136 14.531933766964357,66.6457219087315 14.5,67.64946103657712 14.563867533986922,68.81744167149009 14.707569485530257,69.93066649258253 14.915138971060514,71.06213417877734 15.186575990577694,72.02935118309688 15.633648728544358,73.14255707744451 16.176522767578717,74.18275993566203 16.783264340658206,75.22295706660952 17.549674748675898,76.26314847051981 18.427853341272566,77.17559235527006 18.906859846203588,77.595315062601 19.385866351251025,77.97853932884755 19.976641040761024,78.48950380799943 20.80691898294026,79.49318001199572 21.621230041375384,80.27786860331253 22.419574216473848,81.06255393581523 23.329686575976666,81.93847789974825 24.223832052084617,82.7961495132331 25.070076877542306,83.59907260190812 25.772619751573075,84.25600713671884 26.443228858639486,84.73045843590808 27.145771732670255,85.18666048474552 28.05588409223128,85.6976054719562 29.237433471309487,86.1720531515748 30.227380248426925,86.48226829797204 31.02572442346718,86.66474755798117 31.680366646964103,86.81073083910451 32.87788290955359,87.08444918725581 34.02749852160923,87.33991928781325 35.145180366700515,87.5771412148024 36.183027794293594,87.79611503692286 37.17297457129462,88.03333639125049 38.322590183408465,88.27055744774407 39.52010644588154,88.41653948831663 40.73358959198231,88.50777820647636 41.97900650498923,88.63551233780163 42.889118864550255,88.78149409645994 43.03282081609359,89.21943869587267 42.8571850975859,89.96759170528094 42.53784742759308,91.08069192066614 42.186575990577694,92.17553819574823 41.851271437015384,93.34336723136948 41.54790065053385,94.41995323076844 41.22856298054103,94.62067197608121 40.09491425199667,94.38345889053016 38.96126552345231,94.0915039149404 38.27468953281641,93.9090318261442 37.28474275581539,93.72655956122617 36.0872264932259,93.36161450277723 35.304849201696925,93.16089442023076 35.0653459491441,93.34336723136948 34.88971023063641,94.16449270113662 34.586339444096666,95.35055652578012 34.17120047315257,96.6278477050655 33.819929036078975,97.75915554085805 33.58042578358436,98.50727474491578 33.08545239502564,99.63857133120473 32.670313424023334,100.51440919921151 32.25517445302103,101.39024300877645 31.840035481960513,102.0836085631745 31.32909520989051,102.95943510164216 30.770254287461285,103.817011321662 30.099645180336665,104.83879918513412 29.44500295689795,105.84233546040196 28.91809580125846,106.69989860134956 28.455056179780513,107.81290028082731 28.135718509787694,108.8894038675935 28.023950325266924,110.11186660903331 27.864281490270514,111.31607590886415 27.688645771704614,112.48378669230442 27.433175635756925,113.61499963566894 27.24157303373795,113.68798088346375 27.385274985223077,113.1953569141624 27.6247782377759,112.10063238657312 27.752513305749744,110.98765595148143 27.91218214080436,109.81993592658546 28.07185097580077,108.61571709622513 28.407155529304873,107.55745785184263 28.710526315844618,106.75463654210034 29.269367238332052,105.71461295762856 29.955943228851538,104.71107600427058 30.434949733898975,104.05421256796399 30.882022471923847,103.21488374429464 31.55263157893205,102.15659426306956 32.127439384988975,101.18953145257547 32.622412773547694,100.22246369413915 33.06948551151436,99.14591074694181 33.46865759906359,98.10584529627522 33.72412773506949,97.44895890487533 33.96363098762231,96.64609465935791 34.187167356547434,95.86147403335781 34.50650502665667,94.69366055789578 34.80987581319641,93.54408712005534 35.097279716224875,92.37625932483934 35.43258426967077,91.26316674036207 35.576286221214104,90.66099916682288 35.86369012418436,89.51140119829506 36.13512714370154,88.43478723549924 36.24689532822231,88.14282306970563 36.51833234768128,87.06620130970259 36.7578356002341,85.97132543250336 36.86960378475487,85.40563707698311 36.933471318741795,85.13191629706125 37.093140153738204,84.5114810612431 37.268775872304104,83.78155464620795 37.46037847432308,82.8143978031585 37.715848610328976,81.64650369630544 38.00325251335744,80.71583291169372 38.33855706680333,79.80340612368309 38.562093435786664,79.49318001199572 39.328503843804356,79.69391461300256 40.17474866943667,80.2596200684493 40.989059727988206,80.8435723103903 41.43613246601308,81.04430547675292 41.787403902970254,80.58809342660243 42.138675340102054,79.89464900075109 42.569781194557436,78.98221824708162 42.92105263157282,78.17927553903428 43.41602602018975,77.13909468450584 43.767297457146924,76.46388650326116 44.29420461261179,75.31420215575781 44.58160851569846,74.4199983819708 44.75724423426436,73.67178380872065 45.076581904198974,72.70457521318167 45.36398580722744,71.55486798839411 45.53962152573513,70.7883926180657 45.79509166168282,69.638673731577 45.95476049679564,68.45244849880692 46.03459491423564,67.26621581717336 46.11442933179205,66.09822559104941 46.1623299823259,64.98497818467149 46.08249556476949,64.60172755943495 45.33205204026308,64.38272685305856 44.16646954463795,64.10897561298043 43.55972797161667,63.99947500586859 43.19248965103179,63.8899743353104 43.01685393258231,63.56147194271034 43.12862211710308,62.77671391439799 43.495860437629744,61.71819792086899 43.990833826130256,60.6596759952663 44.56564163212897,59.6011481374735 45.17238320520846,58.85287486593006 45.858959195786156,57.867339692194946 46.48166765226051,56.90005016919167 47.07244234177051,55.93275569223624 47.327912477834616,55.366977381068864 47.75901833240641,54.217164623274584 48.030455351865385,53.28635869213031 48.301892371382564,52.53806040143536 48.573329390841536,51.77150785845879 48.860733293928206,51.13271169591462 49.22797161445487,50.110633341333596 49.49940863397205,49.36232246704458 49.722945002955385,48.79652447148692 50.02631578949513,48.084711682095076 50.505322294542566,47.208630719571374 51.20786516851513,46.24128660184215 51.814606741594616,45.419952800599276 52.51714961568359,44.470851514386595 53.10792430519359,43.72251829064044 53.69869899470359,42.97418210115575 54.43317563581513,42.07982520390942 55.10378474276513,41.18546407042595 55.88616203435231,40.21808909576794 56.63660555885872,39.36022412273451 57.46688350092154,38.55711295592482 58.40892962744692,37.827008930864395 59.255174453079235,37.33418711781269 60.30898876406718,36.85961674882856 61.490538143145386,36.53106733300956 62.672087522165384,36.43980350495258 63.821703134221025,36.62233111694513 64.8595505618141,37.151660194052965 65.40242460084846,37.60797717278183 65.91336487291846,38.30157686829625 66.15286812535487,38.81264869775623 66.26463630987564,39.122941633540904 66.50413956242846,39.85304064746015 66.87137788289692,40.92993153992575 67.30248373746872,42.04332075075945 67.71762270852923,42.93767782092618 68.27646363107488,43.85028270952171 68.97900650504744,44.79938711486466 69.74541691306513,45.71198300588003 70.55972797161667,46.56981912201445 71.45387344766641,47.318141062161885 72.04464813729282,47.88394348722068 72.20431697223103,48.139466607332 72.76315789477667,48.577505437424406 73.73713778832462,49.25281330985308 74.7749852159177,49.94637023269024 75.82879952684743,50.420907712265034 76.94648137199692,50.78593573132821 78.11206386750564,51.18746573738463 79.07007687760051,51.51598965271842 80.21969248965615,51.808010431108414 81.38527498522308,52.06352824172063 82.56682436435949,52.26429199321137 83.7483737434377,52.446804309453 84.86605558847077,52.55631161452038 85.99970431701513,52.59281403539353 87.18125369609334,52.629316449238104 88.33086930814898,52.684070056828205 89.20904790068744,52.83007959932729 90.07125960971462,53.08559602712921 91.14104080427205,53.505372265164624 92.22678888234077,53.943398649193114 93.32850384392077,54.25366672316159 94.46215257246513,54.34492194208724 94.97309284453513,54.34492194208724 95.4201655825018,54.19891357069719 95.08486102911411,54.07115615316434 94.12684801901923,54.217164623274584 92.99319929041667,53.998151875741314 92.11502069787821,53.65138117269089 91.82761679484975,52.97608902899083 91.46037847432308,52.53806040143536 90.90153755171923,52.373799404129386 90.32672974577872,52.392050633134204 89.62418687174795,52.465055531356484 88.49053814308718,52.53806040143536 87.35688941460103,52.50155796989566 86.20727380248718,52.48330675151374 85.07362507394282,52.41030186037824 84.40301596687641,52.35554817340744 83.63660555885872,52.282543232809985 82.55085748084821,52.118282013296266 81.86428149027051,52.02702571853297 80.71466587821487,51.78975914565672 79.62891780014616,51.534240964625496 78.55913660558872,51.242219762920286 78.22383205208462,51.15096304479812 77.74482554703718,50.98670084103651 77.36162034305744,50.85894125045161 76.30780603195308,50.457410545961466 75.30189237138256,50.03762753291812 74.2640449438477,49.52658608369529 73.35393258428667,48.86953075972269 72.63542282674462,48.28547966358019 71.9648137196782,47.61016833188478 71.15050266118487,46.84359578564181 70.84713187464513,46.53331553690077 70.06475458317436,45.857997939165216 69.2664104081341,44.9819066459313 68.62773506803205,44.10581128792546 68.00502661149949,43.120199151482666 67.5739207569859,42.28059956994548 67.09491425193846,41.24022099630383 66.71170904790051,40.14507946257072 66.45623891189462,39.287214157826384 66.12093435839051,38.42934495535155 65.7057953873882,37.77225101516524 65.25872264936334,37.27942905925738 64.76374926080462,36.89612220416893 63.837670017790515,36.4580562740739 62.68805440567667,36.275528503218084 61.76197516272077,36.293781288244645 60.97959787113359,36.47630904143443 60.596392667037435,36.58582560866489 59.510644589026924,37.02389124232286 58.82406859844923,37.370692481476 58.1853932585218,37.790503655473 57.275280898902565,38.520607821745216 56.54080425790744,39.214204164702096 55.806327616854105,40.07206980117189 55.10378474276513,41.021193197739194 54.40124186867615,41.82429388376477 53.68273211119231,42.62739115401928 53.459195742208976,42.864669239279465 52.996156120614614,42.75515631388407 52.07007687765872,42.26234736369224 51.032229450007435,41.80604163337557 50.07421643997077,41.33148250407248 49.0363690124359,40.911679203170934 48.589296274411026,40.710903381419485 48.365759905427694,40.601389206858585 47.59934949741,40.327603492638445 46.70520402130205,40.07206980117189 46.337965700775385,40.07206980117189 45.8270254288218,39.92605039359478 44.821111768251285,39.63401123974472 44.08663512713974,39.48799149339902 43.32022471912205,39.396729094631155 42.1067415731377,39.287214157826384 40.925192193943076,39.26896166219376 39.951212300453335,39.287214157826384 38.97723240684718,39.26896166219376 38.035186280321795,39.287214157826384 36.91750443528872,39.14119414331799 35.86369012418436,38.97692149199429 34.82584269664949,38.77614361295127 33.78799526905641,38.55711295592482 32.63837965700077,38.26507168466924 31.856002365530003,38.06429304863559 31.488764045003336,38.0095352018252 30.706386753416155,37.808756294019986 29.70047309284564,37.55321919353446 28.566824364301283,37.33418711781269 27.91218214080436,37.24292367800081 26.986102897673845,37.1881655928737 26.15582495566923,37.22467098470952 25.022176227124874,37.27942905925738 23.90449438203359,37.29768174720812 23.23388527496718,37.29768174720812 22.307806032011285,37.31593443339807 21.26995860436,37.27942905925738 20.056475458317436,37.31593443339807 19.018628030782565,37.40719783800887 18.33205204026308,37.498461198454606 17.485807214688975,37.58972451480804 16.288290952157695,37.71749308357539 15.841218214132823,37.863514199169 15.825251330563333,38.64837576058926 15.85718509752769,39.396729094631155 15.777350680087693,40.327603492638445 15.681549379078206,41.47750082472339 15.64961561205564,42.57263463047275 15.585748078126926,43.72251829064044 15.53784742753487,44.94540275381587 15.442046126583591,45.730234878734336 15.410112359561026,46.715833392037894 15.442046126583591,47.391147921967786 15.346244825574104,48.10296332562575 15.346244825574104,49.30756789636507 15.330277942062821,50.36615344857273 15.282377291587181,51.46123570653435 15.234476641053334,52.373799404129386 15.218509757542051,53.48712114378577 15.202542874030769,54.34492194208724 15.87315198109718,54.58218530479644 16.990833826188464,54.58218530479644 17.932879952713847,54.5456832684431 18.66735659376718,54.5456832684431 19.36989946779795,54.563934287492884 20.3438793613459,54.52743224754522 20.72708456532564,54.52743224754522 21.796865759941284,54.58218530479644 22.946481371996924,54.5456832684431 24.143997634528205,54.563934287492884 24.814606741594616,54.563934287492884 25.14991129509872,54.5456832684431 25.341513897117693,54.52743224754522 26.02808988763718,54.52743224754522 26.6827321111341,54.52743224754522 27.065937315230258,54.49093020055443 27.161738616239745,54.50918122493022" stroke="yellow" stroke-linecap="round" stroke-linejoin="round" stroke-width="0.5"><title>2025-11-23 21.4km</title><desc>9223370272992986107</desc></polyline><polyline fill="none" points="111.07723669311963,41.59618895127642 111.00385050964542,41.75550841360382 111.11392978485674,42.0104190469865 111.12310305779101,42.063525350509735 111.11392978485674,42.063525350509735 111.10475651192246,42.32905646238942 111.21483578713378,43.34868964854104 111.28822197060799,43.99657638854114 111.68267270672368,44.11340799523168 112.52661381656071,43.89036572344048 113.52650056628045,43.49738532182528 114.5997734994744,43.10440343923983 115.79229898081394,42.668935298941506 116.7004530011327,42.41402627535717 117.049037372577,42.28657152991218 117.82876557193231,42.052904091957316 118.59932049835334,41.76612970242422 119.14054360135924,41.61743156034936 119.68176670442335,41.44749056681758 120.24133635335602,41.28817063385213 120.66330690827454,41.28817063385213 120.99354473385029,42.15911662867438 121.39716874295846,42.87073783395317 121.8833522083587,43.35931077510759 122.33284258213826,43.67794406864414 122.77315968292532,44.09216589466814 123.11257078143535,44.49576506559242 123.837259343185,45.07991899370245 124.32344280864345,45.63220697094221 124.67202718008775,46.03580018148932 125.28663646662608,46.91732728865463 125.589354473399,47.363398407142085 126.2498301245505,47.9581569305592 126.69014722539578,48.31925866491656 127.11211778031429,48.69097973251337 126.70849377126433,49.07332001982286 125.89207248023013,49.45565890547732 125.34167610423174,49.57248439652176 124.97474518686067,49.40255636629445 124.20419026055606,49.27511016193603 123.43363533413503,49.39193585520843 122.83737259346526,49.721171195895295 122.08516421291279,49.721171195895295 121.36964892415563,50.19909161521355 120.79173272935441,50.70887098197272 120.21381653455319,50.95313937886385 119.3148357871105,51.73904251375643 118.6084937712294,52.493079144260264 117.92049830127507,53.3214511306287 117.48935447336407,53.56571340910887 116.84722536808113,53.9055556276071 116.26013590034563,54.09671638895088 115.15934314840706,54.39407687692437 114.6364665911533,54.72329642836121 114.25118912797188,55.179954085899226 113.5815402038279,56.02954440825124 113.05866364669055,56.560534845877555 112.39818799548084,57.102142307776376 111.6734994337894,57.346395733286045 110.87542468856554,57.48445176428504 110.03148357878672,57.68622563480312 109.55447338620434,57.77118293719104 108.76557191397296,57.51631082242238 107.98584371467587,57.473832076080726 107.08686296717497,57.27205779473297 106.43556058889953,57.2932972111812 105.94937712344108,57.18710008585185 105.61913929786533,57.68622563480312 105.58244620618643,58.3127841135647 105.60079275199678,59.00305604702589 105.5916194790625,59.85261523370718 105.58244620618643,60.48978008358972 105.72004530014237,61.25437276678713 105.73839184601093,61.838432846918295 105.76591166481376,62.48620474798372 105.83929784828797,62.91097102440108 105.91268403170398,63.43130735628074 106.0227633069153,64.10030739853391 106.09614949038951,64.89673042727372 106.20622876554262,65.51262673448946 106.39886749722064,66.22408863292367 106.53646659117658,66.69131470340653 106.65571913932217,67.10544515325455 106.88505096267909,67.70009112987464 107.05934314837214,68.30535230461828 107.12355605891207,68.82566173639498 107.20611551532056,69.1548357513384 107.41710079280892,69.81318066612585 107.18776896945201,70.19544354944082 106.58233295584796,70.80069025090779 106.14201585506089,71.26789583030768 105.38063420163235,72.00055491331295 105.01370328426128,72.29786437843723 104.72933182335692,72.69073630109779 104.50917327299248,73.31720468583808 104.61007927521132,73.82687110599363 104.931143827911,74.46395063117961 105.18799547001254,74.88866815412621 105.93103057757253,75.63191966054728 106.65571913932217,76.20528149191523 107.05016987549607,76.54504997977347 107.71064552658936,77.05470063775283 108.19682899210602,77.47940761840437 108.56375990941888,77.77670147659956 109.37100792757701,78.41375689287088 110.05900339753134,79.0508084210087 110.34337485849392,79.51797707064543 110.66443941113539,80.08070016794227 110.9304643261712,80.49477749078505 111.28822197060799,81.13181631860061 111.70101925259223,81.8007029037617 112.23306908272207,82.56513946725318 112.46240090602078,82.9792069352261 112.79263873159653,83.5419113745229 113.13204983016476,84.0939958011295 113.31551528879208,84.74162958031957 112.82933182339184,85.41049303650652 112.63669309177203,85.85639962666028 112.58165345416637,86.34477132586471 112.49909399775788,87.17287463827233 112.26058890146669,87.72493986420159 112.15968289918965,88.48933305021637 111.92117780295666,89.05200779178267 111.66432616085513,89.69961081648944 111.5175537939067,90.13488272346876 111.33408833527938,90.6444670406272 111.15062287659384,91.14343260805617 110.90294450736837,91.63177957801963 110.58187995478511,92.43860869845957 110.35254813136999,92.98003000760218 110.15990939980838,93.70192071964993 109.9214043035754,94.32826302935428 109.90305775764864,94.68920434902975 109.93057757645147,95.43231490248581 110.04983012459707,96.49389223458275 110.14156285393983,97.42807136044576 110.14156285393983,98.6063990220282 110.08652321627596,99.20086558963521 109.94892412237823,99.69979027580848 109.84801812004298,100.06071303116914 109.7654586636927,100.6870172054405 109.63703284261283,101.35577853350696 109.55447338620434,101.96084461680584 109.51778029446723,102.43852589085145 109.46274065686157,102.79943918243953 109.40770101931412,103.25588655939646 109.42604756518267,103.61679702673428 109.38935447338736,104.20062014251016 109.59116647794144,104.68890606075001 109.85719139297726,105.41071584591555 110.13238958100555,106.00514368859876 110.44428086077096,106.56772406697564 110.79286523221526,107.24706237242935 110.94881087203976,107.5442714918754 111.29739524348406,107.53365689503698 111.60928652324947,107.82025063137553 112.11381653457647,108.07499995915714 112.91189127974212,107.68226115276047 113.544847112149,107.24706237242935 113.90260475652758,107.10907213667087 114.30622876557754,106.92862309182965 114.80158550397027,106.79063243543351 115.47123442811426,106.67387096841412 116.48946772370255,106.5252652761701 117.1315968289855,106.49342117179913 117.70033975091064,106.54649467375566 118.223216308048,106.4615770576711 118.67270668176934,106.22805325753143 119.20475651195738,105.96268466916081 119.74597961496329,105.70793019005941 120.5624009060557,105.41071584591555 121.54394110984867,105.0710412742119 122.52548131375806,104.66767628570233 123.32355605892371,104.42353356227977 124.341789354512,104.24307987818611 124.97474518686067,104.10508567412762 125.85537938849302,103.89278654271038 126.90113250288414,103.65925699971558 127.31392978486838,103.82909671912057 127.56160815403564,104.25369480941299 128.06613816536264,105.06042642604007 128.6257078142953,105.90961087055621 128.9834654586739,106.50403587434266 129.26783691963647,106.94985240740061 129.54303510760656,107.38505242590327 129.98335220839363,108.11745812008303 130.16681766707916,108.3509776965875 130.5429218573263,108.76494293574069 131.1300113250618,108.6163402181337 131.44190260476898,108.43589377682656 132.2216308041243,108.1068435814741 132.95549263875,107.74594862708182 133.67100792756537,107.36382319877885 134.37734994344646,107.00292567745782 135.3680634201155,106.50403587434266 136.29456398641923,106.00514368859876 137.21189127973048,105.51686392306146 138.08335220837034,105.04981157678412 138.85390713479137,104.59337203895848 139.43182332953438,104.20062014251016 140.01891279732808,103.86094163575763 140.61517553793965,103.52126202436193 141.08301245752955,103.21342642239324 141.64258210652042,102.87374470529176 142.000339750899,102.62959778883669 142.37644394114614,102.42791077518632 142.84428086067783,102.13068709785875 143.68822197057307,101.63177402380825 144.26613816531608,101.35577853350696 145.1192525481456,100.87809230757557 145.9356738391798,100.37917325014132 146.58697621745523,99.9864055070284 147.04563986411085,99.74225184119132 147.74280860699946,99.33886627321044 148.42163080407772,98.97794102331682 148.72434881090885,98.78686244486016 149.2472253681044,98.35162660005881 149.97191392979585,97.86331105409045 150.54065685160458,97.47053384940227 151.357078142697,96.92913582155597 152.18267270666547,96.34527205771155 152.92570781428367,95.80386819624255 153.41189127974212,95.50662566698156 153.8889014722663,95.13507131564984 154.52185730467318,94.69982025132049 155.18233295588288,94.3176470893086 155.50339750852436,94.16902381525142 156.09048697620165,93.79746470464306 156.75096262741135,93.40467220732535 157.17293318238808,93.14988709471072 157.8242355606053,92.76770826015854 158.54892412229674,92.3005988961595 159.1084937712876,91.98211404085305 159.90656851639505,91.50438493648107 160.69546998868464,91.06911873849458 161.3375990940258,90.68693228811026 161.89716874295846,90.38967519292055 162.53012457536533,89.97563711431576 163.37406568520237,89.52974811665626 163.9795016987482,89.16878896197886 164.62163080408936,88.79721205808164 165.40135900338646,88.25576905933849 165.96092865231913,87.83110591913282 166.33703284256626,87.52322406241728 166.9883352208417,87.04547455618012 167.39195922989165,86.6845068127077 167.58459796151146,86.54648940449988 167.8781426953501,86.30230431225937 168.48357870895416,85.7077643082157 169.15322763309814,85.03890275656158 169.6761041902937,84.53990801431064 170.30906002270058,83.99844293625938 170.9236693091807,83.43574095774238 171.72174405434635,82.76686484912352 172.53816534543876,82.04489852560073 173.2261608154513,81.45033427463204 173.7673839184572,80.90885317110951 174.48289920727257,80.21872612474544 174.84983012458542,79.86835218573106 175.43691959232092,79.32686287577235 175.74881087202812,79.07204340497992 176.17995469993912,78.64734290462366 176.63861834653653,78.18017035837693 177.24405436014058,77.59620173510484 177.81279728194932,77.15025985903776 178.3265005662688,76.41763692645327 178.74847112124553,75.82304062096955 179.25300113251433,75.18596939184499 180.05107587773819,73.93305129693908 180.61064552661264,73.28535045191529 180.83997734991135,73.22164195495861 181.1702151755453,72.55270038868912 181.9958097395138,71.35284207456425 182.44530011323513,70.88563687544229 182.94983012462035,70.1635883626368 183.33510758774355,69.55833796601655 183.60113250283757,69.10174323852698 183.96806342015043,68.35844522263505 184.57349943375448,67.34967516087636 184.85787089471705,66.87183330670814 185.27066817664308,66.13913821354072 185.5,65.5657210735153 185.16976217442425,65.18344122946291 184.67440543603152,64.75868420448387 184.27995469991583,64.52506710369198 183.72038505098317,64.35516342912888 183.25254813139327,64.02597427231376 182.99569648923352,63.83483170464024 182.37191392981913,63.36759284284199 182.01415628544055,63.31449738523952 181.6380520951352,63.792355530960776 181.34450736123836,64.17464047176327 181.20690826728242,64.39763937371026" stroke="yellow" stroke-linecap="round" stroke-linejoin="round" stroke-width="0.5"><title>2024-11-03 21.5km</title><desc>9223370306257627507</desc></polyline><polyline fill="none" points="45.93733645230532,200.25006996560842 36.874672904610634,244.50008578039706 47.87933578342199,258.7500341190025 61.47333110496402,243.75008773291484 69.88866154104471,211.5000992640853 70.5359946526587,191.25003412365913 58.236665550619364,186.00000812113285 47.232002675533295,192.75004086224362 39.4640053473413,236.25010305223987 39.4640053473413,255.75004729395732 51.763334445655346,259.50003063539043 63.415330436080694,243.75008773291484 68.59399532154202,212.2501006028615 70.5359946526587,191.25003412365913 56.29466622322798,185.250004098285 46.584669563919306,193.50004411581904 40.75867156684399,228.75011071003973 36.874672904610634,247.50007720291615 43.99533712118864,258.7500341190025 62.767997324466705,254.2500534215942 67.94666220992804,221.25011071190238 72.47799398377538,195.00005039665848 63.415330436080694,186.00000812113285 49.17400200292468,189.7500270754099 37.52200601622462,240.00009634997696 39.4640053473413,257.25004086084664 56.941999331116676,259.50003063539043 67.29932910203934,220.50011029141024 69.88866154104471,198.00006203958765 56.29466622322798,189.00002343812957 47.87933578342199,201.00007245503366 39.4640053473413,236.25010305223987 38.16933912783861,252.00006203865632 51.11600133776665,259.50003063539043 62.12066421657801,247.50007720291615 67.94666220992804,221.25011071190238 67.94666220992804,190.50003063771874 50.46866822615266,188.2500197221525 40.75867156684399,222.75011132471263 40.75867156684399,255.75004729395732 56.941999331116676,257.25004086084664 68.59399532154202,223.50011151423678 70.5359946526587,191.25003412365913 53.70533378049731,187.50001593260095 43.34800401329994,219.75010979222134 38.16933912783861,244.50008578039706 45.93733645230532,259.50003063539043 62.12066421657801,251.2500647585839 69.24132843315601,209.25009478162974 69.24132843315601,192.75004086224362 54.35266688838601,186.7500120648183 40.75867156684399,196.50005637295544 39.4640053473413,239.25009784381837 42.053337793797255,257.25004086084664 60.17866488546133,254.2500534215942 67.29932910203934,218.2501085670665 70.5359946526587,192.75004086224362 54.35266688838601,186.00000812113285 43.34800401329994,210.00009635090828 38.16933912783861,243.75008773291484 46.584669563919306,259.50003063539043 61.47333110496402,252.00006203865632 71.83066087216139,199.50006740074605 60.82599799335003,187.50001593260095 45.93733645230532,195.00005039665848 38.81667223572731,238.50009926036 38.16933912783861,254.2500534215942 55.0,258.7500341190025 66.00466287881136,223.50011151423678 71.18332776427269,205.50008578319103 67.94666220992804,189.00002343812957 50.46866822615266,189.00002343812957 45.29000334441662,206.25008773664013 37.52200601622462,249.0000724522397 48.52666889503598,260.2500270726159 58.236665550619364,247.50007720291615 64.06266354769468,230.25010979315266 73.12532709538937,195.7500534229912 58.88399866223335,186.7500120648183 45.93733645230532,198.75006475811824 38.81667223572731,235.5001041609794 45.29000334441662,258.7500341190025 60.17866488546133,250.50006739795208 72.47799398377538,199.50006740074605 62.767997324466705,186.7500120648183 45.93733645230532,196.50005637295544 41.406004678457975,220.50011029141024 38.81667223572731,246.00008164485916 45.93733645230532,261.75001972261816 62.767997324466705,254.2500534215942 70.5359946526587,207.0000896123238 70.5359946526587,189.7500270754099 52.410667557269335,187.50001593260095 43.99533712118864,221.25011071190238 38.81667223572731,246.00008164485916 46.584669563919306,260.2500270726159 61.47333110496402,252.75005924189463 65.35732976719737,225.00011166837066 71.83066087216139,200.25006996560842 59.53133177384734,187.50001593260095 46.584669563919306,198.00006203958765 43.34800401329994,214.5001041633077 38.16933912783861,244.50008578039706 45.29000334441662,259.50003063539043 60.17866488546133,251.2500647585839 70.5359946526587,206.25008773664013 67.29932910203934,191.25003412365913 50.46866822615266,192.00003753090277 43.34800401329994,217.50010784063488 40.11133845895529,233.2501070345752 37.52200601622462,251.2500647585839 51.763334445655346,259.50003063539043 62.767997324466705,245.25008375011384 71.83066087216139,201.75007486902177 61.47333110496402,187.50001593260095 47.232002675533295,192.75004086224362 41.406004678457975,227.25011132471263 38.16933912783861,253.5000563687645 54.35266688838601,260.2500270726159 63.415330436080694,244.50008578039706 67.29932910203934,227.25011132471263 70.5359946526587,211.5000992640853 64.70999665558338,186.7500120648183 49.17400200292468,192.00003753090277 44.64267023280263,209.25009478162974 42.053337793797255,226.5001115174964 37.52200601622462,252.00006203865632 52.410667557269335,259.50003063539043 64.70999665558338,240.00009634997696 70.5359946526587,200.25006996560842 62.767997324466705,187.50001593260095 48.52666889503598,193.50004411581904 42.053337793797255,217.50010784063488 37.52200601622462,250.50006739795208 50.46866822615266,265.5 64.06266354769468,250.50006739795208 67.29932910203934,225.00011166837066 71.83066087216139,198.75006475811824 58.236665550619364,188.2500197221525 43.34800401329994,206.25008773664013 38.16933912783861,246.00008164485916 45.93733645230532,260.2500270726159 60.17866488546133,252.75005924189463 64.70999665558338,226.5001115174964 68.59399532154202,192.75004086224362 53.058000668883324,188.2500197221525 42.70067089796066,219.75010979222134 38.16933912783861,252.75005924189463 53.058000668883324,259.50003063539043 66.00466287881136,231.7501085679978 71.18332776427269,207.0000896123238 67.29932910203934,191.25003412365913 50.46866822615266,191.25003412365913 43.99533712118864,206.25008773664013 38.81667223572731,238.50009926036 39.4640053473413,255.75004729395732 55.6473331078887,258.0000375267118 62.767997324466705,243.75008773291484 71.83066087216139,201.75007486902177 65.35732976719737,186.7500120648183 49.82133511826396,191.25003412365913 42.053337793797255,223.50011151423678 38.16933912783861,253.5000563687645 52.410667557269335,260.2500270726159 62.12066421657801,246.00008164485916 72.47799398377538,194.25004729581997 60.17866488546133,184.5 47.87933578342199,196.50005637295544 41.406004678457975,225.00011166837066 38.81667223572731,240.75009478023276 40.75867156684399,257.25004086084664 57.589332442730665,258.7500341190025 62.767997324466705,242.25009141117334 69.24132843315601,213.0001018657349 69.88866154104471,193.50004411581904 58.236665550619364,188.2500197221525 47.87933578342199,197.2500592446886 40.11133845895529,232.50010783970356 41.406004678457975,258.0000375267118 58.236665550619364,256.5000441148877 67.94666220992804,222.75011132471263 66.65199598670006,189.7500270754099 49.82133511826396,192.75004086224362 41.406004678457975,227.25011132471263 40.75867156684399,258.7500341190025 57.589332442730665,257.25004086084664 64.70999665558338,240.00009634997696 71.18332776427269,205.50008578319103 67.94666220992804,189.7500270754099 50.46866822615266,191.25003412365913 42.70067089796066,225.00011166837066 42.053337793797255,258.7500341190025 56.941999331116676,255.0000503952615 62.12066421657801,238.50009926036 70.5359946526587,195.00005039665848 56.941999331116676,188.2500197221525 45.93733645230532,195.7500534229912 38.16933912783861,246.75007946323603 45.93733645230532,258.7500341190025 59.53133177384734,252.00006203865632 69.88866154104471,202.50007720431313 60.82599799335003,189.00002343812957 46.584669563919306,196.50005637295544 37.52200601622462,246.75007946323603 45.93733645230532,260.2500270726159 57.589332442730665,256.5000441148877 66.65199598670006,222.00011105742306 71.18332776427269,196.50005637295544 59.53133177384734,186.7500120648183 46.584669563919306,198.00006203958765 38.16933912783861,249.75006996421143 50.46866822615266,258.7500341190025 64.70999665558338,237.0001018657349 71.18332776427269,204.75008375244215 64.06266354769468,190.50003063771874 47.87933578342199,194.25004729581997 42.70067089796066,217.50010784063488 36.874672904610634,252.00006203865632 50.46866822615266,259.50003063539043 62.767997324466705,237.75010060099885 71.18332776427269,204.75008375244215 66.00466287881136,189.00002343812957 48.52666889503598,192.75004086224362 40.11133845895529,234.7501051966101 43.34800401329994,258.7500341190025 58.236665550619364,255.75004729395732 67.94666220992804,211.5000992640853 71.18332776427269,195.7500534229912 58.236665550619364,186.7500120648183 46.584669563919306,198.75006475811824 44.64267023280263,214.5001041633077 38.81667223572731,248.2500748662278 49.82133511826396,259.50003063539043 65.35732976719737,240.75009478023276 69.88866154104471,206.25008773664013 66.00466287881136,190.50003063771874 48.52666889503598,192.75004086224362 42.70067089796066,224.25011163111776 38.16933912783861,247.50007720291615 48.52666889503598,259.50003063539043 61.47333110496402,249.75006996421143 68.59399532154202,207.0000896123238 67.29932910203934,190.50003063771874 52.410667557269335,189.7500270754099 43.34800401329994,214.5001041633077 38.16933912783861,239.25009784381837 40.11133845895529,256.5000441148877 57.589332442730665,255.75004729395732 67.29932910203934,221.25011071190238 68.59399532154202,193.50004411581904 57.589332442730665,188.2500197221525 47.87933578342199,195.7500534229912 36.874672904610634,246.00008164485916 46.584669563919306,258.7500341190025 60.82599799335003,249.0000724522397 63.415330436080694,234.00010615494102 70.5359946526587,200.25006996560842 61.47333110496402,189.00002343812957 47.87933578342199,195.7500534229912 38.16933912783861,245.25008375011384 42.70067089796066,258.7500341190025 57.589332442730665,253.5000563687645 63.415330436080694,238.50009926036 65.35732976719737,222.75011132471263 71.18332776427269,200.25006996560842 62.767997324466705,187.50001593260095 46.584669563919306,195.7500534229912 40.11133845895529,229.50011029047891 43.34800401329994,259.50003063539043 58.236665550619364,254.2500534215942 62.12066421657801,239.25009784381837 70.5359946526587,199.50006740074605 62.767997324466705,189.7500270754099 49.17400200292468,193.50004411581904 39.4640053473413,242.25009141117334 43.34800401329994,258.7500341190025 58.88399866223335,255.75004729395732 63.415330436080694,239.25009784381837 68.59399532154202,212.2501006028615 69.24132843315601,196.50005637295544 51.763334445655346,192.00003753090277 42.70067089796066,222.00011105742306 39.4640053473413,255.75004729395732 51.763334445655346,261.00002343580127 65.35732976719737,231.00010921852663 70.5359946526587,198.75006475811824 56.941999331116676,189.7500270754099 45.29000334441662,200.25006996560842 36.874672904610634,249.75006996421143 47.232002675533295,259.50003063539043 61.47333110496402,250.50006739795208 65.35732976719737,234.00010615494102 71.83066087216139,202.50007720431313 62.767997324466705,188.2500197221525 48.52666889503598,194.25004729581997 38.81667223572731,244.50008578039706 42.70067089796066,258.7500341190025 58.236665550619364,255.0000503952615 67.29932910203934,222.00011105742306 71.18332776427269,207.0000896123238 67.29932910203934,192.00003753090277 51.763334445655346,191.25003412365913 42.70067089796066,223.50011151423678 39.4640053473413,256.5000441148877 55.6473331078887,258.0000375267118 65.35732976719737,232.50010783970356 71.18332776427269,201.75007486902177 60.82599799335003,189.00002343812957 47.87933578342199,195.7500534229912 43.34800401329994,221.25011071190238 39.4640053473413,255.75004729395732 54.35266688838601,259.50003063539043 65.35732976719737,236.25010305223987 70.5359946526587,204.00008164718747 64.06266354769468,190.50003063771874 49.17400200292468,195.00005039665848 40.11133845895529,235.5001041609794 42.053337793797255,259.50003063539043 58.88399866223335,256.5000441148877 71.83066087216139,207.750091411639 69.24132843315601,192.75004086224362 53.058000668883324,190.50003063771874 42.70067089796066,220.50011029141024 37.52200601622462,254.2500534215942 52.410667557269335,261.00002343580127 64.70999665558338,234.7501051966101 70.5359946526587,204.00008164718747 62.767997324466705,191.25003412365913 47.87933578342199,195.7500534229912 39.4640053473413,242.25009141117334 40.75867156684399,258.0000375267118 56.29466622322798,258.7500341190025 63.415330436080694,243.00008960999548 69.88866154104471,202.50007720431313 62.12066421657801,190.50003063771874 47.87933578342199,196.50005637295544 40.75867156684399,231.00010921852663 38.16933912783861,254.2500534215942 51.763334445655346,260.2500270726159 65.35732976719737,231.7501085679978 69.88866154104471,201.00007245503366 58.88399866223335,189.7500270754099 45.93733645230532,200.25006996560842 38.16933912783861,247.50007720291615 45.93733645230532,260.2500270726159 59.53133177384734,252.75005924189463 67.29932910203934,215.2501051966101 66.00466287881136,192.00003753090277 51.11600133776665,191.25003412365913 42.70067089796066,222.75011132471263 38.81667223572731,252.75005924189463 52.410667557269335,260.2500270726159 62.767997324466705,246.75007946323603 70.5359946526587,200.25006996560842 60.17866488546133,190.50003063771874 47.87933578342199,197.2500592446886 42.70067089796066,228.00011105602607 41.406004678457975,258.7500341190025 57.589332442730665,257.25004086084664 69.24132843315601,215.2501051966101 74.41999331489205,197.2500592446886 62.767997324466705,186.00000812113285 47.87933578342199,196.50005637295544 38.81667223572731,245.25008375011384 43.34800401329994,260.2500270726159 58.236665550619364,255.0000503952615 65.35732976719737,225.00011166837066 68.59399532154202,192.00003753090277 52.410667557269335,191.25003412365913 42.053337793797255,220.50011029141024 37.52200601622462,251.2500647585839 49.17400200292468,261.75001972261816 62.767997324466705,243.00008960999548 68.59399532154202,211.5000992640853 71.83066087216139,193.50004411581904 56.29466622322798,188.2500197221525 46.584669563919306,201.75007486902177 38.81667223572731,248.2500748662278 45.93733645230532,261.00002343580127 60.17866488546133,253.5000563687645 70.5359946526587,203.2500794623047 62.12066421657801,191.25003412365913 48.52666889503598,195.7500534229912 43.99533712118864,220.50011029141024 38.81667223572731,252.75005924189463 52.410667557269335,261.00002343580127 62.12066421657801,246.75007946323603 67.29932910203934,218.2501085670665 71.18332776427269,204.00008164718747 64.06266354769468,191.25003412365913 49.17400200292468,194.25004729581997 42.053337793797255,226.5001115174964 41.406004678457975,258.0000375267118 57.589332442730665,258.7500341190025 66.00466287881136,224.25011163111776 67.29932910203934,191.25003412365913" stroke="#4DD2FF" stroke-linecap="round" stroke-linejoin="round" stroke-width="0.5"><title>2024-10-22 14.5km</title><desc>9223370307247793707</desc></polyline><polyline fill="none" points="157.22548872232437,188.47549156984314 143.49862419255078,184.5 134.91933386027813,186.98468261118978 128.05590159632266,195.9295295146294 128.48486611247063,217.79464164562523 128.05590159632266,243.13817147212103 131.91658224351704,257.5491394009441 146.93034032545984,263.0153574552387 155.9385951720178,259.5368557665497 161.94409840367734,251.58598543144763 162.37306292168796,230.2179570645094 162.80202743969858,206.86209785426036 160.65720485337079,197.9172710380517 152.93584355711937,191.95404403097928 143.49862419255078,190.96017215307802 132.34554676152766,196.42646497115493 128.05590159632266,214.31610764795914 127.62693707831204,244.13203269895166 131.91658224351704,257.5491394009441 143.49862419255078,263.0153574552387 152.07791452482343,262.02150008641183 161.51513388752937,252.08291520737112 162.37306292168796,238.16886229533702 163.2309919539839,214.31610764795914 158.9413467887789,194.9356584479101 147.78826935775578,190.46323613682762 138.78001450933516,191.95404403097928 131.48761772736907,196.92340037692338 127.19797256216407,208.3529007267207 128.05590159632266,244.13203269895166 130.62968869507313,256.05835159355775 138.3510499931872,263.0153574552387 156.36755969002843,260.03378473222256 163.2309919539839,237.6719310991466 162.80202743969858,214.81304122926667 162.80202743969858,200.8988818032667 152.5068790409714,190.46323613682762 138.78001450933516,191.45710811764002 131.48761772736907,197.42033573333174 128.48486611247063,213.32224033446983 127.62693707831204,225.2486347015947 127.19797256216407,249.10133578907698 133.63244030997157,260.03378473222256 145.2144822590053,263.512286065612 155.9385951720178,259.5368557665497 161.94409840367734,249.59826581878588 162.80202743969858,240.15658657439053 162.80202743969858,217.79464164562523 160.65720485337079,200.4019468021579 146.50137580744922,189.96630007214844 136.63519192673266,191.45710811764002 128.05590159632266,202.8866212987341 127.62693707831204,212.8253066027537 127.19797256216407,246.61668487777933 132.34554676152766,258.04606856778264 142.6406951583922,263.0153574552387 155.08066613972187,261.0276425094344 161.94409840367734,244.62896323530003 162.80202743969858,233.1995480475016 162.37306292168796,203.38355604512617 155.08066613972187,193.94178717862815 143.49862419255078,189.96630007214844 132.77451127767563,195.43259400688112 128.05590159632266,219.28544117044657 128.05590159632266,249.59826581878588 134.0614048279822,259.5368557665497 146.07241129130125,263.512286065612 161.0861693713814,253.07677460834384 163.2309919539839,222.76397161837667 160.65720485337079,198.911141497083 150.79102097265422,191.45710811764002 137.92208547703922,190.96017215307802 129.34279514662921,201.3958167526871 128.05590159632266,222.76397161837667 126.7690080460161,248.1074755769223 131.91658224351704,260.03378473222256 143.06965967454016,265.5 154.65170162171125,263.0153574552387 161.94409840367734,252.5798449339345 162.80202743969858,214.81304122926667 158.9413467887789,196.42646497115493 147.78826935775578,190.46323613682762 135.77726289443672,193.4448514673859 128.48486611247063,203.38355604512617 128.05590159632266,228.23022872721776 127.19797256216407,249.10133578907698 132.77451127767563,260.03378473222256 144.35655322670937,265.0030715921894 156.36755969002843,261.0276425094344 161.94409840367734,250.0951957977377 162.37306292168796,211.3345050998032 161.0861693713814,199.90501175122336 152.5068790409714,191.95404403097928 140.9248370938003,191.45710811764002 131.05865320935845,197.9172710380517 128.05590159632266,208.84983491664752 127.62693707831204,243.63510211044922 129.77175966277719,258.04606856778264 140.06690805964172,264.00921462569386 152.07791452482343,263.512286065612 160.22824033908546,255.06449280120432 161.94409840367734,236.67806855402887 162.80202743969858,205.37129452778026 157.65445323847234,194.9356584479101 146.93034032545984,190.96017215307802 135.34829837828875,194.43872283771634 128.91383063048124,203.88049074215814 127.19797256216407,229.2240929985419 127.62693707831204,253.57370423339307 133.63244030997157,261.52457132190466 144.35655322670937,264.5061431340873 155.08066613972187,261.0276425094344 161.94409840367734,250.59212572639808 162.37306292168796,213.81917401729152 158.9413467887789,196.42646497115493 148.2172338757664,190.46323613682762 136.20622740872204,192.45097989449278 128.91383063048124,201.3958167526871 126.7690080460161,238.66579344216734 128.05590159632266,253.57370423339307 137.92208547703922,262.5184287969023 150.79102097265422,262.5184287969023 159.79927582107484,254.56756332842633 163.2309919539839,235.68420580681413 163.65995647199452,206.36516346270218 157.65445323847234,195.43259400688112 146.93034032545984,189.96630007214844 135.34829837828875,193.4448514673859 128.91383063048124,203.88049074215814 128.05590159632266,227.23636425565928 127.62693707831204,249.59826581878588 134.0614048279822,259.5368557665497 145.64344677515328,262.5184287969023 157.22548872232437,257.5491394009441 161.94409840367734,246.61668487777933 162.37306292168796,216.30384166538715 160.65720485337079,198.911141497083 152.5068790409714,190.96017215307802 134.0614048279822,192.9479157058522 128.05590159632266,202.38968650158495 126.7690080460161,238.16886229533702 128.91383063048124,254.07063380628824 136.63519192673266,261.0276425094344 145.64344677515328,262.5184287969023 156.36755969002843,257.05221018148586 161.51513388752937,247.11361516080797 162.37306292168796,211.3345050998032 161.51513388752937,199.40807664953172 153.3648080714047,190.96017215307802 140.9248370938003,190.46323613682762 131.05865320935845,197.42033573333174 127.19797256216407,214.31610764795914 127.62693707831204,249.10133578907698 131.91658224351704,258.04606856778264 141.78276612609625,262.5184287969023 153.3648080714047,259.5368557665497 160.22824033908546,250.59212572639808 163.2309919539839,214.31610764795914 161.0861693713814,197.42033573333174 151.21998549066484,190.46323613682762 139.63794354349375,189.4693639553152 130.20072417892516,196.92340037692338 127.19797256216407,220.77624023798853 128.91383063048124,256.5552809126675 140.06690805964172,263.0153574552387 157.22548872232437,257.5491394009441 162.37306292168796,247.11361516080797 163.2309919539839,223.75783700263128 161.94409840367734,199.40807664953172 153.7937725894153,191.45710811764002 141.78276612609625,189.96630007214844 131.91658224351704,195.43259400688112 126.7690080460161,205.8682290208526 126.7690080460161,240.15658657439053 127.19797256216407,251.58598543144763 138.78001450933516,261.52457132190466 152.93584355711937,260.53071364574134 160.65720485337079,252.08291520737112 163.2309919539839,228.7271608891897 162.80202743969858,206.36516346270218 158.9413467887789,195.9295295146294 149.50412742234766,189.96630007214844 137.92208547703922,191.45710811764002 129.34279514662921,198.911141497083 127.62693707831204,221.7701060292311 127.19797256216407,249.10133578907698 131.48761772736907,256.5552809126675 138.3510499931872,261.0276425094344 155.9385951720178,257.5491394009441 161.51513388752937,250.0951957977377 162.80202743969858,222.76397161837667 162.37306292168796,200.8988818032667 149.93309194035828,190.46323613682762 138.3510499931872,191.45710811764002 128.91383063048124,198.911141497083 126.34004352986813,221.2731731585227 125.91107901185751,246.61668487777933 131.91658224351704,258.04606856778264 148.2172338757664,262.02150008641183 158.0834177546203,256.5552809126675 162.37306292168796,239.6596555816941 162.80202743969858,205.8682290208526 158.0834177546203,195.9295295146294 148.64619839005172,189.96630007214844 131.91658224351704,195.43259400688112 127.19797256216407,211.83143898518756 126.7690080460161,241.64737925259396 129.34279514662921,254.07063380628824 140.06690805964172,261.52457132190466 155.50963065586984,260.03378473222256 161.51513388752937,252.08291520737112 162.80202743969858,230.71488902252167 163.2309919539839,202.38968650158495 156.79652420431376,193.4448514673859 146.07241129130125,189.96630007214844 134.4903693459928,193.4448514673859 128.05590159632266,202.38968650158495 127.19797256216407,229.7210250562057 128.48486611247063,251.58598543144763 136.63519192673266,259.5368557665497 147.78826935775578,261.0276425094344 157.65445323847234,256.05835159355775 161.94409840367734,246.11975454352796 162.80202743969858,211.3345050998032 161.51513388752937,199.90501175122336 153.7937725894153,191.45710811764002 142.6406951583922,189.96630007214844 132.34554676152766,195.9295295146294 127.62693707831204,217.2977083697915 126.34004352986813,244.62896323530003 130.62968869507313,255.5614222222939 141.78276612609625,262.02150008641183 152.93584355711937,260.03378473222256 160.65720485337079,251.58598543144763 162.37306292168796,229.7210250562057 162.80202743969858,207.35903219599277 159.37031130306423,197.42033573333174 150.79102097265422,190.96017215307802 139.63794354349375,190.46323613682762 130.20072417892516,196.92340037692338 126.34004352986813,218.2915748716332 127.19797256216407,248.1074755769223 132.34554676152766,257.05221018148586 141.78276612609625,261.0276425094344 152.93584355711937,259.03992675291374 160.65720485337079,251.08905560383573 163.2309919539839,224.25476961955428 163.65995647199452,206.86209785426036 160.65720485337079,196.42646497115493 145.64344677515328,189.96630007214844 134.91933386027813,193.4448514673859 127.62693707831204,202.38968650158495 126.7690080460161,225.2486347015947 127.19797256216407,249.59826581878588 131.05865320935845,256.5552809126675 142.6406951583922,261.52457132190466 157.65445323847234,255.5614222222939 162.80202743969858,244.62896323530003 163.2309919539839,215.30997475842014 163.2309919539839,201.89275165228173 156.79652420431376,192.9479157058522 148.2172338757664,189.4693639553152 133.20347579568624,194.43872283771634 128.05590159632266,202.8866212987341 125.91107901185751,234.19341130321845 128.91383063048124,254.07063380628824 137.92208547703922,260.53071364574134 149.07516290806234,261.0276425094344 158.0834177546203,256.05835159355775 162.80202743969858,246.61668487777933 164.0889209881425,212.32837281981483 161.0861693713814,196.42646497115493 152.93584355711937,189.96630007214844" stroke="#4DD2FF" stroke-linecap="round" stroke-linejoin="round" stroke-width="0.5"><title>2024-10-12 10.1km</title><desc>9223370308118225507</desc></polyline></svg>