<?xml version="1.0" encoding="utf-8" ?>
<svg baseProfile="full" height="200mm" version="1.1" viewBox="0,0,200,200" width="200mm" xmlns="http://www.w3.org/2000/svg" xmlns:ev="http://www.w3.org/2001/xml-events" xmlns:xlink="http://www.w3.org/1999/xlink"><defs /><rect fill="#1a1a1a" height="200" width="200" x="0" y="0" /><rect fill="#1a1a1a" height="200" width="180" x="10" y="0" /><text alignment-baseline="middle" fill="#e1ed5e" style="dominant-baseline: central; font-size:9.0px; font-family:Arial;" text-anchor="middle" x="100.0" y="100.0">2025</text><line stroke="#e1ed5e" stroke-width="0.3" x1="100.0" x2="100.0" y1="15.0" y2="10.0" /><path d="M 100.0 14.0 a86.0,86.0 0 0,1 42.46469731375804,11.215312516191453" fill="none" id="id49" stroke="none" /><text fill="#e1ed5e" style="font-size:6.75px; font-family:Arial;" text-anchor="middle"><textPath startOffset="22.20632615414155" xlink:href="#id49">January</textPath></text><path d="M 104.307194497241 79.44645832069477 l 1.2805509694748527 -6.110673140122978 a27.24340748396606,27.24340748396606 0 0,0 0.45815274151489727,0.10013444398267242 l -1.385546435143278 6.087725198044436" fill="#ff3004" stroke="none" /><path d="M 105.71112130821622 79.79150937346287 l 0.8245099045072868 -2.917483236217002 a24.03175279603035,24.03175279603035 0 0,0 0.3971073002607101,0.11592651034526162 l -0.8746074224914241 2.902858396953037" fill="#ff0000" stroke="none" /><path d="M 106.40334571778207 80.00007090966166 l 2.736694161963364 -8.547670482512746 a29.975085827653352,29.975085827653352 0 0,0 0.49004580330434566,0.1615603966591349 l -2.883422787510127 8.499296361594375" fill="#ff5708" stroke="none" /><path d="M 108.09893153111575 80.62456947434976 l 2.3209026841659566 -5.5523976886439455 a27.01794893316879,27.01794893316879 0 0,0 0.42754777436589586,0.1830536441756413 l -2.4161342163221677 5.511624516505513" fill="#ff2d04" stroke="none" /><path d="M 108.43124777332544 80.76684994638697 l 2.1186257201233922 -4.83295562864303 a26.276934247306926,26.276934247306926 0 0,0 0.41269537079211815,0.18516438309311045 l -2.201503209382291 4.795770915033389" fill="#ff2203" stroke="none" /><path d="M 109.08828744355905 81.06846463323043 l 3.298440373727409 -6.870880897880935 a28.6215951881414,28.6215951881414 0 0,0 0.4423109534546595,0.21704006392482098 l -3.4162225941925 6.8130856738212815" fill="#ff4406" stroke="none" /><line stroke="#e1ed5e" stroke-width="0.3" x1="143.23703022742887" x2="145.7803849466894" y1="26.81831364943548" y2="22.513508569990506" /><path d="M 143.74570117128098 25.957352633546492 a86.0,86.0 0 0,1 28.547481713284135,27.462654790039103" fill="none" id="id50" stroke="none" /><text fill="#e1ed5e" style="font-size:6.75px; font-family:Arial;" text-anchor="middle"><textPath startOffset="19.985693538727396" xlink:href="#id50">February</textPath></text><path d="M 113.06298171725822 83.55741782278167 l 7.439729268962566 -9.364505174156273 a32.960080633183786,32.960080633183786 0 0,0 0.4411888880489665,0.35674406483834853 l -7.599821555576023 9.235055012053794" fill="#ff810b" stroke="none" /><path d="M 113.34407831869373 83.78471172551755 l 9.404354334044813 -11.427864324528556 a35.79993119781643,35.79993119781643 0 0,0 0.47246100518366574,0.3956725045901948 l -9.599672876187595 11.264290662544543" fill="#ffa80f" stroke="none" /><path d="M 113.6212207817346 84.01681056812373 l 4.147748744438627 -4.866983287363412 a27.39463415423173,27.39463415423173 0 0,0 0.3562687843487544,0.30895277905634144 l -4.230911327434145 4.794865514887399" fill="#ff3204" stroke="none" /><path d="M 114.16331599549186 84.49514656593476 l 9.972710946266682 -10.917317781470087 a35.78657469326112,35.78657469326112 0 0,0 0.45123823070297114,0.419376757719471 l -10.1591570607645 10.744036437675977" fill="#ffa80f" stroke="none" /><path d="M 114.68862486808459 84.99185889309783 l 4.593100730858149 -4.69301275687924 a27.566653870887436,27.566653870887436 0 0,0 0.33626618242382195,0.33482214857145315 l -4.673202713449293 4.613254757657669" fill="#ff3505" stroke="none" /><path d="M 114.94478906791727 85.2469230424477 l 8.43467698186465 -8.326476744504896 a32.85217240699688,32.85217240699688 0 0,0 0.3938126576108459,0.4058585607778844 l -8.576753903178604 8.180053988176898" fill="#ff800b" stroke="none" /><path d="M 116.15771136456269 86.58626213691792 l 9.156719227561233 -7.601684956059616 a32.90088741159972,32.90088741159972 0 0,0 0.3579953516940397,0.4388599713300303 l -9.28621307133168 7.442940815121484" fill="#ff810b" stroke="none" /><path d="M 116.60985879189232 87.15038557335679 l 9.650845283466792 -7.466026191882414 a33.201654059318656,33.201654059318656 0 0,0 0.34580955081565323,0.45504483353348524 l -9.777930774506558 7.298796582467895" fill="#ff850c" stroke="none" /><path d="M 117.45458315368197 88.32363383020206 l 7.645066384138244 -5.114220930265003 a30.19795062725612,30.19795062725612 0 0,0 0.2853035718925179,0.43453691354527946 l -7.731966591388687 4.98186595274205" fill="#ff5b08" stroke="none" /><path d="M 117.65298651832404 88.62581576622439 l 5.075368749575257 -3.2701650314009862 a27.037660745418123,27.037660745418123 0 0,0 0.24871094847994213,0.3934009924317989 l -5.130907294301155 3.1823163912549814" fill="#ff2d04" stroke="none" /><line stroke="#e1ed5e" stroke-width="0.3" x1="172.23445277983987" x2="176.4835382374775" y1="55.19839476539836" y2="52.563006222186495" /><path d="M 173.08426987136738 54.67131705675599 a86.0,86.0 0 0,1 12.851231095245387,41.99856678651699" fill="none" id="id51" stroke="none" /><text fill="#e1ed5e" style="font-size:6.75px; font-family:Arial;" text-anchor="middle"><textPath startOffset="22.20632615414155" xlink:href="#id51">March</textPath></text><path d="M 118.03404312379186 89.2402003453031 l 10.271662275008962 -6.128466447659592 a32.960984361327945,32.960984361327945 0 0,0 0.2865099435759645,0.48973836713407676 l -10.375631893055253 5.95074866817162" fill="#ff810b" stroke="none" /><path d="M 118.3937258080291 89.86733742301442 l 10.459490614969676 -5.76188262425726 a32.94153404300957,32.94153404300957 0 0,0 0.2693235521192363,0.49901563891821615 l -10.557122266307376 5.580986002006585" fill="#ff810b" stroke="none" /><path d="M 118.89224826269711 90.83032412892265 l 9.304899936595055 -4.516292356789292 a31.343019843451913,31.343019843451913 0 0,0 0.23140373366583147,0.4873952784099174 l -9.381261864102642 4.355454662738834" fill="#ff6b09" stroke="none" /><path d="M 119.47837535516314 92.15188598940014 l 8.564102060494271 -3.4505983247394525 a30.23311826531302,30.23311826531302 0 0,0 0.19033396389827417,0.4843791774032382 l -8.622229574274245 3.3026701424404297" fill="#ff5b08" stroke="none" /><path d="M 119.7369772167798 92.82701384747503 l 11.336784255226668 -4.120114016637221 a33.06225587357712,33.06225587357712 0 0,0 0.189788242239881,0.5365569179716994 l -11.406025578276358 3.924359472238908" fill="#ff830c" stroke="none" /><path d="M 120.18372546131832 94.20196356495316 l 8.586237103897089 -2.4665077645727544 a29.93348353986488,29.93348353986488 0 0,0 0.1379979623663301,0.4964520936299903 l -8.627421836829782 2.3183443675238125" fill="#ff5708" stroke="none" /><path d="M 120.28053869075195 94.5502522615342 l 11.46126361537289 -3.079848934008904 a32.86785714092423,32.86785714092423 0 0,0 0.14212009485518026,0.5476466999123395 l -11.512580042098373 2.8821058085477143" fill="#ff800b" stroke="none" /><path d="M 120.45610955862082 95.25157060432595 l 11.58271141892039 -2.688668010190264 a32.89067447552952,32.89067447552952 0 0,0 0.12327050935776128,0.5525975225329813 l -11.62727631528019 2.488892318107319" fill="#ff800b" stroke="none" /><path d="M 120.53481517161879 95.60439243477599 l 8.787183397473413 -1.8809523969969166 a29.986243596776177,29.986243596776177 0 0,0 0.1036962915648715,0.5056599446586885 l -8.818258984953282 1.7294167961748164" fill="#ff5808" stroke="none" /><path d="M 120.67395015179393 96.31383870115 l 11.703433961884512 -2.0867200035403917 a32.88800937387616,32.88800937387616 0 0,0 0.09457360306637318,0.5581787588024478 l -11.737619426471108 1.884955456422106" fill="#ff800b" stroke="none" /><path d="M 120.73433829027371 96.67025291283417 l 11.839190849144897 -1.9012669076993327 a32.990882195100944,32.990882195100944 0 0,0 0.08521718711059807,0.561474789499873 l -11.870163929694794 1.6971930058073776" fill="#ff820c" stroke="none" /><path d="M 120.83666639777658 97.38593545837742 l 10.484253298548992 -1.3153022786817248 a31.566436831422443,31.566436831422443 0 0,0 0.06299705831140114,0.5397203239569154 l -10.505340709863983 1.1346382163999567" fill="#ff6e0a" stroke="none" /><path d="M 120.96714384426684 98.82574320788733 l 8.93260620598218 -0.5002671602079201 a29.94660387313163,29.94660387313163 0 0,0 0.024394206568099118,0.5149231453784995 l -8.939894020783775 0.34643290820642086" fill="#ff5708" stroke="none" /><path d="M 120.98425023603335 99.18683210126433 l 6.127329454074969 -0.23744225125925497 a27.131928331402587,27.131928331402587 0 0,0 0.014067653603802457,0.4668369363838661 l -6.1305088021344165 0.13193516745038983" fill="#ff2e04" stroke="none" /><line stroke="#e1ed5e" stroke-width="0.3" x1="184.98032266829074" x2="189.97916517819016" y1="98.17113171792111" y2="98.06355123074" /><path d="M 185.9800911702706 98.14961562048488 a86.0,86.0 0 0,1 -9.607161424134198,41.387399972396054" fill="none" id="id52" stroke="none" /><text fill="#e1ed5e" style="font-size:6.75px; font-family:Arial;" text-anchor="middle"><textPath startOffset="21.466115282336823" xlink:href="#id52">April</textPath></text><path d="M 120.99980553446 99.90962569577887 l 14.816078771267039 -0.06376215284667618 a35.816215973335616,35.816215973335616 0 0,0 -0.0026533040128316043,0.6165344095700293 l -14.814981169964705 -0.1912817349270378" fill="#ffa80f" stroke="none" /><path d="M 120.95626037817324 101.35467743843564 l 9.336793140172432 0.6035591649503457 a30.356280767910214,30.356280767910214 0 0,0 -0.03819606685903666,0.5211549853751468 l -9.325020514649058 -0.7641872868222628" fill="#ff5d08" stroke="none" /><path d="M 120.92983693683757 101.71520430193887 l 11.89333566728188 0.9746612246663392 a32.93320567984594,32.93320567984594 0 0,0 -0.05116472053309949,0.5645984275953555 l -11.874796350471705 -1.1792410408102652" fill="#ff810b" stroke="none" /><path d="M 120.81339534386255 102.79330883721812 l 11.821820076480112 1.5865741243113385 a32.92780983133964,32.92780983133964 0 0,0 -0.08022774466501793,0.5611126593291849 l -11.792758280798491 -1.7898322556209327" fill="#ff810b" stroke="none" /><path d="M 120.5718875245553 104.21870165774334 l 11.641198152660598 2.3872744728031257 a32.88345799159512,32.88345799159512 0 0,0 -0.11848373614278282,0.5535165699922768 l -11.598380377793372 -2.5873048622115715" fill="#ff800b" stroke="none" /><path d="M 120.13307415673323 105.97154293290107 l 9.13253651002345 2.7087435049084645 a30.52578156805493,30.52578156805493 0 0,0 -0.15375287801076074,0.5024733014211505 l -9.084556859506556 -2.865543778881672" fill="#ff5f08" stroke="none" /><path d="M 119.79798401119884 107.00284435728193 l 14.029326256445126 4.962383450549357 a35.88110361230197,35.88110361230197 0 0,0 -0.21097360878461974,0.5805087618157553 l -13.94182838665528 -5.203140009371244" fill="#ffa90f" stroke="none" /><path d="M 119.12269723197855 108.67885076344098 l 8.1155461983994 3.6832468487726895 a29.912261073787555,29.912261073787555 0 0,0 -0.21682882872115752,0.4670300070672151 l -8.050942752838411 -3.822396923118735" fill="#ff5608" stroke="none" /><path d="M 118.81262510543309 109.33194174019688 l 8.030019298617779 3.983265059894075 a29.963682863284873,29.963682863284873 0 0,0 -0.23317642436287564,0.4600792067210648 l -7.9602642044686345 -4.120898478317834" fill="#ff5708" stroke="none" /><line stroke="#e1ed5e" stroke-width="0.3" x1="174.80103733775053" x2="179.2010983576182" y1="140.37084112569926" y2="142.7455964860345" /><path d="M 175.68104954172406 140.8457921977663 a86.0,86.0 0 0,1 -30.038265399797805,32.042727171017184" fill="none" id="id53" stroke="none" /><text fill="#e1ed5e" style="font-size:6.75px; font-family:Arial;" text-anchor="middle"><textPath startOffset="22.206326154141568" xlink:href="#id53">May</textPath></text><path d="M 118.48025628344425 109.97397251340804 l 8.26165164056995 4.45889305400042 a30.38811030490936,30.38811030490936 0 0,0 -0.2524001575888511,0.45817960060541757 l -8.183675073529589 -4.600443173003643" fill="#ff5d08" stroke="none" /><path d="M 117.94076556474637 110.91462005526583 l 5.123521604906228 3.116995841714954 a26.997177395509425,26.997177395509425 0 0,0 -0.24494842490482455,0.39493485422300023 l -5.069108540333441 -3.204727027303228" fill="#ff2c04" stroke="none" /><path d="M 117.35343817320211 111.8261652097733 l 7.446798947107805 5.074906410676562 a30.011630797795256,30.011630797795256 0 0,0 -0.29459858796392424,0.4243912381629738 l -7.358339451981744 -5.202338911026555" fill="#ff5808" stroke="none" /><path d="M 116.71984013943494 112.70617746262583 l 7.127938202585501 5.416848904617721 a29.952639559109706,29.952639559109706 0 0,0 -0.315491413180927,0.4078151802068279 l -7.0336399721865055 -5.538742078937802" fill="#ff5708" stroke="none" /><path d="M 116.27256486870786 113.27417163493432 l 9.203249540387274 7.507452880593851 a32.87693777271631,32.87693777271631 0 0,0 -0.36149602109386925,0.43544524485962427 l -9.072657519399861 -7.664759382567246" fill="#ff800b" stroke="none" /><path d="M 115.80600337817218 113.82643327865902 l 6.782529504781487 5.933074251262249 a30.01133045416838,30.01133045416838 0 0,0 -0.3434741754732708,0.38589687728895405 l -6.679396479659879 -6.04894529829207" fill="#ff5808" stroke="none" /><path d="M 114.81725581225074 114.88116024355365 l 8.791441697459213 8.829357765665604 a33.459815635632175,33.459815635632175 0 0,0 -0.41163547442679604,0.402871949509491 l -8.638156270656623 -8.979379818097668" fill="#ff880c" stroke="none" /><path d="M 114.29624159901734 115.38237550388516 l 4.086613467965487 4.397087337122249 a27.002898190610743,27.002898190610743 0 0,0 -0.3431945567987815,0.3135000905712843 l -4.010319361699842 -4.466780194280116" fill="#ff2c04" stroke="none" /><path d="M 113.75828350139079 115.86535959552629 l 6.036053480846789 6.9604728672571605 a30.213149524427884,30.213149524427884 0 0,0 -0.3958419283576132,0.33734507895359583 l -5.915346075912129 -7.063342336433703" fill="#ff5b08" stroke="none" /><path d="M 112.92097659922987 116.55440617244103 l 3.8683682662259935 4.956168677490171 a27.287120247210083,27.287120247210083 0 0,0 -0.37275670862228993,0.2858139490100947 l -3.78248282911021 -5.022021968327638" fill="#ff3004" stroke="none" /><path d="M 112.63410532772338 116.77436683061366 l 5.671228441441493 7.529719263001535 a30.426531929327524,30.426531929327524 0 0,0 -0.421067022700096,0.31149531710272277 l -5.540776448322833 -7.626224528844027" fill="#ff5e08" stroke="none" /><path d="M 112.34349029814194 116.9893568818739 l 3.793016847826452 5.220639813390887 a27.453065695392954,27.453065695392954 0 0,0 -0.3846993809963526,0.2744727939388271 l -3.702590138981215 -5.2851568691739335" fill="#ff3304" stroke="none" /><line stroke="#e1ed5e" stroke-width="0.3" x1="143.8653032363475" x2="146.44561519142675" y1="172.8068346515853" y2="177.08958963109032" /><path d="M 144.38136562736335 173.6633856474863 a86.0,86.0 0 0,1 -40.68145358897372,12.25698825130547" fill="none" id="id54" stroke="none" /><text fill="#e1ed5e" style="font-size:6.75px; font-family:Arial;" text-anchor="middle"><textPath startOffset="21.466115282336833" xlink:href="#id54">June</textPath></text><path d="M 110.21172684928248 118.3499491758327 l 3.5780143927609256 6.429508272851434 a28.358040746385505,28.358040746385505 0 0,0 -0.42858072538105324,0.23369638328282605 l -3.466810855511224 -6.49014530789403" fill="#ff4006" stroke="none" /><path d="M 109.89434966115114 118.52300852407294 l 4.244567120153729 7.946166816431273 a30.00876890102325,30.00876890102325 0 0,0 -0.45771817537989157,0.23945651626181802 l -4.107158042247342 -8.018052751637807" fill="#ff5808" stroke="none" /><path d="M 109.57404056367764 118.69057910512821 l 2.8771362788999535 5.616786649205224 a27.310800696429283,27.310800696429283 0 0,0 -0.4202561201479079,0.21072514301610346 l -2.780026251069285 -5.66547963313063" fill="#ff3104" stroke="none" /><path d="M 107.2578585660854 119.70592522655815 l 2.4464184873467367 6.642309070308357 a28.078505011704983,28.078505011704983 0 0,0 -0.4549793343925317,0.1631394019238061 l -2.3317195923244705 -6.683436013272123" fill="#ff3c05" stroke="none" /><path d="M 106.91757812671514 119.82793768551818 l 2.9689682647380256 8.50998957513195 a30.013029187008993,30.013029187008993 0 0,0 -0.48925563318817095,0.16598207447231805 l -2.8220428986126276 -8.55983463650239" fill="#ff5808" stroke="none" /><path d="M 105.53697534728816 120.25689768951611 l 2.373713675827473 8.684177201365445 a30.00274681858408,30.00274681858408 0 0,0 -0.4993450835715274,0.13188157504808024 l -2.223878149444448 -8.72375012571711" fill="#ff5808" stroke="none" /><path d="M 105.18746579009965 120.34920634021253 l 1.619022944259738 6.3510456348757724 a27.554160201758428,27.554160201758428 0 0,0 -0.46060940145174456,0.11320658430577867 l -1.5094602580647822 -6.377973477495582" fill="#ff3405" stroke="none" /><path d="M 101.26447882468166 120.96189622390904 l 0.35670809320969304 5.9133279942212456 a26.924077027774196,26.924077027774196 0 0,0 -0.4628530025705249,0.023924213337506064 l -0.2548670222256885 -5.918592014320954" fill="#ff2b04" stroke="none" /><line stroke="#e1ed5e" stroke-width="0.3" x1="102.19456741930631" x2="102.32365962044197" y1="184.97166512339345" y2="189.96999836594603" /><path d="M 102.22038585953345 185.97133177190398 a86.0,86.0 0 0,1 -42.740103519485714,-10.115201625700543" fill="none" id="id55" stroke="none" /><text fill="#e1ed5e" style="font-size:6.75px; font-family:Arial;" text-anchor="middle"><textPath startOffset="22.20632615414155" xlink:href="#id55">July</textPath></text><path d="M 96.22490169976321 120.6578951692458 l -0.9463991321163278 5.178835755958457 a26.2645998047776,26.2645998047776 0 0,0 -0.44403731052428497,-0.08510080737968309 l 1.0354040572123078 -5.161777750230305" fill="#ff2103" stroke="none" /><line stroke="#e1ed5e" stroke-width="0.3" x1="58.666819895761336" x2="56.23545636021788" y1="174.27360380694188" y2="178.64263932499728" /><path d="M 58.180547188652646 175.14741091055294 a86.0,86.0 0 0,1 -31.652253787137756,-30.449443065178592" fill="none" id="id56" stroke="none" /><text fill="#e1ed5e" style="font-size:6.75px; font-family:Arial;" text-anchor="middle"><textPath startOffset="22.20632615414155" xlink:href="#id56">August</textPath></text><path d="M 87.36589467227662 116.77436683061367 l -3.5889513449812216 4.765069218303534 a26.96543849284077,26.96543849284077 0 0,0 -0.36836236319866233,-0.28244455232375787 l 3.670442436673371 -4.70258532415241" fill="#ff2c04" stroke="none" /><path d="M 83.72743513129214 113.27417163493432 l -5.210972545111887 4.25079540360366 a27.72484174008637,27.72484174008637 0 0,0 -0.29848048135939376,-0.3724002939679074 l 5.283370938526142 -4.160467276057493" fill="#ff3705" stroke="none" /><path d="M 83.06392112726016 112.41649034213515 l -4.825018578619157 3.5374065645429704 a26.98281284070392,26.98281284070392 0 0,0 -0.2713959681192194,-0.37694526275543055 l 4.885194339113984 -3.4538276963364014" fill="#ff2c04" stroke="none" /><path d="M 82.6465618267979 111.8261652097733 l -4.985218295490107 3.3973679786575532 a27.03278630784292,27.03278630784292 0 0,0 -0.25873838571294067,-0.3867787805556723 l 5.042959786613778 -3.31105228389606" fill="#ff2d04" stroke="none" /><path d="M 82.05923443525364 110.91462005526583 l -5.151348500382345 3.1339248847005132 a27.02974929456744,27.02974929456744 0 0,0 -0.23840126163981507,-0.3995742273232801 l 5.204530637720391 -3.0447885634911223" fill="#ff2d04" stroke="none" /><line stroke="#e1ed5e" stroke-width="0.3" x1="26.63291911575756" x2="22.317208475507996" y1="142.92168965132927" y2="145.44649492493687" /><path d="M 25.769776987707644 143.4266507060508 a86.0,86.0 0 0,1 -11.730757126820373,-40.83630448921669" fill="none" id="id57" stroke="none" /><text fill="#e1ed5e" style="font-size:6.75px; font-family:Arial;" text-anchor="middle"><textPath startOffset="21.46611528233685" xlink:href="#id57">September</textPath></text><path d="M 81.35079622478065 109.6543875284942 l -5.515090493528124 2.855072072834839 a27.210286603119513,27.210286603119513 0 0,0 -0.2117495824847008,-0.41780201493041624 l 5.563418745799091 -2.7597158462017375" fill="#ff2f04" stroke="none" /><path d="M 81.02952815118164 109.00673069616217 l -5.228240683061081 2.482244839365089 a26.787576356521754,26.787576356521754 0 0,0 -0.1941785273716154,-0.41824327302569686 l 5.270193827272523 -2.391881499060565" fill="#ff2904" stroke="none" /><path d="M 80.87730276802145 108.67885076344099 l -5.496104328050875 2.494411152611257 a27.035664816993318,27.035664816993318 0 0,0 -0.18868179567367815,-0.4254276387048256 l 5.538227208455834 -2.3994351774137357" fill="#ff2d04" stroke="none" /><path d="M 80.32549172779594 107.34259656027581 l -8.433112283454715 3.1472675397125704 a30.001259675838888,30.001259675838888 0 0,0 -0.17640131948801754,-0.4853806698789432 l 8.486037863947956 -3.00163907282751" fill="#ff5808" stroke="none" /><path d="M 79.97269907076064 106.31721596034903 l -5.713504035781168 1.8022118413200585 a26.99100124252048,26.99100124252048 0 0,0 -0.13594882451011603,-0.44428862444540446 l 5.743679632797414 -1.7035962443226063" fill="#ff2c04" stroke="none" /><path d="M 79.86692584326677 105.97154293290107 l -5.99137050540779 1.7770622569328032 a27.24935763083579,27.24935763083579 0 0,0 -0.12950888246101136,-0.45083740981598514 l 6.021072024754906 -1.6736673716122221" fill="#ff3004" stroke="none" /><path d="M 79.35854240842038 103.8639653848113 l -6.481865732042664 1.2133690029634536 a27.594455830891697,27.594455830891697 0 0,0 -0.08337935210400936,-0.4676356863778521 l 6.501791526485862 -1.101614565852388" fill="#ff3505" stroke="none" /><path d="M 79.10278846688536 102.07522291339032 l -5.945645044422163 0.5904394857427868 a26.974890273518504,26.974890273518504 0 0,0 -0.04190793740738737,-0.46245059715842474 l 5.954927578106625 -0.48800750003579585" fill="#ff2c04" stroke="none" /><line stroke="#e1ed5e" stroke-width="0.3" x1="15.007084014347285" x2="10.007500721073583" y1="101.09737516637583" y2="101.16192664675087" /><path d="M 14.007167355692545 101.11028546245083 a86.0,86.0 0 0,1 10.666146001902534,-42.60595125391555" fill="none" id="id58" stroke="none" /><text fill="#e1ed5e" style="font-size:6.75px; font-family:Arial;" text-anchor="middle"><textPath startOffset="22.20632615414155" xlink:href="#id58">October</textPath></text><path d="M 79.00019446554 99.90962569577889 l -9.699950807487493 -0.04174449633675229 a30.700040632422716,30.700040632422716 0 0,0 0.006822708148445723,-0.528426264985289 l 9.697795092221332 0.2087070193825133" fill="#ff6209" stroke="none" /><path d="M 79.03285615573316 98.82574320788736 l -6.077790579717282 -0.3403843137758957 a27.087314663459154,27.087314663459154 0 0,0 0.03007905567758858,-0.46530967802711287 l 6.0710309330352805 0.4449530560560203" fill="#ff2e04" stroke="none" /><path d="M 79.05617556472873 98.46500227214037 l -6.507348828361439 -0.4769313119863096 a27.52480285145306,27.52480285145306 0 0,0 0.038699238664558586,-0.47222873328467596 l 6.498175105877384 0.5888739624787639" fill="#ff3404" stroke="none" /><path d="M 79.12142395522702 97.74499172005258 l -6.538372936652894 -0.7061825039178212 a27.576398283832468,27.576398283832468 0 0,0 0.05503414845275501,-0.471498975155123 l 6.52524843519655 0.818625217397806" fill="#ff3505" stroke="none" /><path d="M 79.32604984820605 96.31383870115002 l -6.064756280891002 -1.0813448675959927 a27.160403839788675,27.160403839788675 0 0,0 0.08602640951044564,-0.45955651948793497 l 6.045244147470695 1.1855794645465003" fill="#ff2f04" stroke="none" /><path d="M 79.46518482838121 95.60439243477599 l -6.053310750477549 -1.2957495992574537 a27.19043924659817,27.19043924659817 0 0,0 0.10190667564701734,-0.4568276450345426 l 6.030109687828495 1.3997554138419555" fill="#ff2f04" stroke="none" /><path d="M 80.02781315780177 93.51064311812611 l -6.341765961728149 -2.0605646698648936 a27.668127343717213,27.668127343717213 0 0,0 0.1510715408332304,-0.45168467834269643 l 6.3053571271231466 2.1694224511299125" fill="#ff3605" stroke="none" /><path d="M 81.26839172434947 90.50648371742162 l -6.252850622767759 -3.1690572601254403 a28.01006881767939,28.01006881767939 0 0,0 0.22166710543020726,-0.42819029246858464 l 6.197374084177437 3.2762202748543605" fill="#ff3b05" stroke="none" /><line stroke="#e1ed5e" stroke-width="0.3" x1="26.266209847984243" x2="21.928928074336255" y1="57.711370442889674" y2="55.22380399835377" /><path d="M 25.398753493254645 57.213857153982495 a86.0,86.0 0 0,1 29.58750427330803,-30.492523968695096" fill="none" id="id59" stroke="none" /><text fill="#e1ed5e" style="font-size:6.75px; font-family:Arial;" text-anchor="middle"><textPath startOffset="21.46611528233685" xlink:href="#id59">November</textPath></text><path d="M 81.96595687620814 89.24020034530311 l -12.71249908036577 -7.584763010508638 a35.80325176418616,35.80325176418616 0 0,0 0.3203269226891291,-0.5265332366076834 l 12.580056359390424 7.802464020323396" fill="#ffa80f" stroke="none" /><path d="M 83.17141714833178 87.43820079747576 l -7.020781136436318 -5.240705272579758 a29.761070683414516,29.761070683414516 0 0,0 0.3099743906263656,-0.40788996327464566 l 6.929530805585843 5.3607800117354305" fill="#ff5407" stroke="none" /><path d="M 84.80347519578584 85.50635884689758 l -12.93812292162271 -12.339696952866955 a38.87912597482363,38.87912597482363 0 0,0 0.4660602573262591,-0.4803160630279263 l 12.723798400593333 12.560577211445004" fill="#ffd113" stroke="none" /><path d="M 85.31137513191541 84.99185889309783 l -16.526812817334672 -16.88631448059185 a44.62801639233949,44.62801639233949 0 0,0 0.5536355273592236,-0.5325969386747139 l 16.233694046363023 17.168294506028875" fill="#e4ff1a" stroke="none" /><path d="M 86.93701828274178 83.55741782278169 l -39.18894515177469 -49.32774653165494 a84.0,84.0 0 0,0 1.1398697793622974,-0.889686443107113 l 38.334042817252964 49.99501136398527" fill="#4dd2ff" stroke="none" /><line stroke="#e1ed5e" stroke-width="0.3" x1="56.762969772571076" x2="54.21961505331055" y1="26.818313649435495" y2="22.513508569990535" /><path d="M 56.25429882871897 25.957352633546506 a86.0,86.0 0 0,1 42.265352541879196,-11.944610805530505" fill="none" id="id60" stroke="none" /><text fill="#e1ed5e" style="font-size:6.75px; font-family:Arial;" text-anchor="middle"><textPath startOffset="22.20632615414155" xlink:href="#id60">December</textPath></text></svg>