<?xml version="1.0" encoding="utf-8" ?>
<svg baseProfile="full" height="200mm" version="1.1" viewBox="0,0,200,200" width="200mm" xmlns="http://www.w3.org/2000/svg" xmlns:ev="http://www.w3.org/2001/xml-events" xmlns:xlink="http://www.w3.org/1999/xlink"><defs /><rect fill="#1a1a1a" height="200" width="200" x="0" y="0" /><rect fill="#1a1a1a" height="200" width="180" x="10" y="0" /><text alignment-baseline="middle" fill="#e1ed5e" style="dominant-baseline: central; font-size:9.0px; font-family:Arial;" text-anchor="middle" x="100.0" y="100.0">2025</text><line stroke="#e1ed5e" stroke-width="0.3" x1="100.0" x2="100.0" y1="15.0" y2="10.0" /><path d="M 100.0 14.0 a86.0,86.0 0 0,1 42.46469731375804,11.215312516191453" fill="none" id="id49" stroke="none" /><text fill="#e1ed5e" style="font-size:6.75px; font-family:Arial;" text-anchor="middle"><textPath startOffset="22.20632615414155" xlink:href="#id49">January</textPath></text><path d="M 104.307194497241 79.44645832069477 l 5.4212854892175635 -25.869882896957805 a47.43182130421418,47.43182130421418 0 0,0 0.7976615619158541,0.1743379221625741 l -5.865789775286946 25.77273147669936" fill="red" stroke="none" /><path d="M 105.71112130821622 79.79150937346287 l 3.4906096575403005 -12.351331505394905 a33.83509819742235,33.83509819742235 0 0,0 0.5591004789901901,0.16321676136184032 l -3.702700354253918 12.289416415114362" fill="red" stroke="none" /><path d="M 106.40334571778207 80.00007090966166 l 11.585950659006363 -36.18704999494334 a58.996537210770384,58.996537210770384 0 0,0 0.9645011739367566,0.31798087278516607 l -12.207134655185538 35.98225539789893" fill="red" stroke="none" /><path d="M 108.09893153111575 80.62456947434976 l 9.825673747851615 -23.506391965135823 a46.47732968381542,46.47732968381542 0 0,0 0.7354843594507703,0.31489601935439293 l -10.2288418650927 23.333776417818637" fill="red" stroke="none" /><path d="M 108.43124777332544 80.76684994638697 l 8.969322695759834 -20.46059301359916 a43.340201791586736,43.340201791586736 0 0,0 0.6806844542915902,0.30540327316504023 l -9.320189268518204 20.303169409917587" fill="red" stroke="none" /><path d="M 109.08828744355905 81.06846463323043 l 13.964135252243016 -29.088265752592168 a53.26645747268148,53.26645747268148 0 0,0 0.8231664740215257,0.4039242138296164 l -14.462772993274973 28.84358637862772" fill="red" stroke="none" /><line stroke="#e1ed5e" stroke-width="0.3" x1="143.23703022742887" x2="145.7803849466894" y1="26.81831364943548" y2="22.513508569990506" /><path d="M 143.74570117128098 25.957352633546492 a86.0,86.0 0 0,1 28.547481713284135,27.462654790039103" fill="none" id="id50" stroke="none" /><text fill="#e1ed5e" style="font-size:6.75px; font-family:Arial;" text-anchor="middle"><textPath startOffset="19.985693538727396" xlink:href="#id50">February</textPath></text><path d="M 113.06298171725822 83.55741782278167 l 31.496517741948427 -39.64516620152633 a71.63368279135459,71.63368279135459 0 0,0 0.958856418140908,0.7753285394757304 l -32.17427755865383 39.097131564786466" fill="red" stroke="none" /><path d="M 113.34407831869373 83.78471172551755 l 39.813869890337585 -48.380514725408105 a83.65635195844202,83.65635195844202 0 0,0 1.1040346395608374,0.9245972602956992 l -40.64076206685754 47.68801630771859" fill="red" stroke="none" /><path d="M 113.6212207817346 84.01681056812373 l 17.559730629361006 -20.604651045532485 a48.0720480289889,48.0720480289889 0 0,0 0.625179734688927,0.5421497052988318 l -17.911804162696697 20.299336346813984" fill="red" stroke="none" /><path d="M 114.16331599549186 84.49514656593476 l 42.220039990542865 -46.2190868467598 a83.59980643541451,83.59980643541451 0 0,0 1.0541223647797424,0.9796918556572983 l -43.00937023911746 45.48549040502786" fill="red" stroke="none" /><path d="M 114.68862486808459 84.99185889309783 l 19.44515363799025 -19.86813689268147 a48.800303300348645,48.800303300348645 0 0,0 0.5952805069774181,0.5927241833009349 l -19.784269945134987 19.530476858730413" fill="red" stroke="none" /><path d="M 114.94478906791727 85.2469230424477 l 35.70868557209601 -35.250613702478134 a71.17684716767442,71.17684716767442 0 0,0 0.8532264775736095,0.8793248858643896 l -36.31017631337273 34.630724621063635" fill="red" stroke="none" /><path d="M 116.15771136456269 86.58626213691792 l 38.76549255792198 -32.18216637076917 a71.38308491521902,71.38308491521902 0 0,0 0.7767210734935855,0.9521681955696202 l -39.313712123491975 31.510114005591443" fill="red" stroke="none" /><path d="M 116.60985879189232 87.15038557335679 l 40.85740336864407 -31.607847263408164 a72.65639765464707,72.65639765464707 0 0,0 0.7567477268436001,0.9957913035547139 l -41.39542703571178 30.899871183972415" fill="red" stroke="none" /><path d="M 117.45458315368197 88.32363383020206 l 32.365824118215684 -21.6513456932281 a59.940048037707136,59.940048037707136 0 0,0 0.5663003432137479,0.8625142743478841 l -32.73372109678736 21.091013354902543" fill="red" stroke="none" /><path d="M 117.65298651832404 88.62581576622439 l 21.48686277265825 -13.844429979504243 a46.56078076406202,46.56078076406202 0 0,0 0.4282979971837585,0.6774645755582043 l -21.721988366087963 13.472517756231833" fill="red" stroke="none" /><line stroke="#e1ed5e" stroke-width="0.3" x1="172.23445277983987" x2="176.4835382374775" y1="55.19839476539836" y2="52.563006222186495" /><path d="M 173.08426987136738 54.67131705675599 a86.0,86.0 0 0,1 12.851231095245387,41.99856678651699" fill="none" id="id51" stroke="none" /><text fill="#e1ed5e" style="font-size:6.75px; font-family:Arial;" text-anchor="middle"><textPath startOffset="22.20632615414155" xlink:href="#id51">March</textPath></text><path d="M 118.03404312379186 89.2402003453031 l 43.48566747365468 -25.94521187819546 a71.63750877594319,71.63750877594319 0 0,0 0.6227016272426407,1.0643989326558465 l -43.92582877536765 25.19283353318572" fill="red" stroke="none" /><path d="M 118.3937258080291 89.86733742301442 l 44.28084945247931 -24.393258375549664 a71.55516474515201,71.55516474515201 0 0,0 0.5850210593252878,1.0839551736291273 l -44.69417861102306 23.627422218588077" fill="red" stroke="none" /><path d="M 118.89224826269711 90.83032412892265 l 39.39282403227671 -19.119981010179387 a64.78776380528626,64.78776380528626 0 0,0 0.47832437701548935,1.0074731259193102 l -39.71610660313395 18.43906546861954" fill="red" stroke="none" /><path d="M 119.47837535516314 92.15188598940014 l 36.25661401652438 -14.608304607117624 a60.08893223711242,60.08893223711242 0 0,0 0.37829259154608025,0.9627133831393454 l -36.50270015795216 13.982042219082494" fill="red" stroke="none" /><path d="M 119.7369772167798 92.82701384747503 l 47.994922062692204 -17.44273743471318 a72.06624749303833,72.06624749303833 0 0,0 0.41368400537540745,1.1695403904835477 l -48.28805914887742 16.61399941780302" fill="red" stroke="none" /><path d="M 120.18372546131832 94.20196356495316 l 36.3503239839239 -10.442101151666279 a58.820411555109544,58.820411555109544 0 0,0 0.2711711428221794,0.975546879661425 l -36.52468189731245 9.814842968585902" fill="red" stroke="none" /><path d="M 120.28053869075195 94.5502522615342 l 48.52191252613664 -13.038715937852828 a71.24324938240035,71.24324938240035 0 0,0 0.3080546844476545,1.1870603625912637 l -48.7391635424546 12.201559149712713" fill="red" stroke="none" /><path d="M 120.45610955862082 95.25157060432595 l 49.036068721996166 -11.38262920916416 a71.33984786847938,71.33984786847938 0 0,0 0.26737364084143106,1.1985836051897145 l -49.224736749839636 10.536867434424481" fill="red" stroke="none" /><path d="M 120.53481517161879 95.60439243477599 l 37.20104156678131 -7.96311914076344 a59.043774262070585,59.043774262070585 0 0,0 0.2041809742260738,0.995658943723399 l -37.332601836922386 7.321584540876629" fill="red" stroke="none" /><path d="M 120.67395015179393 96.31383870115 l 49.54715448585391 -8.83424802676369 a71.32856500878454,71.32856500878454 0 0,0 0.20511425053877405,1.210595917531831 l -49.691880597912906 7.980066320916021" fill="red" stroke="none" /><path d="M 120.73433829027371 96.67025291283417 l 50.121889002878184 -8.04912177925016 a71.76408295866321,71.76408295866321 0 0,0 0.18537040777336428,1.2213593784664039 l -50.25301530409085 7.185163288391675" fill="red" stroke="none" /><path d="M 120.83666639777658 97.38593545837742 l 44.38568368427696 -5.568407136715741 a65.73361235313908,65.73361235313908 0 0,0 0.13118440426280886,1.1239078627581618 l -44.474958441543365 4.803555535632726" fill="red" stroke="none" /><path d="M 120.96714384426684 98.82574320788733 l 37.81669731213066 -2.117909525678225 a58.87595723353099,58.87595723353099 0 0,0 0.04795977095546135,1.0123549639984428 l -37.84755069131961 1.4666434550567824" fill="red" stroke="none" /><path d="M 120.98425023603335 99.18683210126433 l 25.940398351074258 -1.005225299081099 a46.95986796026376,46.95986796026376 0 0,0 0.024348256698757887,0.8080001031916006 l -25.95385830222866 0.5585550484644992" fill="red" stroke="none" /><line stroke="#e1ed5e" stroke-width="0.3" x1="184.98032266829074" x2="189.97916517819016" y1="98.17113171792111" y2="98.06355123074" /><path d="M 185.9800911702706 98.14961562048488 a86.0,86.0 0 0,1 -9.607161424134198,41.387399972396054" fill="none" id="id52" stroke="none" /><text fill="#e1ed5e" style="font-size:6.75px; font-family:Arial;" text-anchor="middle"><textPath startOffset="21.466115282336823" xlink:href="#id52">April</textPath></text><path d="M 120.99980553446 99.90962569577887 l 62.724713630660155 -0.26994070695266154 a83.72529448343462,83.72529448343462 0 0,0 -0.006202460360239888,1.4412333519222353 l -62.72006687301041 -0.8098021231732584" fill="red" stroke="none" /><path d="M 120.95626037817324 101.35467743843564 l 39.527845726750606 2.5552021128619637 a60.61034770909453,60.61034770909453 0 0,0 -0.0762635222393026,1.0405551693047628 l -39.47800564584697 -3.235230418663497" fill="red" stroke="none" /><path d="M 120.92983693683757 101.71520430193887 l 50.351114175385526 4.126283826370105 a71.5199061451867,71.5199061451867 0 0,0 -0.11111265772439984,1.2261189191203177 l -50.272626921384045 -4.992384134038994" fill="red" stroke="none" /><path d="M 120.81339534386255 102.79330883721812 l 50.0483488470945 6.716851951019535 a71.49706251310447,71.49706251310447 0 0,0 -0.17420071680992227,1.2183594076387698 l -49.92531407926798 -7.577356830638714" fill="red" stroke="none" /><path d="M 120.5718875245553 104.21870165774334 l 49.28367564159232 10.10666249660846 a71.30929647258081,71.30929647258081 0 0,0 -0.25693745073721463,1.2003262309625067 l -49.10240415213066 -10.953502546987135" fill="red" stroke="none" /><path d="M 120.13307415673323 105.97154293290107 l 38.66311364540496 11.46761995986366 a61.32793900388864,61.32793900388864 0 0,0 -0.30889781161849195,1.0094959210769983 l -38.45998906128033 -12.131442853492715" fill="red" stroke="none" /><path d="M 119.79798401119884 107.00284435728193 l 59.393952033596506 21.00853307184577 a84.0,84.0 0 0,0 -0.49390295597909306,1.3590088119754755 l -59.02352481661219 -22.027789680827375" fill="red" stroke="none" /><path d="M 119.12269723197855 108.67885076344098 l 34.35762721768134 15.59323538886269 a58.73056503581198,58.73056503581198 0 0,0 -0.4257277507518896,0.9169797006008712 l -34.084124850089616 -16.18233515674239" fill="red" stroke="none" /><path d="M 118.81262510543309 109.33194174019688 l 33.99554421452371 16.863379579312515 a58.94826211142759,58.94826211142759 0 0,0 -0.4587334956208178,0.9051247069178794 l -33.70023204911662 -17.446058497933087" fill="red" stroke="none" /><line stroke="#e1ed5e" stroke-width="0.3" x1="174.80103733775053" x2="179.2010983576182" y1="140.37084112569926" y2="142.7455964860345" /><path d="M 175.68104954172406 140.8457921977663 a86.0,86.0 0 0,1 -30.038265399797805,32.042727171017184" fill="none" id="id53" stroke="none" /><text fill="#e1ed5e" style="font-size:6.75px; font-family:Arial;" text-anchor="middle"><textPath startOffset="22.206326154141568" xlink:href="#id53">May</textPath></text><path d="M 118.48025628344425 109.97397251340804 l 34.97617293153118 18.876977791472576 a60.745099867482075,60.745099867482075 0 0,0 -0.5045418298625168,0.9158899752816386 l -34.646054692217156 -19.47623828515202" fill="red" stroke="none" /><path d="M 117.94076556474637 110.91462005526583 l 21.690720629231677 13.195979488087533 a46.38939219566714,46.38939219566714 0 0,0 -0.42089616940883945,0.678618641344957 l -21.460359820154874 -13.567394460797765" fill="red" stroke="none" /><path d="M 117.35343817320211 111.8261652097733 l 31.526447627174267 21.484905434588654 a59.151252424031625,59.151252424031625 0 0,0 -0.5806374054720653,0.8364514885665443 l -31.151949314540065 -22.024398185342218" fill="red" stroke="none" /><path d="M 116.71984013943494 112.70617746262583 l 30.176532498010154 22.93253846501016 a58.90150965400499,58.90150965400499 0 0,0 -0.6204101138585729,0.8019637042871771 l -29.777315566933513 -23.44858016341059" fill="red" stroke="none" /><path d="M 116.27256486870786 113.27417163493432 l 38.96248128835573 31.783229510371555 a71.28169275446506,71.28169275446506 0 0,0 -0.7837727614935908,0.9441047815966365 l -38.409612526968594 -32.44919554908196" fill="red" stroke="none" /><path d="M 115.80600337817218 113.82643327865902 l 28.7142250960468 25.118007882192344 a59.149980902175045,59.149980902175045 0 0,0 -0.6769606882527415,0.7605725096629384 l -28.27760555814572 -25.60855456159615" fill="red" stroke="none" /><path d="M 114.81725581225074 114.88116024355365 l 37.219069322389686 37.37958915742584 a73.74933939683791,73.74933939683791 0 0,0 -0.9072926354965137,0.8879768036199415 l -36.57012673451737 -38.01471606396835" fill="red" stroke="none" /><path d="M 114.29624159901734 115.38237550388516 l 17.300910953203125 18.61531976766136 a46.41361150767336,46.41361150767336 0 0,0 -0.5898958962984746,0.5388559149719513 l -16.977915507437785 -18.9103684492199" fill="red" stroke="none" /><path d="M 113.75828350139079 115.86535959552629 l 25.55397631792467 29.467558459487652 a60.00439343484753,60.00439343484753 0 0,0 -0.7861561995704823,0.6699793685684801 l -25.04295464177714 -29.90306221827908" fill="red" stroke="none" /><path d="M 112.92097659922987 116.55440617244103 l 16.376957457024144 20.98222247601033 a47.61688177796137,47.61688177796137 0 0,0 -0.6504721628961317,0.4987543169527917 l -16.01335656563452 -21.261016134790495" fill="red" stroke="none" /><path d="M 112.63410532772338 116.77436683061366 l 24.00946872753782 31.877495508931265 a60.90776000354504,60.90776000354504 0 0,0 -0.8428909750080585,0.623550592633714 l -23.457192782111196 -32.28605605030475" fill="red" stroke="none" /><path d="M 112.34349029814194 116.9893568818739 l 16.057952934050007 22.101876098203455 a48.31942128765729,48.31942128765729 0 0,0 -0.6770992961483048,0.4830923697004872 l -15.675126310052816 -22.375012729748164" fill="red" stroke="none" /><line stroke="#e1ed5e" stroke-width="0.3" x1="143.8653032363475" x2="146.44561519142675" y1="172.8068346515853" y2="177.08958963109032" /><path d="M 144.38136562736335 173.6633856474863 a86.0,86.0 0 0,1 -40.68145358897372,12.25698825130547" fill="none" id="id54" stroke="none" /><text fill="#e1ed5e" style="font-size:6.75px; font-family:Arial;" text-anchor="middle"><textPath startOffset="21.466115282336833" xlink:href="#id54">June</textPath></text><path d="M 110.21172684928248 118.3499491758327 l 15.147727790672155 27.21968959713341 a52.1506847273795,52.1506847273795 0 0,0 -0.7881636989476339,0.42976969091438033 l -14.676941279855873 -27.47639993980756" fill="red" stroke="none" /><path d="M 109.89434966115114 118.52300852407294 l 17.969616739219752 33.64054995365568 a59.13913642098953,59.13913642098953 0 0,0 -0.9020382577318862,0.47190378348442275 l -17.387887578961372 -33.94488315608482" fill="red" stroke="none" /><path d="M 109.57404056367764 118.69057910512821 l 12.180520362807817 23.778986298260893 a47.71713430893469,47.71713430893469 0 0,0 -0.7342669280242441,0.3681766808427383 l -11.769399527100813 -23.98513082001293" fill="red" stroke="none" /><path d="M 107.2578585660854 119.70592522655815 l 10.35705205193467 28.12059389758486 a50.96725426794005,50.96725426794005 0 0,0 -0.8258647464662221,0.2961257152225215 l -9.871467744838712 -28.294707153847344" fill="red" stroke="none" /><path d="M 106.91757812671514 119.82793768551818 l 12.569296307020439 36.02752572666072 a59.15717258444181,59.15717258444181 0 0,0 -0.9643471756909772,0.3271589203575864 l -11.947279398392235 -36.238547633916426" fill="red" stroke="none" /><path d="M 105.53697534728816 120.25689768951611 l 10.049252089979756 36.764958966735634 a59.11364159187255,59.11364159187255 0 0,0 -0.9838467950750106,0.25984288062368066 l -9.414914852093247 -36.9324931966629" fill="red" stroke="none" /><path d="M 105.18746579009965 120.34920634021253 l 6.854225879056646 26.88751354882069 a48.74741064025878,48.74741064025878 0 0,0 -0.814886589644604,0.2002792976424188 l -6.390386004668831 -27.001514104777137" fill="red" stroke="none" /><path d="M 101.26447882468166 120.96189622390904 l 1.5101440362012486 25.03441097795772 a46.079917623934975,46.079917623934975 0 0,0 -0.7921619080364052,0.040945722249735486 l -1.0789940597513636 -25.056696506969658" fill="red" stroke="none" /><line stroke="#e1ed5e" stroke-width="0.3" x1="102.19456741930631" x2="102.32365962044197" y1="184.97166512339345" y2="189.96999836594603" /><path d="M 102.22038585953345 185.97133177190398 a86.0,86.0 0 0,1 -42.740103519485714,-10.115201625700543" fill="none" id="id55" stroke="none" /><text fill="#e1ed5e" style="font-size:6.75px; font-family:Arial;" text-anchor="middle"><textPath startOffset="22.20632615414155" xlink:href="#id55">July</textPath></text><path d="M 96.22490169976321 120.6578951692458 l -4.0066346473146774 21.924896239258995 a43.28798322637864,43.28798322637864 0 0,0 -0.7318398069162696,-0.14025884078892004 l 4.383442068802642 -21.852680200121608" fill="red" stroke="none" /><line stroke="#e1ed5e" stroke-width="0.3" x1="58.666819895761336" x2="56.23545636021788" y1="174.27360380694188" y2="178.64263932499728" /><path d="M 58.180547188652646 175.14741091055294 a86.0,86.0 0 0,1 -31.652253787137756,-30.449443065178592" fill="none" id="id56" stroke="none" /><text fill="#e1ed5e" style="font-size:6.75px; font-family:Arial;" text-anchor="middle"><textPath startOffset="22.20632615414155" xlink:href="#id56">August</textPath></text><path d="M 87.36589467227662 116.77436683061367 l -15.194030001034369 20.173192027569296 a46.25502374288169,46.25502374288169 0 0,0 -0.6318684511754491,-0.4844897841083349 l 15.539027180703304 -19.908662901633594" fill="red" stroke="none" /><path d="M 83.72743513129214 113.27417163493432 l -22.06094916714751 17.995984532064178 a49.47000065742464,49.47000065742464 0 0,0 -0.5325848113941888,-0.6644814408726043 l 22.36745189059656 -17.613575257613316" fill="red" stroke="none" /><path d="M 83.06392112726016 112.41649034213515 l -20.426991060106243 14.975812236262858 a46.32857903447133,46.32857903447133 0 0,0 -0.4659777182192435,-0.6472022950435641 l 20.681748570701096 -14.621976335768156" fill="red" stroke="none" /><path d="M 82.6465618267979 111.8261652097733 l -21.10520568892761 14.382950904157891 a46.540144554864185,46.540144554864185 0 0,0 -0.4454487871077813,-0.6658854974410312 l 21.34965758144612 -14.017528492511039" fill="red" stroke="none" /><path d="M 82.05923443525364 110.91462005526583 l -21.808527376679237 13.267649556106456 a46.52728718612731,46.52728718612731 0 0,0 -0.41036873279768465,-0.6878016005343303 l 22.033676985175152 -12.890285861686014" fill="red" stroke="none" /><line stroke="#e1ed5e" stroke-width="0.3" x1="26.63291911575756" x2="22.317208475507996" y1="142.92168965132927" y2="145.44649492493687" /><path d="M 25.769776987707644 143.4266507060508 a86.0,86.0 0 0,1 -11.730757126820373,-40.83630448921669" fill="none" id="id57" stroke="none" /><text fill="#e1ed5e" style="font-size:6.75px; font-family:Arial;" text-anchor="middle"><textPath startOffset="21.46611528233685" xlink:href="#id57">September</textPath></text><path d="M 81.35079622478065 109.6543875284942 l -23.348449829019412 12.08711028931347 a47.29160216807382,47.29160216807382 0 0,0 -0.3680217397259665,-0.726141806710837 l 23.553050238531647 -11.683414270899949" fill="red" stroke="none" /><path d="M 81.02952815118164 109.00673069616217 l -22.134054813015055 10.50872495442627 a45.50203425500292,45.50203425500292 0 0,0 -0.3298364094778643,-0.7104382823908029 l 22.311665839332747 -10.12616660475664" fill="red" stroke="none" /><path d="M 80.87730276802145 108.67885076344099 l -23.268070815726478 10.560231734734892 a46.55233088735672,46.55233088735672 0 0,0 -0.32488852943245405,-0.7325378658033087 l 23.446400429890215 -10.158145532438887" fill="red" stroke="none" /><path d="M 80.32549172779594 107.34259656027581 l -35.70206133222817 13.324136446303541 a59.10734568833017,59.10734568833017 0 0,0 -0.3475391994707729,-0.9562786147967218 l 35.926124792704165 -12.707610034500702" fill="red" stroke="none" /><path d="M 79.97269907076064 106.31721596034903 l -24.188444864845117 7.62976651202822 a46.36324510009946,46.36324510009946 0 0,0 -0.23352333672985034,-0.7631677760029912 l 24.3161949740811 -7.21227176347318" fill="red" stroke="none" /><path d="M 79.86692584326677 105.97154293290107 l -25.364808395571806 7.523294313616318 a47.45701158999938,47.45701158999938 0 0,0 -0.2255504375268303,-0.7851706624684301 l 25.49055146998474 -7.085566175643292" fill="red" stroke="none" /><path d="M 79.35854240842038 103.8639653848113 l -27.441347883708396 5.136866806269936 a48.918004482055395,48.918004482055395 0 0,0 -0.14781054371685368,-0.8290000260339108 l 27.52570486976444 -4.663748029502811" fill="red" stroke="none" /><path d="M 79.10278846688536 102.07522291339032 l -25.171227051261212 2.4996592034373606 a46.29503839490016,46.29503839490016 0 0,0 -0.07192353895247218,-0.7936702590487034 l 25.21052518649076 -2.0660075558400908" fill="red" stroke="none" /><line stroke="#e1ed5e" stroke-width="0.3" x1="15.007084014347285" x2="10.007500721073583" y1="101.09737516637583" y2="101.16192664675087" /><path d="M 14.007167355692545 101.11028546245083 a86.0,86.0 0 0,1 10.666146001902534,-42.60595125391555" fill="none" id="id58" stroke="none" /><text fill="#e1ed5e" style="font-size:6.75px; font-family:Arial;" text-anchor="middle"><textPath startOffset="22.20632615414155" xlink:href="#id58">October</textPath></text><path d="M 79.00019446554 99.90962569577889 l -41.0652944023942 -0.17672770365238882 a62.065674681375285,62.065674681375285 0 0,0 0.0137933362843886,-1.0683090960157777 l 41.0561680589921 0.8835730577286386" fill="red" stroke="none" /><path d="M 79.03285615573316 98.82574320788736 l -25.73067270398218 -1.4410363859138677 a46.77099345514218,46.77099345514218 0 0,0 0.0519367583576369,-0.8034386640392501 l 25.70205535462013 1.8837341142061297" fill="red" stroke="none" /><path d="M 79.05617556472873 98.46500227214037 l -27.54923202388437 -2.019115882661983 a48.62312462509327,48.62312462509327 0 0,0 0.06836299299356197,-0.8342016716329935 l 27.510394547071314 2.493031471502755" fill="red" stroke="none" /><line stroke="#e1ed5e" stroke-width="0.3" x1="26.266209847984243" x2="21.928928074336255" y1="57.711370442889674" y2="55.22380399835377" /><path d="M 25.398753493254645 57.213857153982495 a86.0,86.0 0 0,1 29.58750427330803,-30.492523968695096" fill="none" id="id59" stroke="none" /><text fill="#e1ed5e" style="font-size:6.75px; font-family:Arial;" text-anchor="middle"><textPath startOffset="21.46611528233685" xlink:href="#id59">November</textPath></text><line stroke="#e1ed5e" stroke-width="0.3" x1="56.762969772571076" x2="54.21961505331055" y1="26.818313649435495" y2="22.513508569990535" /><path d="M 56.25429882871897 25.957352633546506 a86.0,86.0 0 0,1 42.265352541879196,-11.944610805530505" fill="none" id="id60" stroke="none" /><text fill="#e1ed5e" style="font-size:6.75px; font-family:Arial;" text-anchor="middle"><textPath startOffset="22.20632615414155" xlink:href="#id60">December</textPath></text></svg>