<?xml version="1.0" encoding="utf-8" ?>
<svg baseProfile="full" height="200mm" version="1.1" viewBox="0,0,200,200" width="200mm" xmlns="http://www.w3.org/2000/svg" xmlns:ev="http://www.w3.org/2001/xml-events" xmlns:xlink="http://www.w3.org/1999/xlink"><defs /><rect fill="#1a1a1a" height="200" width="200" x="0" y="0" /><rect fill="#1a1a1a" height="200" width="180" x="10" y="0" /><text alignment-baseline="middle" fill="#e1ed5e" style="dominant-baseline: central; font-size:9.0px; font-family:Arial;" text-anchor="middle" x="100.0" y="100.0">2025</text><line stroke="#e1ed5e" stroke-width="0.3" x1="100.0" x2="100.0" y1="15.0" y2="10.0" /><path d="M 100.0 14.0 a86.0,86.0 0 0,1 42.46469731375804,11.215312516191453" fill="none" id="id49" stroke="none" /><text fill="#e1ed5e" style="font-size:6.75px; font-family:Arial;" text-anchor="middle"><textPath startOffset="22.20632615414155" xlink:href="#id49">January</textPath></text><path d="M 104.307194497241 79.44645832069477 l 4.512229020060446 -21.53194783513712 a42.99965882245772,42.99965882245772 0 0,0 0.7231258272412803,0.1580472975036452 l -4.882197571455254 21.451087039537605" fill="red" stroke="none" /><path d="M 105.71112130821622 79.79150937346287 l 2.9052943671353884 -10.28022533878278 a31.682872664965174,31.682872664965174 0 0,0 0.5235365116840928,0.15283466407699534 l -3.0818210965429085 10.22869234578708" fill="red" stroke="none" /><path d="M 106.40334571778207 80.00007090966166 l 9.643185715368432 -30.11910320205768 a52.62517048866752,52.62517048866752 0 0,0 0.8603392862467121,0.28364033608738226 l -10.160207823857561 29.948649141711062" fill="red" stroke="none" /><path d="M 108.09893153111575 80.62456947434976 l 8.178077010495343 -19.56477374101724 a42.205219053968534,42.205219053968534 0 0,0 0.6678799903643529,0.28595135663964083 l -8.513640758650013 19.42110285641481" fill="red" stroke="none" /><path d="M 108.43124777332544 80.76684994638697 l 7.465321322514499 -17.02970296385052 a39.59413363094309,39.59413363094309 0 0,0 0.6218501559667077,0.27900603848529776 l -7.757353596947987 16.89867659484869" fill="red" stroke="none" /><path d="M 109.08828744355905 81.06846463323043 l 11.62258959623873 -24.210663159711245 a47.85592671191214,47.85592671191214 0 0,0 0.7395534886599275,0.36289568503988884 l -12.037614351909088 24.007012314536524" fill="red" stroke="none" /><line stroke="#e1ed5e" stroke-width="0.3" x1="143.23703022742887" x2="145.7803849466894" y1="26.81831364943548" y2="22.513508569990506" /><path d="M 143.74570117128098 25.957352633546492 a86.0,86.0 0 0,1 28.547481713284135,27.462654790039103" fill="none" id="id50" stroke="none" /><text fill="#e1ed5e" style="font-size:6.75px; font-family:Arial;" text-anchor="middle"><textPath startOffset="19.985693538727396" xlink:href="#id50">February</textPath></text><path d="M 113.06298171725822 83.55741782278167 l 26.215092650761708 -32.99735271190542 a63.14328379091872,63.14328379091872 0 0,0 0.8452077370050051,0.6834325430665019 l -26.779203786331202 32.54121407157479" fill="red" stroke="none" /><path d="M 113.34407831869373 83.78471172551755 l 33.1377676894895 -40.26793331279724 a73.14995782094613,73.14995782094613 0 0,0 0.9653790229444612,0.808477168901549 l -33.82600424939308 39.69155498650187" fill="red" stroke="none" /><path d="M 113.6212207817346 84.01681056812373 l 14.615265380846512 -17.14960493794046 a43.53253052100457,43.53253052100457 0 0,0 0.5661430498040646,0.4909536739238323 l -14.908302229297341 16.895486270596958" fill="red" stroke="none" /><path d="M 114.16331599549186 84.49514656593476 l 35.1404643884444 -38.46893976814772 a73.1028940109943,73.1028940109943 0 0,0 0.9217652383758191,0.856680331465587 l -35.79743751061507 37.85835485060749" fill="red" stroke="none" /><path d="M 114.68862486808459 84.99185889309783 l 16.184535331958127 -16.536591559325856 a44.13866989071256,44.13866989071256 0 0,0 0.5384165263920513,0.5361043947195152 l -16.466787658517504 16.25555131395622" fill="red" stroke="none" /><path d="M 114.94478906791727 85.2469230424477 l 29.720952277294682 -29.33969119309721 a62.76305165544699,62.76305165544699 0 0,0 0.7523668105106547,0.7753801331409819 l -30.221583351508446 28.823746864406115" fill="red" stroke="none" /><path d="M 116.15771136456269 86.58626213691792 l 32.2651852304569 -26.785769780140498 a62.934706874740186,62.934706874740186 0 0,0 0.6847940676955871,0.8394765560327909 l -32.721477790228896 26.226409054499605" fill="red" stroke="none" /><path d="M 116.60985879189232 87.15038557335679 l 34.00631852555676 -26.307754123491595 a63.99450693616237,63.99450693616237 0 0,0 0.6665303981158838,0.877075874105444 l -34.45412486389675 25.718493473505116" fill="red" stroke="none" /><path d="M 117.45458315368197 88.32363383020206 l 26.938631277553863 -18.020786869581507 a53.41047075416962,53.41047075416962 0 0,0 0.5046103383211621,0.7685561645885143 l -27.24483825123295 17.55441264101532" fill="red" stroke="none" /><path d="M 117.65298651832404 88.62581576622439 l 17.883884909893954 -11.522956841870709 a42.27467682128092,42.27467682128092 0 0,0 0.38887147330915317,0.6151012830887671 l -18.079583979449062 11.213407911067735" fill="red" stroke="none" /><line stroke="#e1ed5e" stroke-width="0.3" x1="172.23445277983987" x2="176.4835382374775" y1="55.19839476539836" y2="52.563006222186495" /><path d="M 173.08426987136738 54.67131705675599 a86.0,86.0 0 0,1 12.851231095245387,41.99856678651699" fill="none" id="id51" stroke="none" /><text fill="#e1ed5e" style="font-size:6.75px; font-family:Arial;" text-anchor="middle"><textPath startOffset="22.20632615414155" xlink:href="#id51">March</textPath></text><path d="M 118.03404312379186 89.2402003453031 l 36.19386787904482 -21.59464543995211 a63.146468223600856,63.146468223600856 0 0,0 0.5488941364564397,0.9382380058525721 l -36.560221689971584 20.96842802174564" fill="red" stroke="none" /><path d="M 118.3937258080291 89.86733742301442 l 36.8557114968026 -20.30292788581283 a63.07793187256313,63.07793187256313 0 0,0 0.5157128581223116,0.9555376028915211 l -37.19973245414338 19.66550929958885" fill="red" stroke="none" /><path d="M 118.89224826269711 90.83032412892265 l 32.78732399061085 -15.913888569182822 a57.44530784418831,57.44530784418831 0 0,0 0.4241154420704422,0.893295283923031 l -33.05639762652305 15.34715086961925" fill="red" stroke="none" /><path d="M 119.47837535516314 92.15188598940014 l 30.177002531940676 -12.158742813530063 a53.53438963033305,53.53438963033305 0 0,0 0.3370281720131543,0.8576999363534455 l -30.381824253835532 11.637493872280832" fill="red" stroke="none" /><path d="M 119.7369772167798 92.82701384747503 l 39.94699791729196 -14.517889935651931 a63.50331482117403,63.50331482117403 0 0,0 0.3645299504789185,1.030575258134955 l -40.19098094858069 13.828117051090361" fill="red" stroke="none" /><path d="M 120.18372546131832 94.20196356495316 l 30.254998947220788 -8.69114012546782 a52.478578080606624,52.478578080606624 0 0,0 0.24193431524137132,0.8703664551486306 l -30.40012003302852 8.169062366900237" fill="red" stroke="none" /><path d="M 120.28053869075195 94.5502522615342 l 40.38562113076754 -10.852347207340204 a62.81831935918231,62.81831935918231 0 0,0 0.2716254201693586,1.0466835468948448 l -40.566442882807195 10.155567234896509" fill="red" stroke="none" /><path d="M 120.45610955862082 95.25157060432595 l 40.8135621629112 -9.473957780738639 a62.89871993816798,62.89871993816798 0 0,0 0.23573725283431768,1.0567638810261242 l -40.97059380274755 8.77001573016255" fill="red" stroke="none" /><path d="M 120.53481517161879 95.60439243477599 l 30.96306580200635 -6.627840822737684 a52.66448669773321,52.66448669773321 0 0,0 0.1821205763935555,0.8880846093012144 l -31.0725656743149 6.093880557273058" fill="red" stroke="none" /><path d="M 120.67395015179393 96.31383870115 l 41.23894762176692 -7.352896355681139 a62.889329020267496,62.889329020267496 0 0,0 0.1808461671321986,1.0673643155287875 l -41.35940565041934 6.641946251836513" fill="red" stroke="none" /><path d="M 120.73433829027371 96.67025291283417 l 41.71730903101298 -6.699422295794834 a63.25181808971574,63.25181808971574 0 0,0 0.16338277907697904,1.0764883775275695 l -41.82644770352926 5.980334805875183" fill="red" stroke="none" /><path d="M 120.83666639777658 97.38593545837742 l 36.94296682839397 -4.634680894000808 a58.232553834957834,58.232553834957834 0 0,0 0.11621456071059941,0.9956553851322248 l -37.01727174210816 3.99808177054373" fill="red" stroke="none" /><path d="M 120.96714384426684 98.82574320788733 l 31.47548665238536 -1.7627724720704574 a52.5248097027211,52.5248097027211 0 0,0 0.04278618915408537,0.9031488290663374 l -31.501166449772942 1.2207125363811202" fill="red" stroke="none" /><path d="M 120.98425023603335 99.18683210126433 l 21.590639058659633 -0.8366662805775452 a42.60684394876712,42.60684394876712 0 0,0 0.022091254056896506,0.7331011734616235 l -21.601842007172174 0.4648949596909226" fill="red" stroke="none" /><line stroke="#e1ed5e" stroke-width="0.3" x1="184.98032266829074" x2="189.97916517819016" y1="98.17113171792111" y2="98.06355123074" /><path d="M 185.9800911702706 98.14961562048488 a86.0,86.0 0 0,1 -9.607161424134198,41.387399972396054" fill="none" id="id52" stroke="none" /><text fill="#e1ed5e" style="font-size:6.75px; font-family:Arial;" text-anchor="middle"><textPath startOffset="21.466115282336823" xlink:href="#id52">April</textPath></text><path d="M 120.99980553446 99.90962569577887 l 52.206856414804754 -0.2246762864693236 a73.20733986854475,73.20733986854475 0 0,0 -0.005423278907703295,1.2601790232571637 l -52.20298883860755 -0.6740122149915247" fill="red" stroke="none" /><path d="M 120.95626037817324 101.35467743843564 l 32.89970486583955 2.126738602626065 a53.96837268266735,53.96837268266735 0 0,0 -0.06790619664579152,0.9265261015074021 l -32.858222110529425 -2.6927378406302376" fill="red" stroke="none" /><path d="M 120.92983693683757 101.71520430193887 l 41.90809707889816 3.434376895181817 a63.04858553426632,63.04858553426632 0 0,0 -0.09795169320070411,1.080888772286821 l -41.84277078942038 -4.155247056017209" fill="red" stroke="none" /><path d="M 120.81339534386255 102.79330883721812 l 41.65610029634537 5.5905512368090085 a63.02957238695835,63.02957238695835 0 0,0 -0.1535698992950735,1.0740675179910288 l -41.553696346033696 -6.306764226780446" fill="red" stroke="none" /><path d="M 120.5718875245553 104.21870165774334 l 41.01964965459406 8.411948771901898 a62.873291486659376,62.873291486659376 0 0,0 -0.22654133518554145,1.0583256984930056 l -40.86877428068408 -9.11678828981107" fill="red" stroke="none" /><path d="M 120.13307415673323 105.97154293290107 l 32.17997350327147 9.544697042211908 a54.56563624153224,54.56563624153224 0 0,0 -0.27483730740586665,0.8981842225825543 l -32.01090942335947 -10.09720823734652" fill="red" stroke="none" /><path d="M 119.79798401119884 107.00284435728193 l 49.43460633370034 17.485762884876888 a73.43598198788752,73.43598198788752 0 0,0 -0.43178867356006045,1.1880969837810884 l -49.12629339913505 -18.334107665664106" fill="red" stroke="none" /><path d="M 119.12269723197855 108.67885076344098 l 28.596443205284015 12.97851761878245 a52.40379727953422,52.40379727953422 0 0,0 -0.37986610094880474,0.8181977869689275 l -28.368802487495376 -13.468835473030207" fill="red" stroke="none" /><path d="M 118.81262510543309 109.33194174019688 l 28.295075303193638 14.035680442472085 a52.58499029438812,52.58499029438812 0 0,0 -0.40921471729452563,0.8074194594323879 l -28.049281916112843 -14.520654113607167" fill="red" stroke="none" /><line stroke="#e1ed5e" stroke-width="0.3" x1="174.80103733775053" x2="179.2010983576182" y1="140.37084112569926" y2="142.7455964860345" /><path d="M 175.68104954172406 140.8457921977663 a86.0,86.0 0 0,1 -30.038265399797805,32.042727171017184" fill="none" id="id53" stroke="none" /><text fill="#e1ed5e" style="font-size:6.75px; font-family:Arial;" text-anchor="middle"><textPath startOffset="22.206326154141568" xlink:href="#id53">May</textPath></text><path d="M 118.48025628344425 109.97397251340804 l 29.11126942607949 15.71163281681601 a54.08052921838223,54.08052921838223 0 0,0 -0.44918667071584645,0.8154042824375582 l -28.836506345912138 -16.210407617651374" fill="red" stroke="none" /><path d="M 117.94076556474637 110.91462005526583 l 18.053559305058613 10.983240361109383 a42.13202717230816,42.13202717230816 0 0,0 -0.38226861803785306,0.6163387292548118 l -17.861826047352796 -11.292375421729467" fill="red" stroke="none" /><path d="M 117.35343817320211 111.8261652097733 l 26.240003808263317 17.882255783802496 a52.753942617807496,52.753942617807496 0 0,0 -0.5178404702312172,0.7459878197353577 l -25.928302430869962 -18.331284865724875" fill="red" stroke="none" /><path d="M 116.71984013943494 112.70617746262583 l 25.1164462622629 19.087145617266835 a52.546077421129375,52.546077421129375 0 0,0 -0.5534682908326379,0.7154323741776016 l -24.784171154212196 -19.516655985557687" fill="red" stroke="none" /><path d="M 116.27256486870786 113.27417163493432 l 32.42914233396232 26.453727779726005 a62.85031643799404,62.85031643799404 0 0,0 -0.6910661654042575,0.8324337144793043 l -31.968980168664515 -27.00802275131908" fill="red" stroke="none" /><path d="M 115.80600337817218 113.82643327865902 l 23.899342697340604 20.906149347337376 a52.75288430832863,52.75288430832863 0 0,0 -0.603747090430087,0.6783162563771645 l -23.535936757262178 -21.31443977345541" fill="red" stroke="none" /><path d="M 114.81725581225074 114.88116024355365 l 30.978070612615266 31.111674028149466 a64.90418111881837,64.90418111881837 0 0,0 -0.7984761087169906,0.7814769293232368 l -30.43794455152248 -31.640301060395277" fill="red" stroke="none" /><path d="M 114.29624159901734 115.38237550388516 l 14.39984531930484 15.493850349775519 a42.15218532164335,42.15218532164335 0 0,0 -0.535735107300136,0.48938131836188153 l -14.13101066253784 -15.739424434723983" fill="red" stroke="none" /><path d="M 113.75828350139079 115.86535959552629 l 21.269013363898445 24.52635499378916 a53.46402653330386,53.46402653330386 0 0,0 -0.7004666409767932,0.5969528677396654 l -20.843681246344605 -24.88883225175177" fill="red" stroke="none" /><path d="M 112.92097659922987 116.55440617244103 l 13.630822956078067 17.46386412409407 a43.15368783306212,43.15368783306212 0 0,0 -0.5895025380412086,0.45200540849221416 l -13.328191689543363 -17.695908874413654" fill="red" stroke="none" /><path d="M 112.63410532772338 116.77436683061366 l 19.983493170411457 26.53218698929024 a54.215914043219456,54.215914043219456 0 0,0 -0.7502837839740379,0.5550420066320013 l -19.523824416018854 -26.87223894466201" fill="red" stroke="none" /><path d="M 112.34349029814194 116.9893568818739 l 13.365310012891932 18.395771063236797 a43.738423532684266,43.738423532684266 0 0,0 -0.6129058461257252,0.4372920475511855 l -13.046676838917323 -18.6231073726322" fill="red" stroke="none" /><line stroke="#e1ed5e" stroke-width="0.3" x1="143.8653032363475" x2="146.44561519142675" y1="172.8068346515853" y2="177.08958963109032" /><path d="M 144.38136562736335 173.6633856474863 a86.0,86.0 0 0,1 -40.68145358897372,12.25698825130547" fill="none" id="id54" stroke="none" /><text fill="#e1ed5e" style="font-size:6.75px; font-family:Arial;" text-anchor="middle"><textPath startOffset="21.466115282336833" xlink:href="#id54">June</textPath></text><path d="M 110.21172684928248 118.3499491758327 l 12.60771399347791 22.655415133828203 a46.92724989325769,46.92724989325769 0 0,0 -0.7092208865647324,0.38672377529683594 l -12.21587029504453 -22.86907956088481" fill="red" stroke="none" /><path d="M 109.89434966115114 118.52300852407294 l 14.95642062963443 27.999607483055865 a52.74385826039035,52.74385826039035 0 0,0 -0.8044922684121939,0.42087233218052905 l -14.47223745869574 -28.25290923418111" fill="red" stroke="none" /><path d="M 109.57404056367764 118.69057910512821 l 10.13805629122679 19.79165868612432 a43.23712973636938,43.23712973636938 0 0,0 -0.6653290246343467,0.3336097849556452 l -9.795873358909684 -19.96323631198927" fill="red" stroke="none" /><path d="M 107.2578585660854 119.70592522655815 l 8.620352299093012 23.405253255594594 a45.94226039714523,45.94226039714523 0 0,0 -0.7444405977906531,0.2669299124399118 l -8.216192140672623 -23.550170709074465" fill="red" stroke="none" /><path d="M 106.91757812671514 119.82793768551818 l 10.461641186592777 29.98632841383073 a52.75887006899217,52.75887006899217 0 0,0 -0.860045622888011,0.29177417068775086 l -9.943925830767538 -30.161965571416605" fill="red" stroke="none" /><path d="M 105.53697534728816 120.25689768951611 l 8.364165104474912 30.60010676452656 a52.722638476257615,52.722638476257615 0 0,0 -0.8774793346498241,0.23175026756658515 l -7.836195327013591 -30.73954838139673" fill="red" stroke="none" /><path d="M 105.18746579009965 120.34920634021253 l 5.704889916430584 22.378939303889577 a44.09464642131949,44.09464642131949 0 0,0 -0.737108608886368,0.18116336230091465 l -5.3188280228010045 -22.473823924504522" fill="red" stroke="none" /><path d="M 101.26447882468166 120.96189622390904 l 1.2569188171645145 20.836570208215306 a41.874446171212014,41.874446171212014 0 0,0 -0.7198654617326201,0.03720882177526625 l -0.8980652870184147 -20.855118836752776" fill="red" stroke="none" /><line stroke="#e1ed5e" stroke-width="0.3" x1="102.19456741930631" x2="102.32365962044197" y1="184.97166512339345" y2="189.96999836594603" /><path d="M 102.22038585953345 185.97133177190398 a86.0,86.0 0 0,1 -42.740103519485714,-10.115201625700543" fill="none" id="id55" stroke="none" /><text fill="#e1ed5e" style="font-size:6.75px; font-family:Arial;" text-anchor="middle"><textPath startOffset="22.20632615414155" xlink:href="#id55">July</textPath></text><path d="M 96.22490169976321 120.6578951692458 l -3.3347908285498176 18.248467687112502 a39.5506712222973,39.5506712222973 0 0,0 -0.6686556737782297,-0.12814945129351069 l 3.648414116899742 -18.18836103747052" fill="red" stroke="none" /><line stroke="#e1ed5e" stroke-width="0.3" x1="58.666819895761336" x2="56.23545636021788" y1="174.27360380694188" y2="178.64263932499728" /><path d="M 58.180547188652646 175.14741091055294 a86.0,86.0 0 0,1 -31.652253787137756,-30.449443065178592" fill="none" id="id56" stroke="none" /><text fill="#e1ed5e" style="font-size:6.75px; font-family:Arial;" text-anchor="middle"><textPath startOffset="22.20632615414155" xlink:href="#id56">August</textPath></text><path d="M 87.36589467227662 116.77436683061367 l -12.646252118375571 16.79049418723524 a42.020190001355815,42.020190001355815 0 0,0 -0.5740183492682961,-0.44013279282082507 l 12.933399196137353 -16.570322052587045" fill="red" stroke="none" /><path d="M 83.72743513129214 113.27417163493432 l -18.361706875622996 14.978366996470152 a44.69607050266451,44.69607050266451 0 0,0 -0.4811895686755016,-0.6003579732012108 l 18.61681435635336 -14.660081189690683" fill="red" stroke="none" /><path d="M 83.06392112726016 112.41649034213515 l -17.00173548086461 12.46462572499468 a42.08141133381467,42.08141133381467 0 0,0 -0.42325925900265715,-0.5878700914537534 l 17.213774532242876 -12.170122028089787" fill="red" stroke="none" /><path d="M 82.6465618267979 111.8261652097733 l -17.566225164369357 11.971177056239583 a42.257500949950824,42.257500949950824 0 0,0 -0.40445840304967745,-0.6046104349225085 l 17.769686672829764 -11.667029707111253" fill="red" stroke="none" /><path d="M 82.05923443525364 110.91462005526583 l -18.1516118842207 11.042892589612727 a42.246799541133385,42.246799541133385 0 0,0 -0.3726150102648126,-0.6245241899791738 l 18.339007770183745 -10.728806305747442" fill="red" stroke="none" /><line stroke="#e1ed5e" stroke-width="0.3" x1="26.63291911575756" x2="22.317208475507996" y1="142.92168965132927" y2="145.44649492493687" /><path d="M 25.769776987707644 143.4266507060508 a86.0,86.0 0 0,1 -11.730757126820373,-40.83630448921669" fill="none" id="id57" stroke="none" /><text fill="#e1ed5e" style="font-size:6.75px; font-family:Arial;" text-anchor="middle"><textPath startOffset="21.46611528233685" xlink:href="#id57">September</textPath></text><path d="M 81.35079622478065 109.6543875284942 l -19.433315788564403 10.06030948279446 a42.88295202726704,42.88295202726704 0 0,0 -0.33371376494227095,-0.6584489176641934 l 19.60360822329294 -9.724306353427583" fill="red" stroke="none" /><path d="M 81.02952815118164 109.00673069616217 l -18.422553960224963 8.746592260729525 a41.39346391844343,41.39346391844343 0 0,0 -0.3000540907291362,-0.6462898173655014 l 18.570382667793925 -8.428182376085196" fill="red" stroke="none" /><path d="M 80.87730276802145 108.67885076344099 l -19.366414955338485 8.789462238578997 a42.267643843777435,42.267643843777435 0 0,0 -0.29498571584326744,-0.6651149152719293 l 19.514841755913032 -8.454798986814371" fill="red" stroke="none" /><path d="M 80.32549172779594 107.34259656027581 l -29.715438808685267 11.089907598452827 a52.717398287610855,52.717398287610855 0 0,0 -0.30996760530688894,-0.8528977240153208 l 29.901930674997377 -10.576762077431388" fill="red" stroke="none" /><path d="M 79.97269907076064 106.31721596034903 l -20.132458083302044 6.350385704706334 a42.110264495606216,42.110264495606216 0 0,0 -0.21210183744384656,-0.6931610768966768 l 20.23878669325202 -6.00289765525761" fill="red" stroke="none" /><path d="M 79.86692584326677 105.97154293290107 l -21.11156565327653 6.261767065370822 a43.02062512994506,43.02062512994506 0 0,0 -0.20446548351101063,-0.7117711714532634 l 21.216223773673644 -5.897438418412963" fill="red" stroke="none" /><path d="M 79.35854240842038 103.8639653848113 l -22.839905132595064 4.275502465519804 a44.236634605695556,44.236634605695556 0 0,0 -0.13366532593679728,-0.749666132706347 l 22.91011690087105 -3.881717582080244" fill="red" stroke="none" /><path d="M 79.10278846688536 102.07522291339032 l -20.950444575761264 2.080509285195217 a42.05349488345885,42.05349488345885 0 0,0 -0.0653339165967996,-0.7209543254582301 l 20.983153088635138 -1.7195735711884208" fill="red" stroke="none" /><line stroke="#e1ed5e" stroke-width="0.3" x1="15.007084014347285" x2="10.007500721073583" y1="101.09737516637583" y2="101.16192664675087" /><path d="M 14.007167355692545 101.11028546245083 a86.0,86.0 0 0,1 10.666146001902534,-42.60595125391555" fill="none" id="id58" stroke="none" /><text fill="#e1ed5e" style="font-size:6.75px; font-family:Arial;" text-anchor="middle"><textPath startOffset="22.20632615414155" xlink:href="#id58">October</textPath></text><path d="M 79.00019446554 99.90962569577889 l -34.179349803353034 -0.14709350294408546 a55.17966631608005,55.17966631608005 0 0,0 0.012263005235427454,-0.9497832697897537 l 34.17175379099989 0.7354130307943111" fill="red" stroke="none" /><path d="M 79.03285615573316 98.82574320788736 l -21.416080800670453 -1.1993993329471444 a42.449640454346074,42.449640454346074 0 0,0 0.04713812035573829,-0.7292058580773337 l 21.392262089310304 1.56786425527749" fill="red" stroke="none" /><path d="M 79.05617556472873 98.46500227214037 l -22.92969895531008 -1.6805448262654183 a43.99120103635814,43.99120103635814 0 0,0 0.06185061514279758,-0.7547341666054569 l 22.897373856347784 2.0749929100786537" fill="red" stroke="none" /><path d="M 79.12142395522702 97.74499172005258 l -23.03901743234938 -2.488348580879754 a44.1730059100684,44.1730059100684 0 0,0 0.0881559564029213,-0.7552663985249022 l 22.99277112294287 2.8845587177295178" fill="red" stroke="none" /><path d="M 79.32604984820605 96.31383870115002 l -21.370152334859995 -3.810294012944308 a42.70718202070921,42.70718202070921 0 0,0 0.13526844266463078,-0.7226094296073451 l 21.301398168285502 4.1775815200142254" fill="red" stroke="none" /><path d="M 79.46518482838121 95.60439243477599 l -21.32982215221779 -4.565783857005618 a42.81301664772972,42.81301664772972 0 0,0 0.16045831997864463,-0.719303185749527 l 21.248069445237107 4.932265212305104" fill="red" stroke="none" /><path d="M 80.02781315780177 93.51064311812611 l -22.34624087058118 -7.260733795616588 a44.49622812914536,44.49622812914536 0 0,0 0.24295513972554247,-0.7264049438654947 l 22.217948437083866 7.644311842404405" fill="red" stroke="none" /><path d="M 81.26839172434947 90.50648371742162 l -22.03293325350904 -11.166687212173537 a45.701114368548325,45.701114368548325 0 0,0 0.36167114772016684,-0.6986335397811493 l 21.83745267262876 11.54429347421502" fill="red" stroke="none" /><line stroke="#e1ed5e" stroke-width="0.3" x1="26.266209847984243" x2="21.928928074336255" y1="57.711370442889674" y2="55.22380399835377" /><path d="M 25.398753493254645 57.213857153982495 a86.0,86.0 0 0,1 29.58750427330803,-30.492523968695096" fill="none" id="id59" stroke="none" /><text fill="#e1ed5e" style="font-size:6.75px; font-family:Arial;" text-anchor="middle"><textPath startOffset="21.46611528233685" xlink:href="#id59">November</textPath></text><path d="M 81.96595687620814 89.24020034530311 l -44.79455221641189 -26.72614256059895 a73.16165837507766,73.16165837507766 0 0,0 0.6545676085646656,-1.0759370415161202 l 44.32786880956101 27.493247375322145" fill="red" stroke="none" /><path d="M 83.17141714833178 87.43820079747576 l -24.73886096100686 -18.466474962894917 a51.87105341907292,51.87105341907292 0 0,0 0.5402593994605595,-0.7109180411951294 l 24.417325621322192 18.889577779971074" fill="red" stroke="none" /><path d="M 84.80347519578584 85.50635884689758 l -45.58957441264248 -43.480923459307235 a84.0,84.0 0 0,0 1.0069429451875265,-1.0377432177995054 l 44.83436720375183 44.259230872656865" fill="red" stroke="none" /><line stroke="#e1ed5e" stroke-width="0.3" x1="56.762969772571076" x2="54.21961505331055" y1="26.818313649435495" y2="22.513508569990535" /><path d="M 56.25429882871897 25.957352633546506 a86.0,86.0 0 0,1 42.265352541879196,-11.944610805530505" fill="none" id="id60" stroke="none" /><text fill="#e1ed5e" style="font-size:6.75px; font-family:Arial;" text-anchor="middle"><textPath startOffset="22.20632615414155" xlink:href="#id60">December</textPath></text></svg>