<?xml version="1.0" encoding="utf-8" ?>
<svg baseProfile="full" height="200mm" version="1.1" viewBox="0,0,200,200" width="200mm" xmlns="http://www.w3.org/2000/svg" xmlns:ev="http://www.w3.org/2001/xml-events" xmlns:xlink="http://www.w3.org/1999/xlink"><defs /><rect fill="#1a1a1a" height="200" width="200" x="0" y="0" /><rect fill="#1a1a1a" height="200" width="180" x="10" y="0" /><text alignment-baseline="middle" fill="#e1ed5e" style="dominant-baseline: central; font-size:9.0px; font-family:Arial;" text-anchor="middle" x="100.0" y="100.0">2022</text><line stroke="#e1ed5e" stroke-width="0.3" x1="100.0" x2="100.0" y1="15.0" y2="10.0" /><path d="M 100.0 14.0 a86.0,86.0 0 0,1 42.46469731375804,11.215312516191453" fill="none" id="id13" stroke="none" /><text fill="#e1ed5e" style="font-size:6.75px; font-family:Arial;" text-anchor="middle"><textPath startOffset="22.20632615414155" xlink:href="#id13">January</textPath></text><line stroke="#e1ed5e" stroke-width="0.3" x1="143.23703022742887" x2="145.7803849466894" y1="26.81831364943548" y2="22.513508569990506" /><path d="M 143.74570117128098 25.957352633546492 a86.0,86.0 0 0,1 28.547481713284135,27.462654790039103" fill="none" id="id14" stroke="none" /><text fill="#e1ed5e" style="font-size:6.75px; font-family:Arial;" text-anchor="middle"><textPath startOffset="19.985693538727396" xlink:href="#id14">February</textPath></text><line stroke="#e1ed5e" stroke-width="0.3" x1="172.23445277983987" x2="176.4835382374775" y1="55.19839476539836" y2="52.563006222186495" /><path d="M 173.08426987136738 54.67131705675599 a86.0,86.0 0 0,1 12.851231095245387,41.99856678651699" fill="none" id="id15" stroke="none" /><text fill="#e1ed5e" style="font-size:6.75px; font-family:Arial;" text-anchor="middle"><textPath startOffset="22.20632615414155" xlink:href="#id15">March</textPath></text><path d="M 118.03404312379186 89.2402003453031 l 42.32688362124482 -25.253837126042473 a70.28814630999105,70.28814630999105 0 0,0 0.6109724337287157,1.044349938866609 l -42.755315729443865 24.521507774821966" fill="red" stroke="none" /><path d="M 118.56541770881063 90.18545643968196 l 47.72101741396394 -25.227550034049298 a74.97892907185461,74.97892907185461 0 0,0 0.5933709868332833,1.1462038803701036 l -48.14819783395734 24.402373431418848" fill="red" stroke="none" /><path d="M 118.89224826269711 90.83032412892265 l 50.54406536515513 -24.53242674775502 a77.18311584249346,77.18311584249346 0 0,0 0.5698385564352928,1.200225326802905 l -50.958862115432176 23.658759005311573" fill="red" stroke="none" /><path d="M 119.34039704204932 91.81776055985345 l 46.90919186791125 -19.84562359151831 a71.93447808151899,71.93447808151899 0 0,0 0.4726379971623713,1.1445303994383327 l -47.243851551959814 19.035218621626676" fill="red" stroke="none" /><path d="M 120.08093135843002 93.85539295169968 l 42.42893947974656 -12.982921754259769 a65.37083684869182,65.37083684869182 0 0,0 0.31998745375802623,1.0788386197877937 l -42.64613283061629 12.250653747725446" fill="red" stroke="none" /><path d="M 120.37134235888165 94.90015583598534 l 52.362815410246235 -13.108718800992193 a74.97872679390471,74.97872679390471 0 0,0 0.30265412906325573,1.2546967574644146 l -52.58070233957031 12.205436811868372" fill="red" stroke="none" /><path d="M 120.94382443527127 98.46500227214037 l 39.586973421926956 -2.901376223969981 a60.69315367543085,60.69315367543085 0 0,0 0.06739659398996352,1.042595478586155 l -39.631050606921335 2.2195216811307907" fill="red" stroke="none" /><line stroke="#e1ed5e" stroke-width="0.3" x1="184.98032266829074" x2="189.97916517819016" y1="98.17113171792111" y2="98.06355123074" /><path d="M 185.9800911702706 98.14961562048488 a86.0,86.0 0 0,1 -9.607161424134198,41.387399972396054" fill="none" id="id16" stroke="none" /><text fill="#e1ed5e" style="font-size:6.75px; font-family:Arial;" text-anchor="middle"><textPath startOffset="21.466115282336823" xlink:href="#id16">April</textPath></text><path d="M 120.32669344350535 105.2749913415812 l 38.5802707048893 10.01198716799532 a60.85821339090154,60.85821339090154 0 0,0 -0.2718679080287184,1.0117216231190949 l -38.402214720518806 -10.674599724289962" fill="red" stroke="none" /><path d="M 119.67450827220406 107.3425965602758 l 44.11179512601219 16.462679050405708 a68.08365184175862,68.08365184175862 0 0,0 -0.41921931663349854,1.094449349795949 l -43.82188152978519 -17.2195519670348" fill="red" stroke="none" /><path d="M 119.12269723197855 108.67885076344098 l 48.869962015379684 22.179669635580296 a74.6675966718106,74.6675966718106 0 0,0 -0.5412525482388238,1.16580983681927 l -48.48093485030103 -23.017599539678397" fill="red" stroke="none" /><line stroke="#e1ed5e" stroke-width="0.3" x1="174.80103733775053" x2="179.2010983576182" y1="140.37084112569926" y2="142.7455964860345" /><path d="M 175.68104954172406 140.8457921977663 a86.0,86.0 0 0,1 -30.038265399797805,32.042727171017184" fill="none" id="id17" stroke="none" /><text fill="#e1ed5e" style="font-size:6.75px; font-family:Arial;" text-anchor="middle"><textPath startOffset="22.206326154141568" xlink:href="#id17">May</textPath></text><path d="M 117.94076556474637 110.91462005526583 l 42.36721007309009 25.774931347303784 a70.59160791238342,70.59160791238342 0 0,0 -0.6404855928573265,1.032666710738494 l -41.9172598405648 -26.500394389407553" fill="red" stroke="none" /><path d="M 117.35343817320211 111.8261652097733 l 39.00749580765127 26.583152297346793 a68.20432941211924,68.20432941211924 0 0,0 -0.6695037425061472,0.964470075028746 l -38.54413115798299 -27.250663634562557" fill="red" stroke="none" /><path d="M 116.71984013943494 112.70617746262583 l 39.68592576249157 30.159164878466 a70.84523979070107,70.84523979070107 0 0,0 -0.7462135273454434,0.9645815746897551 l -39.16090541792806 -30.837824447269007" fill="red" stroke="none" /><path d="M 116.0416608686014 113.55231037782055 l 34.56634951644237 29.202331423921745 a66.25051026768011,66.25051026768011 0 0,0 -0.743448999492231,0.8647991455526404 l -34.05855800737936 -29.793007668635912" fill="red" stroke="none" /><path d="M 115.56566222782051 114.09645910891815 l 31.414886945737504 28.44971596842117 a63.38256080627157,63.38256080627157 0 0,0 -0.7393231399964661,0.8023892503726378 l -30.920517397745314 -28.986256473595144" fill="red" stroke="none" /><path d="M 115.07121518719521 114.62390073753431 l 31.936893335365504 30.989004682144962 a65.50037715687942,65.50037715687942 0 0,0 -0.7921159448279892,0.8024092700694742 l -31.39873676548198 -31.534154446195103" fill="red" stroke="none" /><path d="M 114.29624159901734 115.38237550388516 l 28.624016836356564 30.798680363420285 a63.046320314340875,63.046320314340875 0 0,0 -0.8012900617311423,0.7319594729874077 l -28.089627225158555 -31.286832602994274" fill="red" stroke="none" /><path d="M 113.20401910651253 116.32954008644616 l 34.198565000112744 42.29370114988979 a75.39024733371899,75.39024733371899 0 0,0 -1.01612593476166,0.8072718971485179 l -33.465481572633735 -42.87610696104343" fill="red" stroke="none" /><path d="M 112.34349029814194 116.9893568818739 l 30.52262180601307 42.010784819175576 a72.92818582461723,72.92818582461723 0 0,0 -1.0219415294163432,0.7291281470080693 l -29.794952948747845 -42.52995722802787" fill="red" stroke="none" /><path d="M 111.7513745106137 117.40417183066458 l 30.297756804213495 44.87197348939571 a75.14284876325124,75.14284876325124 0 0,0 -1.0782115019582854,0.7145797904217642 l -29.520870603515245 -45.38685130090879" fill="red" stroke="none" /><path d="M 111.45004920935366 117.60387380957326 l 25.335234398871435 38.95164650727891 a67.46616906603955,67.46616906603955 0 0,0 -0.9789604505047951,0.6248188774227705 l -24.66099214631971 -39.38197981352548" fill="red" stroke="none" /><line stroke="#e1ed5e" stroke-width="0.3" x1="143.8653032363475" x2="146.44561519142675" y1="172.8068346515853" y2="177.08958963109032" /><path d="M 144.38136562736335 173.6633856474863 a86.0,86.0 0 0,1 -40.68145358897372,12.25698825130547" fill="none" id="id18" stroke="none" /><text fill="#e1ed5e" style="font-size:6.75px; font-family:Arial;" text-anchor="middle"><textPath startOffset="21.466115282336833" xlink:href="#id18">June</textPath></text><path d="M 109.2508944713604 118.85261126421891 l 24.683325456667983 50.30271840019471 a77.03240164448675,77.03240164448675 0 0,0 -1.1954230404502988,0.5738757051546767 l -23.813789748217452 -50.72014838184895" fill="red" stroke="none" /><path d="M 108.92500713936063 119.00905698771935 l 23.038210387102055 49.06826933640567 a75.20751048987978,75.20751048987978 0 0,0 -1.1765749597420492,0.5401078566599811 l -22.190167431592588 -49.457564263399725" fill="red" stroke="none" /><path d="M 108.59647513512805 119.15986991738527 l 20.486956953426688 45.66143960874496 a71.04680281850801,71.04680281850801 0 0,0 -1.1201013116607252,0.4910194982888079 l -19.697934967108207 -46.007323660328225" fill="red" stroke="none" /><path d="M 106.91757812671514 119.82793768551818 l 11.80640085612998 33.84082928699155 a56.84121688792014,56.84121688792014 0 0,0 -0.9265937598768907,0.3143509119256672 l -11.222137363315863 -34.039043185815345" fill="red" stroke="none" /><path d="M 106.57524785965236 119.94407469862006 l 15.677737687379441 47.5537923765809 a71.07149516830151,71.07149516830151 0 0,0 -1.1651618456627892,0.37304802838287116 l -14.856854496625711 -47.81661325162348" fill="red" stroke="none" /><path d="M 105.88484417918355 120.15858648285463 l 15.896504649569826 54.45361916072222 a77.72649733391592,77.72649733391592 0 0,0 -1.2875536111842765,0.3638755115460789 l -14.956819870280944 -54.71918346560682" fill="red" stroke="none" /><path d="M 104.83641907484287 120.43548508189849 l 12.551253755401587 53.0332369690203 a75.49824028576285,75.49824028576285 0 0,0 -1.2672194503346423,0.2884150211838454 l -11.636514155674083 -53.24142872378184" fill="red" stroke="none" /><path d="M 104.13013068566511 120.58985236759428 l 11.382430012979839 56.744585435312416 a78.87493144035554,78.87493144035554 0 0,0 -1.3334835742744142,0.255565300727347 l -10.40397882413372 -56.93210793438823" fill="red" stroke="none" /><path d="M 102.34483914955558 120.86867818915974 l 5.221429555234441 46.46985406065349 a67.762278206036,67.762278206036 0 0,0 -1.1602431629825298,0.12026394779121714 l -4.420753795646309 -46.552847376900466" fill="red" stroke="none" /><path d="M 101.26447882468166 120.96189622390904 l 2.8632761063714023 47.46595627432973 a68.55223817127748,68.55223817127748 0 0,0 -1.1784845674662894,0.06091419100759987 l -2.0458034704916335 -47.50821027209953" fill="red" stroke="none" /><line stroke="#e1ed5e" stroke-width="0.3" x1="102.19456741930631" x2="102.32365962044197" y1="184.97166512339345" y2="189.96999836594603" /><path d="M 102.22038585953345 185.97133177190398 a86.0,86.0 0 0,1 -42.740103519485714,-10.115201625700543" fill="none" id="id19" stroke="none" /><text fill="#e1ed5e" style="font-size:6.75px; font-family:Arial;" text-anchor="middle"><textPath startOffset="22.20632615414155" xlink:href="#id19">July</textPath></text><path d="M 100.18074693466247 120.99922214144158 l 0.4653676371852713 54.06652350116349 a75.0685262471579,75.0685262471579 0 0,0 -1.2922291436954163,0.0 l 0.46536763718523405 -54.06652350116349" fill="red" stroke="none" /><path d="M 99.09653310690486 120.98055641714683 l -1.9178502191247648 44.536844713962786 a65.57811892104277,65.57811892104277 0 0,0 -1.1273563514997895,-0.05827144624942678 l 2.6841946390380436 -44.49723346095116" fill="red" stroke="none" /><path d="M 98.37488393609728 120.93702456842531 l -3.2013243157750337 41.24395010281034 a62.36800572251316,62.36800572251316 0 0,0 -1.069628173909103,-0.09229201960550931 l 3.9107968074256783 -41.18273383092617" fill="red" stroke="none" /><path d="M 96.22490169976321 120.6578951692458 l -7.028623892111511 38.46166748510588 a60.098611478562916,60.098611478562916 0 0,0 -1.0160453997220524,-0.1947275190651587 l 7.6896369064052585 -38.33498276769225" fill="red" stroke="none" /><path d="M 95.16358092515715 120.4354850818985 l -10.010600800842884 42.29813011667378 a64.46658417406297,64.46658417406297 0 0,0 -1.077656315149054,-0.2648617030157535 l 10.73721040073515 -42.119547155344" fill="red" stroke="none" /><path d="M 93.76903079525671 120.05430185196036 l -12.58326778071562 40.49910087284966 a63.40891179399028,63.40891179399028 0 0,0 -1.039539755318199,-0.33282780206939555 l 13.278528881124759 -40.276500224120554" fill="red" stroke="none" /><path d="M 93.08242187328487 119.8279376855182 l -16.113780512677092 46.18712359020333 a69.91732114443154,69.91732114443154 0 0,0 -1.132928417077127,-0.4062278227014783 l 16.906428490383945 -45.902908226461896" fill="red" stroke="none" /><path d="M 92.40401165467489 119.57807347666478 l -21.87670239034077 56.38551131911826 a81.48070761981836,81.48070761981836 0 0,0 -1.3032215427948841,-0.5185787473054942 l 22.844045009177513 -56.000585727406694" fill="red" stroke="none" /><path d="M 91.7346041902142 119.30500536409082 l -21.42254557278371 50.03539657537434 a75.42854369972595,75.42854369972595 0 0,0 -1.1891824456978188,-0.5213026373432694 l 22.280648693139273 -49.65922938473662" fill="red" stroke="none" /><path d="M 91.07499286063937 119.00905698771935 l -23.45460816333088 49.95514023009777 a76.18726917962258,76.18726917962258 0 0,0 -1.1823078992997422,-0.5675796403966022 l 24.311028730630866 -49.544006313201606" fill="red" stroke="none" /><line stroke="#e1ed5e" stroke-width="0.3" x1="58.666819895761336" x2="56.23545636021788" y1="174.27360380694188" y2="178.64263932499728" /><path d="M 58.180547188652646 175.14741091055294 a86.0,86.0 0 0,1 -31.652253787137756,-30.449443065178592" fill="none" id="id20" stroke="none" /><text fill="#e1ed5e" style="font-size:6.75px; font-family:Arial;" text-anchor="middle"><textPath startOffset="22.20632615414155" xlink:href="#id20">August</textPath></text><path d="M 89.1626897886671 117.98757091392108 l -21.255002286478096 35.27866725673033 a62.18688487381979,62.18688487381979 0 0,0 -0.9121359063119705,-0.5603083728639325 l 21.859117392722375 -34.907570417038016" fill="red" stroke="none" /><path d="M 87.95078237400918 117.19931262002967 l -26.551802911491816 37.90061505031613 a67.2758561135605,67.2758561135605 0 0,0 -0.9427355214186306,-0.6726167633516518 l 27.200265760759336 -37.437954025120256" fill="red" stroke="none" /><path d="M 87.36589467227662 116.77436683061367 l -25.79147069928234 34.24346872124309 a63.86974586925719,63.86974586925719 0 0,0 -0.8724950099196039,-0.6689919685105064 l 26.37709443769543 -33.79443741090522" fill="red" stroke="none" /><path d="M 86.79598089348748 116.32954008644616 l -25.680563255972817 31.75940475003483 a61.843005756439574,61.843005756439574 0 0,0 -0.8220109641526214,-0.6764590612760781 l 26.223444348670128 -31.31265056990157" fill="red" stroke="none" /><path d="M 86.24171649860922 115.8653595955263 l -39.769964575762536 45.86072012777124 a81.70301255288051,81.70301255288051 0 0,0 -1.0545822068108248,-0.930546183339867 l 40.55348913547995 -45.16935080265908" fill="red" stroke="none" /><path d="M 85.70375840098266 115.38237550388516 l -29.167516299796244 31.383471322280695 a63.84467620761411,63.84467620761411 0 0,0 -0.7985575526029247,-0.7550860094353575 l 29.703409686789985 -30.876750676099405" fill="red" stroke="none" /><path d="M 84.19399662182784 113.82643327865904 l -39.69230491362307 34.72117476086887 a73.73555770190379,73.73555770190379 0 0,0 -0.8274445944490325,-0.9625049986756301 l 40.284092017642884 -34.03279266303171" fill="red" stroke="none" /><path d="M 83.72743513129214 113.27417163493432 l -41.14384385703254 33.562652813843485 a74.096775337439,74.096775337439 0 0,0 -0.797712079918576,-0.9952684735379239 l 41.71547384900598 -32.8494565067273" fill="red" stroke="none" /><path d="M 82.44556493220864 111.52570212397912 l -45.241831874855386 29.704395255046673 a75.12184816560425,75.12184816560425 0 0,0 -0.7004044059501578,-1.0870431919765573 l 45.74644114418258 -28.921230463148667" fill="red" stroke="none" /><path d="M 82.05923443525364 110.91462005526583 l -37.831201038854246 23.01536041387482 a65.28212491539631,65.28212491539631 0 0,0 -0.575785619494683,-0.965049817400046 l 38.22176753404716 -22.360748502588663" fill="red" stroke="none" /><line stroke="#e1ed5e" stroke-width="0.3" x1="26.63291911575756" x2="22.317208475507996" y1="142.92168965132927" y2="145.44649492493687" /><path d="M 25.769776987707644 143.4266507060508 a86.0,86.0 0 0,1 -11.730757126820373,-40.83630448921669" fill="none" id="id21" stroke="none" /><text fill="#e1ed5e" style="font-size:6.75px; font-family:Arial;" text-anchor="middle"><textPath startOffset="21.46611528233685" xlink:href="#id21">September</textPath></text><path d="M 81.35079622478065 109.6543875284942 l -37.58681373268334 19.458078216660176 a63.324760772638726,63.324760772638726 0 0,0 -0.4927912686157646,-0.972323924098685 l 37.91618367108537 -18.808200080858807" fill="red" stroke="none" /><path d="M 80.32549172779594 107.34259656027581 l -42.275232879572336 15.77726747890064 a66.12335851998219,66.12335851998219 0 0,0 -0.3887919313367282,-1.0697884155484896 l 42.540549071914285 -15.047231266346033" fill="red" stroke="none" /><path d="M 79.4281124754447 104.21870165774334 l -41.58138174555295 8.527143845786462 a63.44671353634034,63.44671353634034 0 0,0 -0.21019010062842325,-1.0717547947461195 l 41.72200177915705 -7.810125323972388" fill="red" stroke="none" /><path d="M 79.1416061653843 102.43462659150553 l -43.86066956331295 5.119490661014575 a65.15843655713303,65.15843655713303 0 0,0 -0.12044288309226804,-1.1151515123271756 l 43.942294747906274 -4.363742826802618" fill="red" stroke="none" /><path d="M 79.07016306316243 101.71520430193888 l -42.476558464676536 3.4809624188682218 a63.61895257235514,63.61895257235514 0 0,0 -0.0800491267205742,-1.092206734774883 l 42.530184150061444 -2.7492825475965783" fill="red" stroke="none" /><line stroke="#e1ed5e" stroke-width="0.3" x1="15.007084014347285" x2="10.007500721073583" y1="101.09737516637583" y2="101.16192664675087" /><path d="M 14.007167355692545 101.11028546245083 a86.0,86.0 0 0,1 10.666146001902534,-42.60595125391555" fill="none" id="id22" stroke="none" /><text fill="#e1ed5e" style="font-size:6.75px; font-family:Arial;" text-anchor="middle"><textPath startOffset="22.20632615414155" xlink:href="#id22">October</textPath></text><path d="M 79.16333360222342 97.38593545837743 l -44.984015108248016 -5.643470821552942 a66.33663395282898,66.33663395282898 0 0,0 0.15189194140418852,-1.1317713902128272 l 44.88020716778599 6.416960553830428" fill="red" stroke="none" /><path d="M 79.3925641242962 95.95851677861259 l -45.26110393841552 -8.876504250790525 a67.1233114318384,67.1233114318384 0 0,0 0.23212105412843803,-1.1319046960447314 l 45.101603588372086 9.65428460299866" fill="red" stroke="none" /><path d="M 80.2630227832202 92.82701384747504 l -43.32012114806619 -15.743780099041954 a67.09229336982617,67.09229336982617 0 0,0 0.4038170489927953,-1.0820289260952305 l 43.04269951057177 16.487132162166528" fill="red" stroke="none" /><path d="M 80.803312248108 91.48605970444005 l -45.197126678440256 -20.04541840991156 a70.44288684143956,70.44288684143956 0 0,0 0.5011430514535178,-1.1042022848490662 l 44.845381310023384 20.820442703602698" fill="red" stroke="none" /><path d="M 81.26839172434947 90.50648371742162 l -50.23046329312833 -25.457703051299184 a77.31335620694651,77.31335620694651 0 0,0 0.6118452615393551,-1.1818902988587157 l 49.78480859842887 26.318566072418236" fill="red" stroke="none" /><line stroke="#e1ed5e" stroke-width="0.3" x1="26.266209847984243" x2="21.928928074336255" y1="57.711370442889674" y2="55.22380399835377" /><path d="M 25.398753493254645 57.213857153982495 a86.0,86.0 0 0,1 29.58750427330803,-30.492523968695096" fill="none" id="id23" stroke="none" /><text fill="#e1ed5e" style="font-size:6.75px; font-family:Arial;" text-anchor="middle"><textPath startOffset="21.46611528233685" xlink:href="#id23">November</textPath></text><path d="M 81.78341655067845 89.55222093294921 l -46.63475501158853 -26.746487263244898 a74.76034743111137,74.76034743111137 0 0,0 0.6498465788946035,-1.1107984541944087 l 46.1674487582236 27.545265129793197" fill="red" stroke="none" /><path d="M 82.7489923806493 88.02491185347247 l -51.75302285805211 -35.92526443958256 a84.0,84.0 0 0,0 0.834749520784487,-1.1806939986728553 l 51.12696071746375 36.810784938587204" fill="red" stroke="none" /><path d="M 84.80347519578584 85.50635884689758 l -33.9037116481889 -32.335565974323366 a67.8513659395685,67.8513659395685 0 0,0 0.8133625506450681,-0.8382416050264234 l 33.342084833840715 32.91437177489991" fill="red" stroke="none" /><path d="M 85.31137513191541 84.99185889309783 l -35.28769825324021 -36.055298537382775 a71.45003667621589,71.45003667621589 0 0,0 0.8863777046981357,-0.8526946496434624 l 34.66183730492964 36.65737627378855" fill="red" stroke="none" /><path d="M 85.83668400450813 84.49514656593479 l -29.966881042091916 -32.805318936723104 a65.4320032176247,65.4320032176247 0 0,0 0.8381185678631471,-0.7524711254889573 l 29.3977514866328 33.316289070981334" fill="red" stroke="none" /><path d="M 86.93701828274178 83.55741782278169 l -38.5105628818031 -48.4738560139304 a82.90943522866742,82.90943522866742 0 0,0 1.125070948108974,-0.8781357205787225 l 37.670459378534694 49.12957012373234" fill="red" stroke="none" /><path d="M 88.09926311788651 82.69761687909137 l -34.46385745641454 -50.10671788160465 a81.81480615477435,81.81480615477435 0 0,0 1.167206278667112,-0.7881028896526038 l 33.596246483340884 50.69253268355592" fill="red" stroke="none" /><line stroke="#e1ed5e" stroke-width="0.3" x1="56.762969772571076" x2="54.21961505331055" y1="26.818313649435495" y2="22.513508569990535" /><path d="M 56.25429882871897 25.957352633546506 a86.0,86.0 0 0,1 42.265352541879196,-11.944610805530505" fill="none" id="id24" stroke="none" /><text fill="#e1ed5e" style="font-size:6.75px; font-family:Arial;" text-anchor="middle"><textPath startOffset="22.20632615414155" xlink:href="#id24">December</textPath></text><path d="M 90.91171255644093 81.06846463323043 l -23.294461701494527 -48.5239852161853 a74.82572885918931,74.82572885918931 0 0,0 1.1659337541959254,-0.5474215310597922 l 22.455749735998992 48.917771729885104" fill="red" stroke="none" /><path d="M 91.56875222667455 80.76684994638697 l -18.658750677520125 -42.563872067556886 a67.47399468766599,67.47399468766599 0 0,0 1.0677478267372318,-0.4571538959236941 l 17.923319092992585 42.87874549144336" fill="red" stroke="none" /><path d="M 92.91201910852362 80.23233633223022 l -20.02645122365752 -55.851752185776554 a80.33360743149645,80.33360743149645 0 0,0 1.3056812330897685,-0.455526544501963 l 19.062087986504466 56.18819958345073" fill="red" stroke="none" /><path d="M 93.59665428221793 80.00007090966166 l -17.0343185773942 -53.204243322992085 a76.8646535563258,76.8646535563258 0 0,0 1.2635620347221892,-0.39259487489299677 l 16.11597116996128 53.48957833276761" fill="red" stroke="none" /><path d="M 94.98787191387505 79.60689891045804 l -13.144425042999783 -53.481392346667775 a76.07299916519214,76.07299916519214 0 0,0 1.2743180556206437,-0.3015899122003026 l 12.221883300416605 53.69972817100895" fill="red" stroke="none" /><path d="M 96.04723909329186 79.375362276772 l -10.27810769244236 -53.628907146191516 a75.60493731735505,75.60493731735505 0 0,0 1.2802611704172089,-0.23395954567028954 l 9.353451400922257 53.79788217321254" fill="red" stroke="none" /></svg>