<?xml version="1.0" encoding="utf-8" ?>
<svg baseProfile="full" height="200mm" version="1.1" viewBox="0,0,200,200" width="200mm" xmlns="http://www.w3.org/2000/svg" xmlns:ev="http://www.w3.org/2001/xml-events" xmlns:xlink="http://www.w3.org/1999/xlink"><defs /><rect fill="#1a1a1a" height="200" width="200" x="0" y="0" /><rect fill="#1a1a1a" height="200" width="180" x="10" y="0" /><text alignment-baseline="middle" fill="#e1ed5e" style="dominant-baseline: central; font-size:9.0px; font-family:Arial;" text-anchor="middle" x="100.0" y="100.0">2024</text><line stroke="#e1ed5e" stroke-width="0.3" x1="100.0" x2="100.0" y1="15.0" y2="10.0" /><path d="M 100.0 14.0 a86.0,86.0 0 0,1 42.35913384403234,11.155469271406648" fill="none" id="id37" stroke="none" /><text fill="#e1ed5e" style="font-size:6.75px; font-family:Arial;" text-anchor="middle"><textPath startOffset="22.145653131862478" xlink:href="#id37">January</textPath></text><path d="M 101.80034050326958 79.07731436759882 l 0.8785474687146625 -10.210053302514774 a31.247781910978482,31.247781910978482 0 0,0 0.5340401224333368,0.0505741548338588 l -1.0536871545330122 10.193467392175732" fill="#ff6809" stroke="none" /><line stroke="#e1ed5e" stroke-width="0.3" x1="143.13028292997686" x2="145.6673583964461" y1="26.7553504044142" y2="22.446841604673864" /><path d="M 143.63769802327073 25.89364864446614 a86.0,86.0 0 0,1 29.32050498858742,28.57503671076993" fill="none" id="id38" stroke="none" /><text fill="#e1ed5e" style="font-size:6.75px; font-family:Arial;" text-anchor="middle"><textPath startOffset="20.669276256404974" xlink:href="#id38">February</textPath></text><line stroke="#e1ed5e" stroke-width="0.3" x1="172.87174338648825" x2="177.1583165268699" y1="56.24261187166439" y2="53.66864786411523" /><path d="M 173.72905801456457 55.72781907015455 a86.0,86.0 0 0,1 12.242430191666344,42.057860355516425" fill="none" id="id39" stroke="none" /><text fill="#e1ed5e" style="font-size:6.75px; font-family:Arial;" text-anchor="middle"><textPath startOffset="22.145653131862474" xlink:href="#id39">March</textPath></text><path d="M 118.18653347947321 89.5 l 10.383635786311281 -5.994994916393851 a32.9899898327877,32.9899898327877 0 0,0 0.2789486420279586,0.4928755221207652 l -10.485017793360615 5.815862624173968" fill="#ff810b" stroke="none" /><path d="M 118.8641267826498 90.77261029715802 l 7.981616944885221 -3.904208811669017 a29.885328103114308,29.885328103114308 0 0,0 0.2214655683580069,0.46277786051500897 l -8.04746177120314 3.7666184490889045" fill="#ff5507" stroke="none" /><path d="M 119.0197475246899 91.09779779509293 l 7.972487772159077 -3.7315268318771433 a29.80254814097856,29.80254814097856 0 0,0 0.21289739085961862,0.4652192208900025 l -8.035369627873747 3.5941186287724562" fill="#ff5407" stroke="none" /><path d="M 119.4528033332814 92.08871423366111 l 6.844245518944093 -2.783495068945282 a28.388608903063485,28.388608903063485 0 0,0 0.17971520397341603,0.4529997126732618 l -6.891019397883634 2.665594339058455" fill="#ff3f05" stroke="none" /><path d="M 119.71291397450082 92.76114493625339 l 6.96355924045201 -2.557115408439861 a28.41822057554001,28.41822057554001 0 0,0 0.16423001984291663,0.45938059463106745 l -7.00642943033887 2.437199857427877" fill="#ff4006" stroke="none" /><path d="M 120.05942366710727 93.78553927170692 l 8.917142124322082 -2.7625534242579164 a30.335262454116567,30.335262454116567 0 0,0 0.14983262168556025,0.49874406717203035 l -8.963251066011269 2.609071753495163" fill="#ff5b08" stroke="none" /><path d="M 120.43855184770803 95.1765574152323 l 8.78235564593728 -2.072612019326571 a30.023607442391505,30.023607442391505 0 0,0 0.11407417955996443,0.5026318832398846 l -8.81664068705491 1.92154580214766" fill="#ff5708" stroke="none" /><path d="M 120.65975698304385 96.23510406497455 l 8.390400192748208 -1.5290104140547554 a29.528580669768978,29.528580669768978 0 0,0 0.08659633474966687,0.49946464675563107 l -8.41541134499011 1.3847527343785317" fill="#ff5007" stroke="none" /><path d="M 120.7213421655516 96.59031103205396 l 6.677362134929541 -1.0987573982683576 a27.767158406690378,27.767158406690378 0 0,0 0.07335621504588609,0.47099952279261165 l -6.6952398421136925 0.9839696935443046" fill="#ff3605" stroke="none" /><path d="M 120.96210409425399 98.7389718711861 l 8.435438108891455 -0.5074550095902247 a29.450687940972408,29.450687940972408 0 0,0 0.0260265694092824,0.5049084934861829 l -8.44290626775731 0.36257472272731117" fill="#ff4e07" stroke="none" /><path d="M 120.99303781780057 99.45929381324524 l 7.0918607240721405 -0.1826611756902299 a28.094212686037935,28.094212686037935 0 0,0 0.008279188423293827,0.4822212193382549 l -7.0939513440941 0.0608930403829086" fill="#ff3b05" stroke="none" /><line stroke="#e1ed5e" stroke-width="0.3" x1="184.99686870605535" x2="189.99668451229388" y1="99.2704041080226" y2="99.22748670261217" /><path d="M 185.99683186730306 99.26182062694052 a86.0,86.0 0 0,1 -10.086455211305974,41.156179273409016" fill="none" id="id40" stroke="none" /><text fill="#e1ed5e" style="font-size:6.75px; font-family:Arial;" text-anchor="middle"><textPath startOffset="21.40746469413373" xlink:href="#id40">April</textPath></text><path d="M 120.82617615685814 102.69636545807757 l 11.072441459551412 1.4335492249396429 a32.16485661598563,32.16485661598563 0 0,0 -0.07559581181972934,0.546973636316015 l -11.046201131176472 -1.623411169455743" fill="#ff750a" stroke="none" /><path d="M 120.77682067341334 103.0534771498775 l 14.075464368118721 2.068608546877563 a35.2266594286359,35.2266594286359 0 0,0 -0.09306297628829281,0.5975310666455239 l -14.037879899692161 -2.3099277954545374" fill="#ff9f0e" stroke="none" /><path d="M 120.51834098615036 104.47187691870673 l 7.210755964501586 1.571550701192016 a28.38002528356186,28.38002528356186 0 0,0 -0.10782941744510054,0.47511630912585545 l -7.182715685498821 -1.6951013442568885" fill="#ff3f05" stroke="none" /><path d="M 120.16314734710363 105.8691983318838 l 11.544635057584117 3.3604750119486213 a33.023784384241566,33.023784384241566 0 0,0 -0.1631118306542954,0.5429462350003089 l -11.485246906926193 -3.5581588505396535" fill="#ff810b" stroke="none" /><path d="M 119.71291397450082 107.23885506374661 l 9.87498449300543 3.6262310886192406 a31.519737194681547,31.519737194681547 0 0,0 -0.1908734964474378,0.506314626462384 l -9.81128031274355 -3.7952139952757835" fill="#ff6c09" stroke="none" /><path d="M 119.4528033332814 107.91128576633889 l 11.63091696715716 4.7301926758449495 a33.55599268268031,33.55599268268031 0 0,0 -0.22158804504812207,0.5317306418201129 l -11.548003077572552 -4.9291558271063405" fill="#ff880c" stroke="none" /><path d="M 119.0197475246899 108.90220220490707 l 8.96741870010598 4.197204743163904 a30.90106690205899,30.90106690205899 0 0,0 -0.2289927124347059,0.47850669663806694 l -8.894046729711363 -4.350523941867074" fill="#ff6309" stroke="none" /><line stroke="#e1ed5e" stroke-width="0.3" x1="174.33088141563837" x2="178.70328620479359" y1="141.23008692659167" y2="143.65538615756765" /><path d="M 175.20536237346943 141.71514677278685 a86.0,86.0 0 0,1 -30.301960400862466,31.631185727798858" fill="none" id="id41" stroke="none" /><text fill="#e1ed5e" style="font-size:6.75px; font-family:Arial;" text-anchor="middle"><textPath startOffset="22.145653131862474" xlink:href="#id41">May</textPath></text><path d="M 118.36410011445183 110.18625677009912 l 7.8708542440059475 4.365830170266536 a30.000601069150658,30.000601069150658 0 0,0 -0.2536717037707201,0.44821359420966855 l -7.794749175213849 -4.500300534575327" fill="#ff5608" stroke="none" /><path d="M 118.18653347947321 110.5 l 6.1628641559819535 3.5581312794352744 a28.116262558870552,28.116262558870552 0 0,0 -0.2449144569005514,0.41591829123166446 l -6.100875988951636 -3.6634007389604886" fill="#ff3b05" stroke="none" /><path d="M 117.423217284605 111.72311816256416 l 8.196366841392173 5.51488140311863 a30.878985083961652,30.878985083961652 0 0,0 -0.2996882893732391,0.4372541704885912 l -8.100488815203613 -5.654770308677265" fill="#ff6309" stroke="none" /><path d="M 116.1254893667686 113.45245675266167 l 9.13668601886661 7.622148434437365 a32.89857882958921,32.89857882958921 0 0,0 -0.3654960616110911,0.43055344155109054 l -9.004495393748407 -7.777868658438012" fill="#ff7f0b" stroke="none" /><path d="M 115.6541949942343 113.99807769240083 l 6.069815721312278 5.427666646338539 a29.14261801354242,29.14261801354242 0 0,0 -0.3366698158843924,0.37005910352799476 l -5.975748204586005 -5.5310633254242045" fill="#ff4a06" stroke="none" /><path d="M 115.16444852881244 114.52719865689866 l 9.59586866560407 9.192625114317702 a34.28853084204219,34.28853084204219 0 0,0 -0.4108308061431164,0.42154859932146727 l -9.436651058310147 -9.355996405706906" fill="#ff920d" stroke="none" /><path d="M 114.39649973595853 115.28858382429668 l 6.148864092573767 6.529880584008701 a29.969273664592738,29.969273664592738 0 0,0 -0.37757036128550475,0.34947348960766617 l -6.035863959974295 -6.634471819748747" fill="#ff5608" stroke="none" /><path d="M 113.86319453409587 115.77377054828091 l 6.681602572079084 7.602437202159094 a31.121307442419997,31.121307442419997 0 0,0 -0.404311013661959,0.3492342240083678 l -6.55011207865427 -7.716015558632179" fill="#ff6609" stroke="none" /><path d="M 113.31354834802062 116.24036423190432 l 7.576367322844483 9.24193623377539 a32.95051158569524,32.95051158569524 0 0,0 -0.4405157497182983,0.3548483054992953 l -7.416600802770932 -9.37063283306809" fill="#ff800b" stroke="none" /><path d="M 111.5731344415666 117.5232005979908 l 5.546922830848387 8.398748148766321 a31.065153916249507,31.065153916249507 0 0,0 -0.44750739980061427,0.2900688899197418 l -5.401929798790763 -8.492730880389956" fill="#ff6609" stroke="none" /><line stroke="#e1ed5e" stroke-width="0.3" x1="143.1302829299769" x2="145.66735839644613" y1="173.24464959558577" y2="177.55315839532614" /><path d="M 143.63769802327073 174.10635135553383 a86.0,86.0 0 0,1 -40.68552437913181,11.842963189579606" fill="none" id="id42" stroke="none" /><text fill="#e1ed5e" style="font-size:6.75px; font-family:Arial;" text-anchor="middle"><textPath startOffset="21.407464694133747" xlink:href="#id42">June</textPath></text><path d="M 110.34350942703117 118.27599006163325 l 4.531351231414533 8.006463440220552 a30.19981525912506,30.19981525912506 0 0,0 -0.45336510843102085,0.25147398327718373 l -4.393241934827417 -8.08307033893088" fill="#ff5908" stroke="none" /><path d="M 110.02825361518725 118.45085714620011 l 3.2650964528871924 6.007409717834641 a27.837384468098207,27.837384468098207 0 0,0 -0.42181747985707274,0.22459404905985314 l -3.161490157243566 -6.062574234617062" fill="#ff3705" stroke="none" /><path d="M 107.06938296918513 119.77432235084164 l 3.60957835790394 10.096633088197468 a31.722455672071227,31.722455672071227 0 0,0 -0.5143482406141863,0.1789170177415964 l -3.4357243452447324 -10.157108538507654" fill="#ff6f0a" stroke="none" /><path d="M 106.72888874123015 119.89276391827305 l 3.424726078299128 10.124594116546941 a31.688131489469946,31.688131489469946 0 0,0 -0.5167840248367759,0.16987717359886603 l -3.250419315814618 -10.181892211547826" fill="#ff6e0a" stroke="none" /><path d="M 105.69591212413111 120.21278271476187 l 2.1027180906968224 7.46180470334017 a28.752415933096803,28.752415933096803 0 0,0 -0.4762202395044134,0.12979594393427019 l -1.9743164502577137 -7.496801141418582" fill="#ff4406" stroke="none" /><line stroke="#e1ed5e" stroke-width="0.3" x1="101.45913802915013" x2="101.54496967792366" y1="184.9874750549273" y2="189.98673829345242" /><path d="M 101.47630435890484 185.9873277026323 a86.0,86.0 0 0,1 -42.54439059252881,-10.42667462771756" fill="none" id="id43" stroke="none" /><text fill="#e1ed5e" style="font-size:6.75px; font-family:Arial;" text-anchor="middle"><textPath startOffset="22.145653131862474" xlink:href="#id43">July</textPath></text><line stroke="#e1ed5e" stroke-width="0.3" x1="58.13341422392154" x2="55.67067388415222" y1="173.97424548756322" y2="178.32567169271397" /><path d="M 57.64086615596768 174.84453072859336 a86.0,86.0 0 0,1 -31.369924170532247,-30.572349798747897" fill="none" id="id44" stroke="none" /><text fill="#e1ed5e" style="font-size:6.75px; font-family:Arial;" text-anchor="middle"><textPath startOffset="22.145653131862474" xlink:href="#id44">August</textPath></text><path d="M 88.4268655584334 117.5232005979908 l -1.729588993905511 2.6188181814796847 a24.138421060897922,24.138421060897922 0 0,0 -0.3438043494662849,-0.23132690982153134 l 1.7742896314688015 -2.5887415976010324" fill="#ff0000" stroke="none" /><path d="M 86.40962598614128 116.0094264158162 l -3.899013021249832 4.593027535103515 a27.024799123464184,27.024799123464184 0 0,0 -0.35109141696036356,-0.3032644039241221 l 3.9772839179730584 -4.52541899871467" fill="#ff2b04" stroke="none" /><line stroke="#e1ed5e" stroke-width="0.3" x1="26.387840678322732" x2="22.057713659400548" y1="142.50000000000003" y2="145.00000000000006" /><path d="M 25.521815274538298 143.00000000000003 a86.0,86.0 0 0,1 -11.493303480769221,-40.785679425670985" fill="none" id="id45" stroke="none" /><text fill="#e1ed5e" style="font-size:6.75px; font-family:Arial;" text-anchor="middle"><textPath startOffset="21.40746469413373" xlink:href="#id45">September</textPath></text><path d="M 81.81346652052679 110.50000000000001 l -5.26197000923497 3.0379998012995513 a27.075999602599097,27.075999602599097 0 0,0 -0.22894257800552476,-0.4045195984816353 l 5.313345952261873 -2.9472234327187943" fill="#ff2c04" stroke="none" /><path d="M 80.68587082218212 108.24405325689762 l -5.604917195994496 2.3924058619918793 a27.094153147275502,27.094153147275502 0 0,0 -0.17891708598559775,-0.4293358738872609 l 5.645160126516579 -2.295837478663337" fill="#ff2c04" stroke="none" /><path d="M 80.05021161711548 106.5578916946017 l -7.173284766676788 2.358001182346418 a28.55090616547341,28.55090616547341 0 0,0 -0.14905651010802878,-0.4669173949235684 l 7.212705992562071 -2.234514753731458" fill="#ff4106" stroke="none" /><path d="M 79.56144815229197 104.8234425847677 l -8.429362717864947 1.9893066494514113 a29.660917779016444,29.660917779016444 0 0,0 -0.11269614642841033,-0.49656001499808067 l 8.462269725851025 -1.8443123005143045" fill="#ff5107" stroke="none" /><path d="M 79.2786578344484 103.40968896794605 l -15.110209015302765 2.4863791433591835 a36.31340908258734,36.31340908258734 0 0,0 -0.09593398815593472,-0.6159650223607349 l 15.150664495596967 -2.2266259390669982" fill="#ffae10" stroke="none" /><path d="M 79.03789590574601 101.26102812881392 l -11.202785653221676 0.6739317659269689 a32.223038377246816,32.223038377246816 0 0,0 -0.028476589293407652,-0.5524382247101405 l 11.212703831971655 -0.48152174784009766" fill="#ff760a" stroke="none" /><line stroke="#e1ed5e" stroke-width="0.3" x1="15.003131293944662" x2="10.003315487706104" y1="100.72959589197737" y2="100.7725132973878" /><path d="M 14.003168132696942 100.73817937305945 a86.0,86.0 0 0,1 10.791469493833604,-42.45332614584628" fill="none" id="id46" stroke="none" /><text fill="#e1ed5e" style="font-size:6.75px; font-family:Arial;" text-anchor="middle"><textPath startOffset="22.145653131862435" xlink:href="#id46">October</textPath></text><path d="M 79.0935383218832 98.0201363427161 l -14.79353952524773 -1.4009635738260071 a35.859727811109266,35.859727811109266 0 0,0 0.06329687220078885,-0.6123398202490212 l 14.767310260565278 1.6547079163579412" fill="#ffa80f" stroke="none" /><path d="M 79.13060592940154 97.66154086499901 l -13.03479063962714 -1.46057547914171 a34.11636564560402,34.11636564560402 0 0,0 0.07021134036215856,-0.5814506183311301 l 13.007797213005313 1.6841197743962764" fill="#ff900d" stroke="none" /><path d="M 79.22317932658666 96.9465228501225 l -23.443752230611057 -3.4454242479535186 a44.695579058099995,44.695579058099995 0 0,0 0.1180782873409279,-0.7581473083767813 l 23.38115245113186 3.84735973826175" fill="#e4ff1a" stroke="none" /><path d="M 79.34024301695615 96.23510406497455 l -29.109284982262732 -5.304681405070022 a50.58868224486995,50.58868224486995 0 0,0 0.16302493790809758,-0.8530153629168168 l 29.013933752072475 5.803599333020154" fill="#9eff22" stroke="none" /><path d="M 79.48165901384962 95.52812308129327 l -14.49818445075524 -3.159811821640321 a35.838522942540436,35.838522942540436 0 0,0 0.13616785088720357,-0.5999806756636363 l 14.441805738310373 3.4082268312429655" fill="#ffa80f" stroke="none" /><path d="M 79.73907114497095 94.47779374421319 l -16.48139479403578 -4.492077440621666 a38.082597404651665,38.082597404651665 0 0,0 0.17732256190206896,-0.6292552160288478 l 16.401853740059128 4.7743405805535275" fill="#ffc612" stroke="none" /><path d="M 80.28708602549916 92.7611449362534 l -39.89295437533196 -14.649245421616888 a63.49762581856874,63.49762581856874 0 0,0 0.38452141213115254,-1.0199887295698316 l 39.63560227938637 15.331902431380863" fill="#33ff4f" stroke="none" /><path d="M 80.5471966667186 92.08871423366112 l -22.406850032419822 -9.112670841980407 a45.188999529737316,45.188999529737316 0 0,0 0.29840696885846624,-0.7160680940176474 l 22.247117219024876 9.495971445439316" fill="#deff1b" stroke="none" /><path d="M 80.9802524753101 91.09779779509293 l -8.692681509754388 -4.068613865785378 a30.59772528357042,30.59772528357042 0 0,0 0.22674479587467644,-0.47380941559352785 l 8.621557455919808 4.217235783443993" fill="#ff5f08" stroke="none" /><path d="M 81.1358732173502 90.77261029715801 l -24.052934771148205 -11.765495704500697 a47.77630594906128,47.77630594906128 0 0,0 0.36669472091866523,-0.7336350808926482 l 23.847420137017796 12.176662641557115" fill="#bfff1e" stroke="none" /><line stroke="#e1ed5e" stroke-width="0.3" x1="26.387840678322718" x2="22.05771365940052" y1="57.49999999999999" y2="54.99999999999999" /><path d="M 25.521815274538284 56.99999999999999 a86.0,86.0 0 0,1 29.574782752854787,-30.34633250058573" fill="none" id="id47" stroke="none" /><text fill="#e1ed5e" style="font-size:6.75px; font-family:Arial;" text-anchor="middle"><textPath startOffset="21.40746469413373" xlink:href="#id47">November</textPath></text><path d="M 82.18462484594161 88.88188828441811 l -53.44612546217515 -33.35433514674566 a84.0,84.0 0 0,0 0.7739292334964403,-1.2167453012853122 l 52.865678537052815 34.266894122709644" fill="#4dd2ff" stroke="none" /><path d="M 83.64595745247003 86.82634096563983 l -11.63224040546507 -9.370109467548666 a35.93679913115187,35.93679913115187 0 0,0 0.3911176070384382,-0.4770998857535584 l 11.469675979188002 9.568411635000716" fill="#ffa90f" stroke="none" /><path d="M 85.08716467003674 85.21462403516908 l -5.752022409618048 -5.702860120332669 a29.099899712516752,29.099899712516752 0 0,0 0.3547528309434125,-0.3517207736846491 l 5.653277658544659 5.800760904245992" fill="#ff4906" stroke="none" /><line stroke="#e1ed5e" stroke-width="0.3" x1="56.869717070023135" x2="54.33264160355391" y1="26.7553504044142" y2="22.446841604673864" /><path d="M 56.362301976729285 25.89364864446614 a86.0,86.0 0 0,1 42.16139366436587,-11.88097634709845" fill="none" id="id48" stroke="none" /><text fill="#e1ed5e" style="font-size:6.75px; font-family:Arial;" text-anchor="middle"><textPath startOffset="22.145653131862474" xlink:href="#id48">December</textPath></text><path d="M 89.34428304082924 81.90426304109057 l -4.617174326343387 -7.840971416853575 a30.0994028111607,30.0994028111607 0 0,0 0.4474885843118205,-0.25835765461171273 l 4.481893274171167 7.919075968741462" fill="#ff5808" stroke="none" /><path d="M 91.26138138417902 80.90454125486306 l -2.529097226910593 -5.526533870179014 a27.077738839519405,27.077738839519405 0 0,0 0.4243295682410327,-0.1897972186200022 l 2.4338542558139418 5.569134839708862" fill="#ff2c04" stroke="none" /><path d="M 93.95794788825049 79.88797359093562 l -1.2053689317749139 -4.012281148879943 a25.189428872692023,25.189428872692023 0 0,0 0.41519374276702725,-0.1208568474210415 l 1.1363151766262622 4.032381690603505" fill="#ff1001" stroke="none" /></svg>