<?xml version="1.0" encoding="utf-8" ?>
<svg baseProfile="full" height="200mm" version="1.1" viewBox="0,0,200,200" width="200mm" xmlns="http://www.w3.org/2000/svg" xmlns:ev="http://www.w3.org/2001/xml-events" xmlns:xlink="http://www.w3.org/1999/xlink"><defs /><rect fill="#1a1a1a" height="200" width="200" x="0" y="0" /><rect fill="#1a1a1a" height="200" width="180" x="10" y="0" /><text alignment-baseline="middle" fill="#e1ed5e" style="dominant-baseline: central; font-size:9.0px; font-family:Arial;" text-anchor="middle" x="100.0" y="100.0">2025</text><line stroke="#e1ed5e" stroke-width="0.3" x1="100.0" x2="100.0" y1="15.0" y2="10.0" /><path d="M 100.0 14.0 a86.0,86.0 0 0,1 42.46469731375804,11.215312516191453" fill="none" id="id49" stroke="none" /><text fill="#e1ed5e" style="font-size:6.75px; font-family:Arial;" text-anchor="middle"><textPath startOffset="22.20632615414155" xlink:href="#id49">January</textPath></text><path d="M 104.307194497241 79.44645832069477 l 3.414366645820997 -16.293048110147776 a37.64696117349004,37.64696117349004 0 0,0 0.6331094405679831,0.13837320191915603 l -3.694318810542508 16.23186141013275" fill="red" stroke="none" /><path d="M 105.71112130821622 79.79150937346287 l 2.1984123898271912 -7.778962094391557 a29.083642019642284,29.083642019642284 0 0,0 0.4805861088117074,0.14029626370095127 l -2.3319887163623254 7.739967501771902" fill="red" stroke="none" /><path d="M 106.40334571778207 80.00007090966166 l 7.296919442615168 -22.79087806003439 a44.93050680824316,44.93050680824316 0 0,0 0.7345435615535185,0.24216746346524165 l -7.688145826411104 22.66189687230991" fill="red" stroke="none" /><path d="M 108.09893153111575 80.62456947434976 l 6.188283716861676 -14.804503627226978 a37.045815124478786,37.045815124478786 0 0,0 0.5862345748457854,0.25099505061495353 l -6.442202049497777 14.695789048649235" fill="red" stroke="none" /><path d="M 108.43124777332544 80.76684994638697 l 5.648947340795288 -12.886236387715808 a35.070028226665684,35.070028226665684 0 0,0 0.5507963054775761,0.24712624694085272 l -5.869925764739644 12.787089810258424" fill="red" stroke="none" /><path d="M 109.08828744355905 81.06846463323043 l 8.794718104741062 -18.320009999097486 a41.321659206592656,41.321659206592656 0 0,0 0.6385745574924876,0.3133457620627092 l -9.108763929243981 18.165909076899943" fill="red" stroke="none" /><line stroke="#e1ed5e" stroke-width="0.3" x1="143.23703022742887" x2="145.7803849466894" y1="26.81831364943548" y2="22.513508569990506" /><path d="M 143.74570117128098 25.957352633546492 a86.0,86.0 0 0,1 28.547481713284135,27.462654790039103" fill="none" id="id50" stroke="none" /><text fill="#e1ed5e" style="font-size:6.75px; font-family:Arial;" text-anchor="middle"><textPath startOffset="19.985693538727396" xlink:href="#id50">February</textPath></text><path d="M 113.06298171725822 83.55741782278167 l 19.836745334940655 -24.968825828439797 a52.8894767710957,52.8894767710957 0 0,0 0.7079548653360616,0.5724502661409763 l -20.263603598841208 24.623669465034695" fill="red" stroke="none" /><path d="M 113.34407831869373 83.78471172551755 l 25.075076688913715 -30.470414464360957 a60.46144483650898,60.46144483650898 0 0,0 0.7979254162381216,0.6682395889929129 l -25.595859642110952 30.034273717974223" fill="red" stroke="none" /><path d="M 113.6212207817346 84.01681056812373 l 11.059251295608249 -12.976965226895011 a38.050180811928506,38.050180811928506 0 0,0 0.4948447782071227,0.42912451537979934 l -11.280989872462136 12.78467571809554" fill="red" stroke="none" /><path d="M 114.16331599549186 84.49514656593476 l 26.59050083520755 -29.109130822154256 a60.42583203799844,60.42583203799844 0 0,0 0.7619182827999406,0.708120007008356 l -27.087627001802336 28.64710622907126" fill="red" stroke="none" /><path d="M 114.68862486808459 84.99185889309783 l 12.24670498103596 -12.513103037259143 a38.508841495472936,38.508841495472936 0 0,0 0.4697422175319634,0.46772499516629595 l -12.460282998735245 12.300442191442729" fill="red" stroke="none" /><path d="M 114.94478906791727 85.2469230424477 l 22.489600524814037 -22.201103393253113 a52.601758236585994,52.601758236585994 0 0,0 0.6305591590570487,0.6498466411231946 l -22.868423947574197 21.810692556579806" fill="red" stroke="none" /><path d="M 116.15771136456269 86.58626213691792 l 24.414800707662764 -20.26857203243787 a52.731648331421624,52.731648331421624 0 0,0 0.5737743409060171,0.7033794981090367 l -24.760073540645188 19.845308364720733" fill="red" stroke="none" /><path d="M 116.60985879189232 87.15038557335679 l 25.732301974173772 -19.906861510435075 a53.53359033500159,53.53359033500159 0 0,0 0.557575438688129,0.7337039190553056 l -26.071153353086014 19.460972815498735" fill="red" stroke="none" /><path d="M 117.45458315368197 88.32363383020206 l 20.384241072257897 -13.636181440569652 a45.52473707039613,45.52473707039613 0 0,0 0.4301076671053522,0.6550834849923646 l -20.615945374721175 13.283279891599614" fill="red" stroke="none" /><path d="M 117.65298651832404 88.62581576622439 l 13.532588851889734 -8.719326817678047 a37.098373246628675,37.098373246628675 0 0,0 0.3412562826388567,0.5397854862611311 l -13.680672730774546 8.48509368370271" fill="red" stroke="none" /><line stroke="#e1ed5e" stroke-width="0.3" x1="172.23445277983987" x2="176.4835382374775" y1="55.19839476539836" y2="52.563006222186495" /><path d="M 173.08426987136738 54.67131705675599 a86.0,86.0 0 0,1 12.851231095245387,41.99856678651699" fill="none" id="id51" stroke="none" /><text fill="#e1ed5e" style="font-size:6.75px; font-family:Arial;" text-anchor="middle"><textPath startOffset="22.20632615414155" xlink:href="#id51">March</textPath></text><path d="M 118.03404312379186 89.2402003453031 l 27.38760260617424 -16.340490872849184 a52.89188640515624,52.89188640515624 0 0,0 0.4597572458226519,0.7858741656118031 l -27.66481952646722 15.866637294883486" fill="red" stroke="none" /><path d="M 118.3937258080291 89.86733742301442 l 27.888414236784126 -15.363058806997278 a52.84002551113488,52.84002551113488 0 0,0 0.432009734159598,0.8004484264900011 l -28.14873207016219 14.880729397174818" fill="red" stroke="none" /><path d="M 118.89224826269711 90.83032412892265 l 24.809898819756402 -12.041908798149159 a48.577865163016014,48.577865163016014 0 0,0 0.35864761686598257,0.7554033476654313 l -25.01350463046414 11.613063034843186" fill="red" stroke="none" /><path d="M 119.47837535516314 92.15188598940014 l 22.834690007497386 -9.20042084146621 a45.61850546638822,45.61850546638822 0 0,0 0.28719336511492527,0.7308757885396865 l -22.989676922494013 8.805996048030739" fill="red" stroke="none" /><path d="M 119.7369772167798 92.82701384747503 l 30.227565286049096 -10.985568095860135 a53.16190929517619,53.16190929517619 0 0,0 0.3051668754191352,0.8627478510232889 l -30.41218524227804 10.463622618410232" fill="red" stroke="none" /><path d="M 120.18372546131832 94.20196356495316 l 22.89370925444652 -6.576514362774143 a44.819581536855445,44.819581536855445 0 0,0 0.20662516335462774,0.7433406492752092 l -23.00352118836751 6.181462410079982" fill="red" stroke="none" /><path d="M 120.28053869075195 94.5502522615342 l 30.55946786978669 -8.211882014161294 a52.6435788541535,52.6435788541535 0 0,0 0.22763000302057645,0.8771512577604411 l -30.696294204677567 7.684634330852003" fill="red" stroke="none" /><path d="M 120.45610955862082 95.25157060432595 l 30.88328733463069 -7.168866054151875 a52.70441731203606,52.70441731203606 0 0,0 0.19753016534496287,0.8854889994683397 l -31.00211188697769 6.636198885133572" fill="red" stroke="none" /><path d="M 120.53481517161879 95.60439243477599 l 23.429497628937938 -5.015232723861871 a44.960257060785125,44.960257060785125 0 0,0 0.15547835826652132,0.7581676919226126 l -23.512355283119454 4.611189375775846" fill="red" stroke="none" /><path d="M 120.67395015179393 96.31383870115 l 31.20517301815364 -5.563876291607229 a52.697311281577385,52.697311281577385 0 0,0 0.15153773958018135,0.8943843170618241 l -31.296322619254045 5.025906186229567" fill="red" stroke="none" /><path d="M 120.73433829027371 96.67025291283417 l 31.567145168307437 -5.069397836709311 a52.97160378373016,52.97160378373016 0 0,0 0.13682844382551637,0.901528486205719 l -31.649729505572253 4.52527023811151" fill="red" stroke="none" /><path d="M 120.83666639777658 97.38593545837742 l 27.954439629673338 -3.5070249732776655 a49.173567739500875,49.173567739500875 0 0,0 0.09813556502459952,0.8407655907511813 l -28.010665547701525 3.025315644201631" fill="red" stroke="none" /><path d="M 120.96714384426684 98.82574320788733 l 23.8172422785067 -1.333875454027412 a44.85456462566324,44.85456462566324 0 0,0 0.036538083571549806,0.7712611954089466 l -23.836673970311747 0.9237031519954656" fill="red" stroke="none" /><path d="M 120.98425023603335 99.18683210126433 l 16.337459277024895 -0.6330985039515599 a37.349721384297425,37.349721384297425 0 0,0 0.019365484687083705,0.6426461581669308 l -16.345936456167625 0.35178219835963" fill="red" stroke="none" /><line stroke="#e1ed5e" stroke-width="0.3" x1="184.98032266829074" x2="189.97916517819016" y1="98.17113171792111" y2="98.06355123074" /><path d="M 185.9800911702706 98.14961562048488 a86.0,86.0 0 0,1 -9.607161424134198,41.387399972396054" fill="none" id="id52" stroke="none" /><text fill="#e1ed5e" style="font-size:6.75px; font-family:Arial;" text-anchor="middle"><textPath startOffset="21.466115282336823" xlink:href="#id52">April</textPath></text><path d="M 120.99980553446 99.90962569577887 l 39.5044995352402 -0.17001070096781237 a60.504865360715215,60.504865360715215 0 0,0 -0.004482265859043805,1.0415207309743213 l -39.50157297209165 -0.5100195082101935" fill="red" stroke="none" /><path d="M 120.95626037817324 101.35467743843564 l 24.894936505189285 1.6092856361907608 a45.946896878294424,45.946896878294424 0 0,0 -0.05781310162949234,0.7888138390113251 l -24.863546844895456 -2.037572611698856" fill="red" stroke="none" /><path d="M 120.92983693683757 101.71520430193887 l 31.711512917423093 2.5987647940640173 a52.817819377932835,52.817819377932835 0 0,0 -0.08205727052236059,0.9054951424921801 l -31.66208105062366 -3.1442413251047676" fill="red" stroke="none" /><path d="M 120.81339534386255 102.79330883721812 l 31.520829021420205 4.230324212235639 a52.803432285497635,52.803432285497635 0 0,0 -0.12865417726038655,0.8998070161114844 l -31.443340793143218 -4.772276700327533" fill="red" stroke="none" /><path d="M 120.5718875245553 104.21870165774334 l 31.039232047231618 6.365252558202813 a52.68517581159362,52.68517581159362 0 0,0 -0.18983211775028339,0.8868324557632318 l -30.92506589075689 -6.898598833382214" fill="red" stroke="none" /><path d="M 120.13307415673323 105.97154293290107 l 24.350321693445796 7.222393872409892 a46.398841308660536,46.398841308660536 0 0,0 -0.23370262843775233,0.76375371167816 l -24.22239229250191 -7.640474556640109" fill="red" stroke="none" /><path d="M 119.79798401119884 107.00284435728193 l 37.40676066411556 13.231333184869811 a60.67787697485162,60.67787697485162 0 0,0 -0.35677360476684483,0.9816877321522282 l -37.17346279834349 -13.87326871402817" fill="red" stroke="none" /><path d="M 119.12269723197855 108.67885076344098 l 21.638693744301175 9.82073770474915 a44.762995518771206,44.762995518771206 0 0,0 -0.3244792449638981,0.6988994266234624 l -21.466439882497443 -10.191757198651443" fill="red" stroke="none" /><path d="M 118.81262510543309 109.33194174019688 l 21.410651127571438 10.620684132193444 a44.90010278518487,44.90010278518487 0 0,0 -0.34941116780419795,0.6894213827237613 l -21.22466128998097 -10.987659726619901" fill="red" stroke="none" /><line stroke="#e1ed5e" stroke-width="0.3" x1="174.80103733775053" x2="179.2010983576182" y1="140.37084112569926" y2="142.7455964860345" /><path d="M 175.68104954172406 140.8457921977663 a86.0,86.0 0 0,1 -30.038265399797805,32.042727171017184" fill="none" id="id53" stroke="none" /><text fill="#e1ed5e" style="font-size:6.75px; font-family:Arial;" text-anchor="middle"><textPath startOffset="22.206326154141568" xlink:href="#id53">May</textPath></text><path d="M 118.48025628344425 109.97397251340804 l 22.02825851791158 11.888863531223096 a46.031764807859446,46.031764807859446 0 0,0 -0.38233455700335656,0.694048277540319 l -21.820347551456713 -12.266282327161221" fill="red" stroke="none" /><path d="M 117.94076556474637 110.91462005526583 l 13.660980073373501 8.310927788746072 a36.990431428665694,36.990431428665694 0 0,0 -0.33561834195706325,0.5411236304413042 l -13.515897091748476 -8.54484775055265" fill="red" stroke="none" /><path d="M 117.35343817320211 111.8261652097733 l 19.85559540325593 13.53135610555444 a45.02794762090852,45.02794762090852 0 0,0 -0.4420009654726157,0.6367353567530472 l -19.61973353062118 -13.871132724494508" fill="red" stroke="none" /><path d="M 116.71984013943494 112.70617746262583 l 19.005408634661254 14.443086348186126 a44.87065773353589,44.87065773353589 0 0,0 -0.47262302845711884,0.6109289745062035 l -18.753978788986064 -14.768093316805581" fill="red" stroke="none" /><path d="M 116.27256486870786 113.27417163493432 l 24.538865701497414 20.017318577396768 a52.66779078093576,52.66779078093576 0 0,0 -0.5791049318137155,0.6975691961144963 l -24.190664769790157 -20.436749030625034" fill="red" stroke="none" /><path d="M 115.80600337817218 113.82643327865902 l 18.084436361732415 15.819511533380657 a45.02714680681652,45.02714680681652 0 0,0 -0.5153274409811158,0.5789758428909773 l -17.80945007110296 -16.128461546012502" fill="red" stroke="none" /><path d="M 114.81725581225074 114.88116024355365 l 23.440851645908758 23.54194825331492 a54.221933318927434,54.221933318927434 0 0,0 -0.6670590026295911,0.6528576313823793 l -23.032142690903374 -23.94195598761987" fill="red" stroke="none" /><path d="M 114.29624159901734 115.38237550388516 l 10.896244704032641 11.724069326806204 a37.00568493473233,37.00568493473233 0 0,0 -0.47032542768415925,0.4296311268812217 l -10.692819726881618 -11.909893220274009" fill="red" stroke="none" /><path d="M 113.75828350139079 115.86535959552629 l 16.09408775493471 18.558891417536493 a45.56526228867604,45.56526228867604 0 0,0 -0.5969798440207963,0.5087591742756514 l -15.772242434336867 -18.833174982035093" fill="red" stroke="none" /><path d="M 112.92097659922987 116.55440617244103 l 10.314331796860046 13.214762572414358 a37.7635136609543,37.7635136609543 0 0,0 -0.5158698657367277,0.3955470152273599 l -10.085333202629824 -13.39034892946909" fill="red" stroke="none" /><path d="M 112.63410532772338 116.77436683061366 l 15.121345180996714 20.076688016980317 a46.13420939305658,46.13420939305658 0 0,0 -0.6384426013085375,0.47230457344111726 l -14.773517609269613 -20.334002539161204" fill="red" stroke="none" /><path d="M 112.34349029814194 116.9893568818739 l 10.113420333098315 13.91992890060207 a38.20597836310807,38.20597836310807 0 0,0 -0.5353797783361672,0.381979256628102 l -9.872313226913263 -14.09195241907439" fill="red" stroke="none" /><line stroke="#e1ed5e" stroke-width="0.3" x1="143.8653032363475" x2="146.44561519142675" y1="172.8068346515853" y2="177.08958963109032" /><path d="M 144.38136562736335 173.6633856474863 a86.0,86.0 0 0,1 -40.68145358897372,12.25698825130547" fill="none" id="id54" stroke="none" /><text fill="#e1ed5e" style="font-size:6.75px; font-family:Arial;" text-anchor="middle"><textPath startOffset="21.466115282336833" xlink:href="#id54">June</textPath></text><path d="M 110.21172684928248 118.3499491758327 l 9.540153646457632 17.143166589344577 a40.61893708405323,40.61893708405323 0 0,0 -0.6138820969819564,0.33473746561795903 l -9.243648737607028 -17.304844706722307" fill="red" stroke="none" /><path d="M 109.89434966115114 118.52300852407294 l 11.317400670857076 21.18707305440477 a45.02031687046199,45.02031687046199 0 0,0 -0.6866865268928031,0.3592419360607755 l -10.951023241437778 -21.378744409410263" fill="red" stroke="none" /><path d="M 109.57404056367764 118.69057910512821 l 7.671383943574025 14.976185602048856 a37.82665346397616,37.82665346397616 0 0,0 -0.5820731072534413,0.2918635396163659 l -7.412456928637823 -15.106016982574525" fill="red" stroke="none" /><path d="M 107.2578585660854 119.70592522655815 l 6.522949795853942 17.71056293854183 a39.87360362091147,39.87360362091147 0 0,0 -0.6461051123523596,0.23167030597073132 l -6.217125122871847 -17.82022078555252" fill="red" stroke="none" /><path d="M 106.91757812671514 119.82793768551818 l 7.916237976673234 22.690408468107073 a45.031676182756556,45.031676182756556 0 0,0 -0.7340812254251128,0.2490402079445847 l -7.524487018310894 -22.82331166294978" fill="red" stroke="none" /><path d="M 105.53697534728816 120.25689768951611 l 6.329095049452179 23.15484950583499 a45.004260034062014,45.004260034062014 0 0,0 -0.749019952195297,0.19782297711118602 l -5.929584654445384 -23.26036383224976" fill="red" stroke="none" /><path d="M 105.18746579009965 120.34920634021253 l 4.316843352175457 16.933959599202595 a38.475529297696454,38.475529297696454 0 0,0 -0.6431765798915564,0.1580771549289012 l -4.02471348754069 -17.005758012445526" fill="red" stroke="none" /><path d="M 101.26447882468166 120.96189622390904 l 0.9511001473444286 15.766861570179065 a36.795522000347695,36.795522000347695 0 0,0 -0.6325534510038013,0.032695788133911406 l -0.6795586279271477 -15.78089716507518" fill="red" stroke="none" /><line stroke="#e1ed5e" stroke-width="0.3" x1="102.19456741930631" x2="102.32365962044197" y1="184.97166512339345" y2="189.96999836594603" /><path d="M 102.22038585953345 185.97133177190398 a86.0,86.0 0 0,1 -42.740103519485714,-10.115201625700543" fill="none" id="id55" stroke="none" /><text fill="#e1ed5e" style="font-size:6.75px; font-family:Arial;" text-anchor="middle"><textPath startOffset="22.20632615414155" xlink:href="#id55">July</textPath></text><path d="M 96.22490169976321 120.6578951692458 l -2.5234088352274564 13.80846564551913 a35.037140578949334,35.037140578949334 0 0,0 -0.5923485523014878,-0.11352500985001372 l 2.760725002100639 -13.762983437320647" fill="red" stroke="none" /><line stroke="#e1ed5e" stroke-width="0.3" x1="58.666819895761336" x2="56.23545636021788" y1="174.27360380694188" y2="178.64263932499728" /><path d="M 58.180547188652646 175.14741091055294 a86.0,86.0 0 0,1 -31.652253787137756,-30.449443065178592" fill="none" id="id56" stroke="none" /><text fill="#e1ed5e" style="font-size:6.75px; font-family:Arial;" text-anchor="middle"><textPath startOffset="22.20632615414155" xlink:href="#id56">August</textPath></text><path d="M 87.36589467227662 116.77436683061367 l -9.56931512909915 12.705229070792893 a36.905805159793914,36.905805159793914 0 0,0 -0.5041531072457961,-0.38656310444472536 l 9.786596964838433 -12.5386266245208" fill="red" stroke="none" /><path d="M 83.72743513129214 113.27417163493432 l -13.894152809564034 11.334007306421828 a38.93062196125777,38.93062196125777 0 0,0 -0.41911982371447815,-0.5229164227027506 l 14.087190545333371 -11.093163050140816" fill="red" stroke="none" /><path d="M 83.06392112726016 112.41649034213515 l -12.865073623004596 9.431879928712942 a36.952130839326344,36.952130839326344 0 0,0 -0.3716684165736299,-0.5162149235824275 l 13.025521831953833 -9.209031399679375" fill="red" stroke="none" /><path d="M 82.6465618267979 111.8261652097733 l -13.292218331019182 9.058491373182664 a37.08537640583854,37.08537640583854 0 0,0 -0.3549545472498912,-0.5306088872731853 l 13.446175983679804 -8.828345571703657" fill="red" stroke="none" /><path d="M 82.05923443525364 110.91462005526583 l -13.735175654834318 8.356066140200578 a37.07727873766453,37.07727873766453 0 0,0 -0.32702005234679954,-0.5481044178915042 l 13.87697658287935 -8.118399628422964" fill="red" stroke="none" /><line stroke="#e1ed5e" stroke-width="0.3" x1="26.63291911575756" x2="22.317208475507996" y1="142.92168965132927" y2="145.44649492493687" /><path d="M 25.769776987707644 143.4266507060508 a86.0,86.0 0 0,1 -11.730757126820373,-40.83630448921669" fill="none" id="id57" stroke="none" /><text fill="#e1ed5e" style="font-size:6.75px; font-family:Arial;" text-anchor="middle"><textPath startOffset="21.46611528233685" xlink:href="#id57">September</textPath></text><path d="M 81.35079622478065 109.6543875284942 l -14.70503047411631 7.612553572076873 a37.55865009994564,37.55865009994564 0 0,0 -0.29228021716025154,-0.5766965970885715 l 14.833889361062829 -7.358302763285617" fill="red" stroke="none" /><path d="M 81.02952815118164 109.00673069616217 l -13.940195298816409 6.618474538163155 a36.43156667942232,36.43156667942232 0 0,0 -0.26408615223335546,-0.5688180777036149 l 14.052056067889591 -6.377536393180713" fill="red" stroke="none" /><path d="M 80.87730276802145 108.67885076344099 l -14.654407162992548 6.650913898360871 a37.09305145030541,37.09305145030541 0 0,0 -0.2588722564077898,-0.583688597919783 l 14.766720504131618 -6.397676963948392" fill="red" stroke="none" /><path d="M 80.32549172779594 107.34259656027581 l -22.485428528392962 8.391642011310614 a45.00029482634456,45.00029482634456 0 0,0 -0.2645926027936034,-0.728045204886895 l 22.62654539219179 -8.003349009417601" fill="red" stroke="none" /><path d="M 79.97269907076064 106.31721596034903 l -15.234065707306442 4.805284714461879 a36.97396378991674,36.97396378991674 0 0,0 -0.18623121349052196,-0.6086143809529275 l 15.314523693303094 -4.542343360956904" fill="red" stroke="none" /><path d="M 79.86692584326677 105.97154293290107 l -15.974948365240984 4.738227717797922 a37.662826206193955,37.662826206193955 0 0,0 -0.17900130338367407,-0.6231270198434137 l 16.054142305510762 -4.462543222449912" fill="red" stroke="none" /><path d="M 79.35854240842038 103.8639653848113 l -17.282768656410898 3.2352376059583725 a38.58297059083095,38.58297059083095 0 0,0 -0.11658222614812752,-0.6538550368708855 l 17.335897324898216 -2.937263818354273" fill="red" stroke="none" /><path d="M 79.10278846688536 102.07522291339032 l -15.853029368984114 1.5743042913181455 a36.931006690587246,36.931006690587246 0 0,0 -0.05737566681783051,-0.6331357022975634 l 15.87777963207902 -1.3011872004720157" fill="red" stroke="none" /><line stroke="#e1ed5e" stroke-width="0.3" x1="15.007084014347285" x2="10.007500721073583" y1="101.09737516637583" y2="101.16192664675087" /><path d="M 14.007167355692545 101.11028546245083 a86.0,86.0 0 0,1 10.666146001902534,-42.60595125391555" fill="none" id="id58" stroke="none" /><text fill="#e1ed5e" style="font-size:6.75px; font-family:Arial;" text-anchor="middle"><textPath startOffset="22.20632615414155" xlink:href="#id58">October</textPath></text><path d="M 79.00019446554 99.90962569577889 l -25.863233321178733 -0.11130444577091299 a46.86347282376012,46.86347282376012 0 0,0 0.01041483305274377,-0.8066402974837006 l 25.857485481008272 0.5564810013150855" fill="red" stroke="none" /><path d="M 79.03285615573316 98.82574320788736 l -16.20537247664726 -0.9075756259773846 a37.23076679099742,37.23076679099742 0 0,0 0.04134283228659907,-0.6395553167029668 l 16.187349053356247 1.1863900069333633" fill="red" stroke="none" /><path d="M 79.05617556472873 98.46500227214037 l -17.35071490468773 -1.2716544696862082 a38.39725302437215,38.39725302437215 0 0,0 0.05398565311704593,-0.6587617086729917 l 17.326254767751188 1.5701300955669784" fill="red" stroke="none" /><path d="M 79.12142395522702 97.74499172005258 l -17.433435298558592 -1.8829129372555713 a38.53482327935794,38.53482327935794 0 0,0 0.07690384955747502,-0.6588652186189692 l 17.398441095997526 2.182721894199402" fill="red" stroke="none" /><path d="M 79.32604984820605 96.31383870115002 l -16.170618783725253 -2.883218190107336 a37.425646379376786,37.425646379376786 0 0,0 0.11853998933951217,-0.6332453630345746 l 16.118593070475878 3.1611416306044835" fill="red" stroke="none" /><path d="M 79.46518482838121 95.60439243477599 l -16.140101265704512 -3.4548911511541776 a37.505730572547215,37.505730572547215 0 0,0 0.14056721503089278,-0.630135262522484 l 16.07823966367158 3.732204583226621" fill="red" stroke="none" /><path d="M 80.02781315780177 93.51064311812611 l -16.909216963232115 -5.494137639229682 a38.77940287828748,38.77940287828748 0 0,0 0.21174053713996005,-0.6330772552042125 l 16.812139132320382 5.784387997356217" fill="red" stroke="none" /><path d="M 81.26839172434947 90.50648371742162 l -16.672139662222595 -8.44974051451192 a39.69113040132244,39.69113040132244 0 0,0 0.314109117138648,-0.6067588353879324 l 16.524221111923833 8.735472072160189" fill="red" stroke="none" /><line stroke="#e1ed5e" stroke-width="0.3" x1="26.266209847984243" x2="21.928928074336255" y1="57.711370442889674" y2="55.22380399835377" /><path d="M 25.398753493254645 57.213857153982495 a86.0,86.0 0 0,1 29.58750427330803,-30.492523968695096" fill="none" id="id59" stroke="none" /><text fill="#e1ed5e" style="font-size:6.75px; font-family:Arial;" text-anchor="middle"><textPath startOffset="21.46611528233685" xlink:href="#id59">November</textPath></text><path d="M 81.96595687620814 89.24020034530311 l -33.89566981690013 -20.22345260505939 a60.47029854973734,60.47029854973734 0 0,0 0.5410197033529303,-0.8892941407594476 l 33.54253431526099 20.803914519025913" fill="red" stroke="none" /><path d="M 83.17141714833178 87.43820079747576 l -18.7196929378672 -13.973429960864948 a44.35987261436229,44.35987261436229 0 0,0 0.4620272109216521,-0.6079736513519902 l 18.476389786721438 14.293588388097964" fill="red" stroke="none" /><path d="M 84.80347519578584 85.50635884689758 l -34.4972565842005 -32.9016577236954 a68.6715826546945,68.6715826546945 0 0,0 0.8231948296310326,-0.848374632803183 l 33.925797490866344 33.49059655204871" fill="red" stroke="none" /><path d="M 85.31137513191541 84.99185889309783 l -44.06587460425377 -45.02442332070654 a84.0,84.0 0 0,0 1.0420670255502897,-1.0024676529507457 l 43.28432433509105 45.776274060419595" fill="red" stroke="none" /><line stroke="#e1ed5e" stroke-width="0.3" x1="56.762969772571076" x2="54.21961505331055" y1="26.818313649435495" y2="22.513508569990535" /><path d="M 56.25429882871897 25.957352633546506 a86.0,86.0 0 0,1 42.265352541879196,-11.944610805530505" fill="none" id="id60" stroke="none" /><text fill="#e1ed5e" style="font-size:6.75px; font-family:Arial;" text-anchor="middle"><textPath startOffset="22.20632615414155" xlink:href="#id60">December</textPath></text></svg>