<?xml version="1.0" encoding="utf-8" ?>
<svg baseProfile="full" height="200mm" version="1.1" viewBox="0,0,200,200" width="200mm" xmlns="http://www.w3.org/2000/svg" xmlns:ev="http://www.w3.org/2001/xml-events" xmlns:xlink="http://www.w3.org/1999/xlink"><defs /><rect fill="#1a1a1a" height="200" width="200" x="0" y="0" /><rect fill="#1a1a1a" height="200" width="180" x="10" y="0" /><text alignment-baseline="middle" fill="#e1ed5e" style="dominant-baseline: central; font-size:9.0px; font-family:Arial;" text-anchor="middle" x="100.0" y="100.0">2023</text><line stroke="#e1ed5e" stroke-width="0.3" x1="100.0" x2="100.0" y1="15.0" y2="10.0" /><path d="M 100.0 14.0 a86.0,86.0 0 0,1 42.46469731375804,11.215312516191453" fill="none" id="id25" stroke="none" /><text fill="#e1ed5e" style="font-size:6.75px; font-family:Arial;" text-anchor="middle"><textPath startOffset="22.20632615414155" xlink:href="#id25">January</textPath></text><path d="M 100.0 79.0 l 0.0 -38.74015947787025 a59.74015947787025,59.74015947787025 0 0,0 1.0283286418989437,0.008851149275762948 l -0.6668481626264152 38.734419705203045" fill="red" stroke="none" /><path d="M 101.08401301168833 79.027996857942 l 1.9706445143177502 -38.12533844200181 a59.176234375839,59.176234375839 0 0,0 1.0168110080745083,0.06133681679747033 l -2.6266175712318702 38.08576835582404" fill="red" stroke="none" /><path d="M 102.16513564639614 79.11191278185805 l 4.37160233387012 -42.174914530138 a63.40087643657786,63.40087643657786 0 0,0 1.0845574210802118,0.1218626631662246 l -5.096926458460057 42.09341591350117" fill="red" stroke="none" /><path d="M 103.59715602781102 79.31037775812273 l 8.882353130395318 -51.088284596502746 a72.85469139958605,72.85469139958605 0 0,0 1.2336897005826346,0.22544890723536135 l -9.760437952080855 50.927820207916646" fill="red" stroke="none" /><path d="M 106.74666289553966 80.11325718540242 l 16.811736776526097 -49.5549712084353 a73.32905182508136,73.32905182508136 0 0,0 1.1918345244227198,0.41580766328674623 l -17.66225330501209 49.25824269197634" fill="red" stroke="none" /><path d="M 108.76106565485865 80.91482961587045 l 18.475746920029952 -40.24770408463712 a65.28578675306008,65.28578675306008 0 0,0 1.0172824722880633,0.47762776100797394 l -19.165807603617612 39.92371134098914" fill="red" stroke="none" /><path d="M 109.08828744355905 81.06846463323043 l 20.364005779322877 -42.41964154573186 a68.05442296159497,68.05442296159497 0 0,0 1.0516959837172664,0.5160626517445526 l -21.091173030050573 42.06282373385247" fill="red" stroke="none" /><path d="M 110.36928655335952 81.73862282372117 l 27.789393271124663 -48.93997184980268 a77.2794031865718,77.2794031865718 0 0,0 1.151107134756618,0.6667955512754747 l -28.627697138346612 48.454372141137156" fill="red" stroke="none" /><line stroke="#e1ed5e" stroke-width="0.3" x1="143.23703022742887" x2="145.7803849466894" y1="26.81831364943548" y2="22.513508569990506" /><path d="M 143.74570117128098 25.957352633546492 a86.0,86.0 0 0,1 28.547481713284135,27.462654790039103" fill="none" id="id26" stroke="none" /><text fill="#e1ed5e" style="font-size:6.75px; font-family:Arial;" text-anchor="middle"><textPath startOffset="19.985693538727396" xlink:href="#id26">February</textPath></text><path d="M 111.60114157652 82.49532879139004 l 19.89528991096167 -30.01950335613666 a57.01379100275773,57.01379100275773 0 0,0 0.8133840065958455,0.5492005121214832 l -20.409078611964055 29.672590931716506" fill="red" stroke="none" /><path d="M 112.19680574252982 82.90503203632743 l 27.450320900648567 -38.47420105682409 a68.26292695664867,68.26292695664867 0 0,0 0.9506577479938627,0.6906932834953401 l -28.108523964996216 37.99598853851207" fill="red" stroke="none" /><path d="M 113.6212207817346 84.01681056812373 l 30.58286832723815 -35.886047636776354 a68.14997614114102,68.14997614114102 0 0,0 0.8862943383914609,0.7685857165636372 l -31.196056464276374 35.35429692679305" fill="red" stroke="none" /><path d="M 114.42810811169701 84.74124197986012 l 32.51524523396898 -34.38720136761464 a68.32568848439524,68.32568848439524 0 0,0 0.847618416281095,0.8154082448952223 l -33.102346893862496 33.82241003595711" fill="red" stroke="none" /><path d="M 114.94478906791727 85.2469230424477 l 35.90298911777419 -35.442424717641224 a71.44987708068948,71.44987708068948 0 0,0 0.8564994007252247,0.8826979208701964 l -36.50775278220252 34.81916260122092" fill="red" stroke="none" /><path d="M 115.4437574822437 85.77008943001954 l 33.55188368234238 -30.914776070723153 a66.62293587809086,66.62293587809086 0 0,0 0.7698323367451823,0.8500680939263812 l -34.079059659703596 30.33265518952722" fill="red" stroke="none" /><path d="M 116.15771136456269 86.58626213691792 l 37.24809832634133 -30.92246269132257 a69.41094429801001,69.41094429801001 0 0,0 0.7552621637378893,0.9258621095391871 l -37.77485898215563 30.27671641217528" fill="red" stroke="none" /><path d="M 117.04232023915458 87.72973835380427 l 36.55397907713031 -26.318416811313455 a66.04278465886969,66.04278465886969 0 0,0 0.6562997957769443,0.928289517885349 l -37.001591492711135 25.68530079309631" fill="red" stroke="none" /><line stroke="#e1ed5e" stroke-width="0.3" x1="172.23445277983987" x2="176.4835382374775" y1="55.19839476539836" y2="52.563006222186495" /><path d="M 173.08426987136738 54.67131705675599 a86.0,86.0 0 0,1 12.851231095245387,41.99856678651699" fill="none" id="id27" stroke="none" /><text fill="#e1ed5e" style="font-size:6.75px; font-family:Arial;" text-anchor="middle"><textPath startOffset="22.20632615414155" xlink:href="#id27">March</textPath></text><path d="M 117.84615892207809 88.93136811851018 l 42.263774809189684 -26.213044909421342 a70.73278983271737,70.73278983271737 0 0,0 0.6328368453670666,1.0402173805387436 l -42.70872745284298 25.481659755675516" fill="red" stroke="none" /><path d="M 118.3937258080291 89.86733742301442 l 51.97108697873194 -28.629625863227233 a80.33506011473563,80.33506011473563 0 0,0 0.6568037700237073,1.2169576346489293 l -52.456198847974115 27.730787245245843" fill="red" stroke="none" /><path d="M 118.89224826269711 90.83032412892265 l 46.28250265962918 -22.464004388987775 a72.4461033084824,72.4461033084824 0 0,0 0.5348654621939921,1.126563071079708 l -46.66232631566493 21.663998902267526" fill="red" stroke="none" /><path d="M 119.196687751892 91.48605970444005 l 42.11605416887289 -18.67892916281933 a67.07238232851714,67.07238232851714 0 0,0 0.4589964025519772,1.0594269806182648 l -42.43134128126755 17.951203037614462" fill="red" stroke="none" /><path d="M 119.7369772167798 92.82701384747503 l 44.63812198469895 -16.222779575321738 a68.49463666005184,68.49463666005184 0 0,0 0.3931817824009869,1.1115778452758232 l -44.910756847909745 15.452004103619302" fill="red" stroke="none" /><path d="M 120.28053869075195 94.5502522615342 l 47.574645242880926 -12.784168077297252 a70.26237736259344,70.26237736259344 0 0,0 0.30381340933507106,1.1707169994574753 l -47.787654984086295 11.963354652290926" fill="red" stroke="none" /><path d="M 120.6074358757038 95.95851677861258 l 49.647173223670784 -9.736690133746594 a71.59293373448284,71.59293373448284 0 0,0 0.22675962669135907,1.2113589930777042 l -49.807418574272006 8.880653063206328" fill="red" stroke="none" /><line stroke="#e1ed5e" stroke-width="0.3" x1="184.98032266829074" x2="189.97916517819016" y1="98.17113171792111" y2="98.06355123074" /><path d="M 185.9800911702706 98.14961562048488 a86.0,86.0 0 0,1 -9.607161424134198,41.387399972396054" fill="none" id="id28" stroke="none" /><text fill="#e1ed5e" style="font-size:6.75px; font-family:Arial;" text-anchor="middle"><textPath startOffset="21.466115282336823" xlink:href="#id28">April</textPath></text><path d="M 120.99980553446 99.90962569577887 l 45.732715493792654 -0.19681431507126035 a66.7331389947246,66.7331389947246 0 0,0 -0.004943663105431677,1.1487332017290015 l -45.72932753339772 -0.5904283648614258" fill="red" stroke="none" /><path d="M 120.8583938346157 102.4346265915055 l 56.54417391236251 6.599930488093892 a77.92804832311721,77.92804832311721 0 0,0 -0.1669830743751887,1.3310193988826708 l -56.42218932874047 -7.5722676412639585" fill="red" stroke="none" /><path d="M 120.70491114924044 103.5080841355445 l 48.46476634100668 8.21150483130635 a70.15549194223308,70.15549194223308 0 0,0 -0.2119816930085271,1.1889059102536925 l -48.31623820565897 -9.044529492293261" fill="red" stroke="none" /><path d="M 120.41448212921028 104.9243191809786 l 44.57026809155846 10.751104273694851 a66.84861002099468,66.84861002099468 0 0,0 -0.2794548388069118,1.116283167111576 l -44.37860193845649 -11.516715280203822" fill="red" stroke="none" /><path d="M 120.23288151984713 105.62410040840565 l 15.435387176181745 4.290548888763478 a37.02061131934438,37.02061131934438 0 0,0 -0.17594902841182777,0.6125016502455553 l -15.359245510883817 -4.5556080145136155" fill="red" stroke="none" /><path d="M 120.13307415673323 105.97154293290107 l 49.75923315221631 14.758769314785448 a72.90185503027493,72.90185503027493 0 0,0 -0.36719354746867644,1.2000097588041037 l -49.4978128322415 -15.61310604614161" fill="red" stroke="none" /><path d="M 119.79798401119884 107.00284435728193 l 48.72982953851487 17.23647274500628 a72.68841533208443,72.68841533208443 0 0,0 -0.4273931333089587,1.1760023448194763 l -48.42591214420069 -18.07272288683189" fill="red" stroke="none" /><line stroke="#e1ed5e" stroke-width="0.3" x1="174.80103733775053" x2="179.2010983576182" y1="140.37084112569926" y2="142.7455964860345" /><path d="M 175.68104954172406 140.8457921977663 a86.0,86.0 0 0,1 -30.038265399797805,32.042727171017184" fill="none" id="id29" stroke="none" /><text fill="#e1ed5e" style="font-size:6.75px; font-family:Arial;" text-anchor="middle"><textPath startOffset="22.206326154141568" xlink:href="#id29">May</textPath></text><path d="M 118.30583269289576 110.29060199501025 l 41.85275289296471 23.527475075425453 a69.01244638783085,69.01244638783085 0 0,0 -0.5910357487377287,1.0305206464757506 l -41.4415651480746 -24.244415567759518" fill="red" stroke="none" /><path d="M 117.94076556474637 110.91462005526583 l 50.847844214163594 30.934293089336638 a80.51834801273327,80.51834801273327 0 0,0 -0.7305520215212618,1.1778824715199665 l -50.307827552974366 -31.80497189222188" fill="red" stroke="none" /><path d="M 116.93607887273984 112.41649034213515 l 38.103929680554465 27.935455333614794 a68.24721284686565,68.24721284686565 0 0,0 -0.7027471836950795,0.9414446938630189 l -37.61742123016429 -28.58721290698713" fill="red" stroke="none" /><path d="M 116.71984013943494 112.70617746262583 l 35.14727666920824 26.71003615839961 a65.14472889083004,65.14472889083004 0 0,0 -0.6861699964204165,0.8869672170197364 l -34.68229985556975 -27.311081369532598" fill="red" stroke="none" /><path d="M 115.80600337817218 113.82643327865902 l 17.051256478655613 14.915728813838681 a43.65445460718206,43.65445460718206 0 0,0 -0.49961723039354927,0.5613252547530473 l -16.791980398613727 -15.207028238332594" fill="red" stroke="none" /><path d="M 115.32070863581623 114.36230785411682 l 33.9261951770959 31.803911361724367 a67.50242463677378,67.50242463677378 0 0,0 -0.8019720339481067,0.8408644713526506 l -33.373716591768826 -32.38318294965953" fill="red" stroke="none" /><path d="M 114.81725581225074 114.88116024355365 l 32.36855462520586 32.50815497372052 a66.87486750193798,66.87486750193798 0 0,0 -0.8227202478089585,0.8052049221396026 l -31.804184425021106 -33.06050999878269" fill="red" stroke="none" /><path d="M 112.04921762599082 117.19931262002967 l 20.681960130328733 29.521875105750908 a57.04559036265133,57.04559036265133 0 0,0 -0.8090779215304237,0.5564911719949974 l -20.170725324175425 -29.873507067111" fill="red" stroke="none" /><path d="M 111.45004920935366 117.60387380957326 l 24.69830478432403 37.972399313222034 a66.29800623451487,66.29800623451487 0 0,0 -0.9620099517934638,0.6140002671601098 l -24.041013030483636 -38.391914009205955" fill="red" stroke="none" /><line stroke="#e1ed5e" stroke-width="0.3" x1="143.8653032363475" x2="146.44561519142675" y1="172.8068346515853" y2="177.08958963109032" /><path d="M 144.38136562736335 173.6633856474863 a86.0,86.0 0 0,1 -40.68145358897372,12.25698825130547" fill="none" id="id30" stroke="none" /><text fill="#e1ed5e" style="font-size:6.75px; font-family:Arial;" text-anchor="middle"><textPath startOffset="21.466115282336833" xlink:href="#id30">June</textPath></text><path d="M 110.8373102113329 117.98757091392108 l 31.072630342569195 51.57378822510202 a81.21099557633659,81.21099557633659 0 0,0 -1.20359385948228,0.7111044672391792 l -30.180268612058534 -52.101011264634955" fill="red" stroke="none" /><path d="M 109.89434966115114 118.52300852407294 l 21.449205025098532 40.1546156261739 a66.52429628554934,66.52429628554934 0 0,0 -1.0146827287278242,0.5308340468030154 l -20.754831393844213 -40.517879091921635" fill="red" stroke="none" /><path d="M 108.59647513512805 119.15986991738527 l 18.856044380519325 42.026452913344286 a67.06270893203806,67.06270893203806 0 0,0 -1.057289353754409,0.4634845818159675 l -18.129834352107164 -42.34480204845471" fill="red" stroke="none" /><path d="M 107.93186726928326 119.44442032107085 l 17.929643250743762 43.95327200247209 a68.46959265490108,68.46959265490108 0 0,0 -1.0951187192752339,0.43577033907421786 l -17.170403455426662 -44.255389185952374" fill="red" stroke="none" /><path d="M 107.2578585660854 119.70592522655815 l 14.947659206587227 40.58462313022914 a64.24978786513296,64.24978786513296 0 0,0 -1.0410926687711322,0.3732987907183716 l -14.24684697718636 -40.83590946198747" fill="red" stroke="none" /><path d="M 106.57524785965236 119.94407469862006 l 13.697868796738124 41.54844415378217 a64.74819791914415,64.74819791914415 0 0,0 -1.061496308923263,0.3398575971686271 l -12.980651142723922 -41.778074597610505" fill="red" stroke="none" /><path d="M 104.83641907484287 120.43548508189849 l 10.984777982441404 46.41435390820463 a68.69651555448888,68.69651555448888 0 0,0 -1.1530541685655795,0.2624313747434528 l -10.184203664482963 -46.596562016525766" fill="red" stroke="none" /><path d="M 102.70371172650421 120.8252237178851 l 6.103277502625337 47.01023343522117 a68.40476815583047,68.40476815583047 0 0,0 -1.168980734459798,0.14154728727983643 l -5.293169345114159 -47.10832625122635" fill="red" stroke="none" /><path d="M 101.62511606390274 120.93702456842531 l 3.4244716059179834 44.118846487059926 a65.25154936415784,65.25154936415784 0 0,0 -1.1205780294089156,0.07728162169352122 l -2.6645308157301377 -44.17125645326973" fill="red" stroke="none" /><line stroke="#e1ed5e" stroke-width="0.3" x1="102.19456741930631" x2="102.32365962044197" y1="184.97166512339345" y2="189.96999836594603" /><path d="M 102.22038585953345 185.97133177190398 a86.0,86.0 0 0,1 -42.740103519485714,-10.115201625700543" fill="none" id="id31" stroke="none" /><text fill="#e1ed5e" style="font-size:6.75px; font-family:Arial;" text-anchor="middle"><textPath startOffset="22.20632615414155" xlink:href="#id31">July</textPath></text><path d="M 99.81925306533755 120.99922214144158 l -0.3472672650719916 40.34559399481023 a61.34708848662389,61.34708848662389 0 0,0 -1.0558719374660608,-0.018177792950734285 l 1.0416988924307204 -40.33363872458034" fill="red" stroke="none" /><path d="M 98.73552117531835 120.96189622390904 l -2.7044433045426595 44.832905689457846 a65.9144013223744,65.9144013223744 0 0,0 -1.1319613198957499,-0.07806668005263875 l 3.4757673852173396 -44.779710664888924" fill="red" stroke="none" /><path d="M 97.2962882734958 120.8252237178851 l -6.153043514491914 47.39355400912312 a68.79130575854673,68.79130575854673 0 0,0 -1.1729618936695376,-0.1625618304094739 l 6.967933999348283 -47.28061761322105" fill="red" stroke="none" /><path d="M 96.58105272829116 120.7198165907248 l -6.806621226056113 41.25010776663045 a62.807911730599784,62.807911730599784 0 0,0 -1.0651953505974197,-0.18519786545170996 l 7.5156655481255825 -41.12683132265773" fill="red" stroke="none" /><path d="M 95.86986931433489 120.58985236759428 l -8.599094857706092 42.8688840838932 a64.72282761864903,64.72282761864903 0 0,0 -1.0904518596148542,-0.22851478944713652 l 9.335738178750333 -42.71451331371952" fill="red" stroke="none" /><path d="M 95.16358092515715 120.4354850818985 l -12.141639315200472 51.30247922190939 a73.71967165655403,73.71967165655403 0 0,0 -1.232335646897254,-0.3028781194300168 l 13.022928246840937 -51.08587984416534" fill="red" stroke="none" /><path d="M 92.7421414339146 119.70592522655815 l -5.521048194322541 14.990284241406052 a36.97468606271118,36.97468606271118 0 0,0 -0.5953448778972559,-0.22510849118454782 l 5.77826329298008 -14.89302750011487" fill="red" stroke="none" /><path d="M 90.7491055286396 118.85261126421891 l -18.584511745248175 37.873805236149366 a63.187784960519586,63.187784960519586 0 0,0 -0.9723278948654257,-0.4875453916815104 l 19.23369354779636 -37.54829200355855" fill="red" stroke="none" /><line stroke="#e1ed5e" stroke-width="0.3" x1="58.666819895761336" x2="56.23545636021788" y1="174.27360380694188" y2="178.64263932499728" /><path d="M 58.180547188652646 175.14741091055294 a86.0,86.0 0 0,1 -31.652253787137756,-30.449443065178592" fill="none" id="id32" stroke="none" /><text fill="#e1ed5e" style="font-size:6.75px; font-family:Arial;" text-anchor="middle"><textPath startOffset="22.20632615414155" xlink:href="#id32">August</textPath></text><path d="M 89.4739219176387 118.17145234162733 l -22.529369403709207 38.89305771847183 a65.94710696386554,65.94710696386554 0 0,0 -0.9773742142801372,-0.5774499134101148 l 23.19551148901773 -38.499489232767964" fill="red" stroke="none" /><path d="M 88.54995079064634 117.60387380957326 l -24.118059061369447 37.080300746772835 a65.23380467876154,65.23380467876154 0 0,0 -0.9360283736745862,-0.6203485660043376 l 24.752762133783996 -36.659654159677174" fill="red" stroke="none" /><path d="M 88.24862548938628 117.40417183066458 l -29.045776140829 43.01774898361272 a72.90552802197723,72.90552802197723 0 0,0 -1.03401950448947,-0.7112080438810836 l 29.781952529941357 -42.51140015036653" fill="red" stroke="none" /><path d="M 87.07902340077011 116.55440617244103 l -29.50141894213361 37.7973342866772 a68.94759846726532,68.94759846726532 0 0,0 -0.929290530537696,-0.7382846002895146 l 30.147666965388666 -37.28391577238256" fill="red" stroke="none" /><path d="M 86.51685102203217 116.09983520530335 l -30.539257530708095 36.46603729886432 a68.56488333643924,68.56488333643924 0 0,0 -0.8983126904914726,-0.7655615633144658 l 31.162435697776626 -35.93495134532691" fill="red" stroke="none" /><path d="M 84.67929136418377 114.36230785411682 l -34.759858752321556 32.58542435820313 a68.64512211219028,68.64512211219028 0 0,0 -0.8007080588072771,-0.8690104560730615 l 35.31561321912456 -31.98226264732872" fill="red" stroke="none" /><path d="M 83.06392112726016 112.41649034213515 l -36.49406552832328 26.7552020501643 a66.25105143011231,66.25105143011231 0 0,0 -0.6663600399239348,-0.9255158139582507 l 36.94920536062283 -26.12305263075491" fill="red" stroke="none" /><line stroke="#e1ed5e" stroke-width="0.3" x1="26.63291911575756" x2="22.317208475507996" y1="142.92168965132927" y2="145.44649492493687" /><path d="M 25.769776987707644 143.4266507060508 a86.0,86.0 0 0,1 -11.730757126820373,-40.83630448921669" fill="none" id="id33" stroke="none" /><text fill="#e1ed5e" style="font-size:6.75px; font-family:Arial;" text-anchor="middle"><textPath startOffset="21.46611528233685" xlink:href="#id33">September</textPath></text><path d="M 81.69416730710424 110.29060199501025 l -41.724087789710445 23.455146141230063 a68.86484495315872,68.86484495315872 0 0,0 -0.5719835009187882,-1.038316198006332 l 42.12164770008075 -22.73345942482591" fill="red" stroke="none" /><path d="M 80.58989483394504 108.01547362559985 l -47.6842333388252 19.691377837185918 a72.59008112261839,72.59008112261839 0 0,0 -0.46698715192904233,-1.159023813750285 l 48.01612310501164 -18.867654655592826" fill="red" stroke="none" /><path d="M 80.20201598880116 107.00284435728193 l -43.7916524049195 15.48976530975956 a67.45042141579259,67.45042141579259 0 0,0 -0.3777518102495445,-1.0979235822880087 l 44.051795046112275 -14.733669024382255" fill="red" stroke="none" /><path d="M 79.76711848015287 105.62410040840567 l -46.35732418913667 12.885868265920022 a69.11493642252228,69.11493642252228 0 0,0 -0.30875262568155915,-1.1489833789570814 l 46.57226489116 -12.085993953787403" fill="red" stroke="none" /><path d="M 79.23777060512086 103.15116336523772 l -57.2652542477258 8.691367764723989 a78.92106022577937,78.92106022577937 0 0,0 -0.19228909243943543,-1.3448694646620312 l 57.406377391181834 -7.704352828081556" fill="red" stroke="none" /><line stroke="#e1ed5e" stroke-width="0.3" x1="15.007084014347285" x2="10.007500721073583" y1="101.09737516637583" y2="101.16192664675087" /><path d="M 14.007167355692545 101.11028546245083 a86.0,86.0 0 0,1 10.666146001902534,-42.60595125391555" fill="none" id="id34" stroke="none" /><text fill="#e1ed5e" style="font-size:6.75px; font-family:Arial;" text-anchor="middle"><textPath startOffset="22.20632615414155" xlink:href="#id34">October</textPath></text><path d="M 79.00019446554 99.90962569577889 l -50.342829492375984 -0.21665430093769517 a71.34329568457508,71.34329568457508 0 0,0 0.015855173959934608,-1.2280006962116519 l 50.331641311298334 1.083191255209819" fill="red" stroke="none" /><path d="M 79.12142395522702 97.74499172005258 l -52.386812790995954 -5.658082062225999 a73.69147983328747,73.69147983328747 0 0,0 0.14706590030743927,-1.2599708222023351 l 52.281656537684924 6.558996622753196" fill="red" stroke="none" /><path d="M 79.46518482838121 95.60439243477599 l -42.863519975294544 -9.17520859578705 a64.83452745780065,64.83452745780065 0 0,0 0.24299243938092505,-1.0892874597154596 l 42.69923314891158 9.911674225052467" fill="red" stroke="none" /><path d="M 80.65960295795068 91.81776055985345 l -44.73451130809103 -18.92559299402879 a69.57318779068711,69.57318779068711 0 0,0 0.4761101633991198,-1.0989279001908612 l 44.40211043484923 19.69282003880625" fill="red" stroke="none" /><line stroke="#e1ed5e" stroke-width="0.3" x1="26.266209847984243" x2="21.928928074336255" y1="57.711370442889674" y2="55.22380399835377" /><path d="M 25.398753493254645 57.213857153982495 a86.0,86.0 0 0,1 29.58750427330803,-30.492523968695096" fill="none" id="id35" stroke="none" /><text fill="#e1ed5e" style="font-size:6.75px; font-family:Arial;" text-anchor="middle"><textPath startOffset="21.46611528233685" xlink:href="#id35">November</textPath></text><line stroke="#e1ed5e" stroke-width="0.3" x1="56.762969772571076" x2="54.21961505331055" y1="26.818313649435495" y2="22.513508569990535" /><path d="M 56.25429882871897 25.957352633546506 a86.0,86.0 0 0,1 42.265352541879196,-11.944610805530505" fill="none" id="id36" stroke="none" /><text fill="#e1ed5e" style="font-size:6.75px; font-family:Arial;" text-anchor="middle"><textPath startOffset="22.20632615414155" xlink:href="#id36">December</textPath></text><path d="M 90.58718382345135 81.22770947309562 l -15.82319733841339 -31.556725631303053 a56.30156521430334,56.30156521430334 0 0,0 0.8700702678251303,-0.4269397017481038 l 15.277655803577835 31.824420493185986" fill="red" stroke="none" /><path d="M 90.91171255644093 81.06846463323043 l -22.001023646236 -45.8296637128303 a71.83702506553024,71.83702506553024 0 0,0 1.119363801755127,-0.52555631395395 l 21.208881633181264 46.201585009424264" fill="red" stroke="none" /><path d="M 91.56875222667455 80.76684994638697 l -19.664666542066414 -44.858542000676145 a69.97946407053769,69.97946407053769 0 0,0 1.1073958348461534,-0.4741291038508261 l 18.88958694942995 45.19039063248976" fill="red" stroke="none" /><path d="M 91.90106846888425 80.62456947434976 l -20.122614802261637 -48.14021745926881 a73.17662468487099,73.17662468487099 0 0,0 1.1663522214811148,-0.47578435650234624 l 19.290978711192142 48.47946270195473" fill="red" stroke="none" /><path d="M 92.57280143429618 80.3572730644239 l -18.324356326523258 -48.46246191049348 a72.81112090282765,72.81112090282765 0 0,0 1.1761342424071166,-0.4331801672837172 l 17.487439758343573 48.77070534558352" fill="red" stroke="none" /><path d="M 93.25333710446033 80.11325718540243 l -15.95746965006943 -47.03689806592787 a70.6700172870654,70.6700172870654 0 0,0 1.1553443279559734,-0.38089886015516633 l 15.145442499871049 47.304610650342276" fill="red" stroke="none" /><path d="M 93.59665428221793 80.00007090966166 l -15.973171556183862 -49.8899032710885 a73.38458416329988,73.38458416329988 0 0,0 1.2063538986053204,-0.37482002852654855 l 15.112032284867812 50.15746343449757" fill="red" stroke="none" /><path d="M 95.692805502759 79.44645832069477 l -8.198982777777816 -39.124802550455335 a60.97466063898996,60.97466063898996 0 0,0 1.0291175191333373,-0.20643129290318118 l 7.524298849177342 39.260137799435725" fill="red" stroke="none" /><path d="M 98.91598698831166 79.02799685794201 l -3.2520390350650135 -62.91600942617398 a84.0,84.0 0 0,0 1.4446366704427036,-0.06220909390323026 l 2.1685615322329856 62.9626662466014" fill="red" stroke="none" /></svg>